<?xml version="1.0" encoding="UTF-8"?>
<svg xmlns="http://www.w3.org/2000/svg" viewBox="0 0 680.34743 448.37557">
  <rect width="680.34743" height="448.37557" style="fill: #fff;"/>
  <g id="Step_1_version_2" data-name="Step 1 version 2">
    <path d="M297.30355,255.08918c-2.79284.63366-9.22617.30156-12.01542-2.05298" style="fill: none; stroke: #d19c2a; stroke-linecap: round; stroke-linejoin: round; stroke-width: 3px;"/>
    <path d="M288.2507,331.15387s6.48002-4.46265,14.43558-4.94398c8.4148-.50911,13.68703,3.95043,13.68703,3.95043,0,0-7.98287,9.17876-16.47198,8.3678-9.07417-.86685-11.65063-7.37425-11.65063-7.37425Z" style="fill: #e6e7e8;"/>
    <path d="M297.30355,269.58447c-2.79284.63366-8.78628.25083-11.57552-2.10371" style="fill: none; stroke: #d19c2a; stroke-linecap: round; stroke-linejoin: round; stroke-width: 3px;"/>
    <g>
      <path d="M314.77134,278.79421s-9.93447,5.32323-17.06259,4.94628c-1.95501-.10339-4.60298-.02994-6.19296-.31491-1.10001-.19715.67721,37.90274.98851,45.63939.05292,1.31519,7.37264,4.46881,12.71166,3.30916,6.31551-1.37174,11.15735-7.26649,11.15735-7.26649" style="fill: #fff;"/>
      <path d="M314.7713,278.79421c-5.23564,3.03329-11.16597,5.65468-17.34712,5.4136-1.72293-.05509-4.23322-.09216-5.91557-.35937.00097-.02625-.18555.02591.15136-.039.05803-.02601.1099-.06844.1416-.12274-.48527,3.91921-.16882,7.96909-.17739,11.92196.20241,10.47848.71924,22.85049,1.07923,33.34571-.02685.3663.45802.70068.83106.97238,2.10911,1.33539,4.59012,2.03783,7.0493,2.41139,6.15892,1.03034,11.8133-2.86379,15.78958-7.23048-3.89811,4.48672-9.60168,8.4854-15.82666,7.51478-2.73671-.41842-5.64412-1.10184-7.85358-2.864-.2025-.16539-.41971-.52826-.39641-.78758-.00001-.00002-.14845-3.02953-.14845-3.02953-.19829-3.79782-.65383-14.24021-.82372-18.18455-.25876-7.58784-.68999-15.18154-.50351-22.77731.07217-.624-.02181-1.133.29934-1.7685l.05768-.06731c.03906-.03589.08594-.06805.13477-.09161.0769-.03619.23653-.05584.33741-.02896.90313.13209,1.86319.15797,2.77539.17695,0,0,3.0415.04879,3.0415.04879,6.03182.15038,11.75866-2.21012,17.3042-4.45462h0Z" style="fill: #ababab;"/>
    </g>
    <path d="M315.19969,242.35996l2.50935,87.90562s-6.45925,8.27892-16.96969,8.27892-12.95856-7.06362-12.95856-7.06362l-2.69293-88.42601s-2.93774-1.04646-3.67217-2.09292-.61203-6.54274-.61203-6.54274c0,0,.24481-1.43653,4.52901-2.87541.48147-.16171-.24481-18.31308-.24481-18.31308,0,0,5.44706-2.61615,14.93351-2.35454,1.82314.05028,6.85473-6.01715,6.85473-6.01715,0,0,5.18226-.92488,6.60991,1.83131.43792.84544-.24481,24.06862-.24481,24.06862,0,0,5.38586.65404,5.14104,2.35454-.04371.30363,0,6.89193,0,6.89193,0,0-1.22406,1.83131-3.18255,2.35454Z" style="fill: none; stroke: #231f20; stroke-linecap: round; stroke-linejoin: round; stroke-width: 2px;"/>
    <path d="M312.91388,207.08275c-1.49512,1.99057-4.23047,2.65341-6.60444,2.85421-.21674.02587-.34322.0721-.55327.16278-2.74913,1.56517-4.84034,4.35904-6.9293,6.73525-.13067.17681-.32257.30212-.5253.34349-3.37502.62587-6.80221-.00093-9.79005-1.57961-.97508-.49842-1.86083-1.14963-2.67967-1.84492,1.95902.80497,3.9495,1.44208,6.03028,1.70652,1.93586.27658,4.10207.24624,5.96191-.1603,0-.00002-.52539.34316-.52539.34316,2.24834-2.72797,4.51607-5.64887,7.89784-7.06707.32114-.108.76283-.17881,1.10803-.16375,2.23571.07224,4.69302-.03935,6.60937-1.32975h0Z" style="fill: #231f20;"/>
    <path d="M317.7088,233.17888c-4.34536,5.09046-11.36818,7.01404-17.8628,6.9061-6.42735-.18676-13.47219-1.28139-18.49176-5.59785,1.30963.96619,2.78082,1.66932,4.28815,2.23411,10.11673,3.4396,23.65094,4.01396,32.06641-3.54236h0Z" style="fill: #231f20;"/>
    <path d="M314.7713,241.94301c-8.9529,4.78979-20.30603,5.33985-29.37938.58857,1.7412.54559,3.65344,1.1079,5.44239,1.51055,7.99976,1.63196,16.28229.65003,23.937-2.09912h0Z" style="fill: #231f20;"/>
    <path d="M312.44562,231.21678c-6.77041,4.66503-15.93231,5.12382-23.47409,2.14084-1.07523-.43765-2.11185-.9693-3.13968-1.48682,8.57817,3.13802,18.2809,3.35963,26.61377-.65402h0Z" style="fill: #231f20;"/>
    <path d="M241.83136,143.28044c9.71879-1.56209,19.40192-3.08729,29.21287-3.84391,1.42511-.21552,3.05338.31114,4.18503,1.24246,4.57126,3.60176,6.46116,9.62111,6.28768,15.24299-.19854,4.85614-.47115,10.08152-3.11513,14.31955-1.14301,1.94183-3.79266,2.04679-5.7511,2.59388-6.88436,1.44-13.87454,2.34037-20.90771,2.62089-3.38969-.10538-7.95544.6013-10.17972-2.64745-5.10942-7.47696-7.96816-23.32725.26809-29.52842h0ZM241.86945,143.37274c-6.51094,5.73826-4.83795,16.03306-2.28687,23.3594.96156,2.38665,2.0852,5.25572,4.14323,6.79877,2.32678,1.07011,5.40178.84614,7.99178.88355,5.57259-.12857,11.14731-.7595,16.66554-1.56091,2.74365-.45125,5.56054-.82174,8.16894-1.64617,2.32241-1.21136,3.14363-4.58842,3.76969-6.97629,1.04491-5.37995,1.52013-11.26828-.66267-16.4307-1.37935-3.05323-3.495-6.10958-6.64603-7.38387-1.92703-.38547-4.10149.16195-6.09137.24519-2.78418.26693-5.56836.57572-8.35059.89278-5.5625.61444-11.14844,1.25529-16.70166,1.81825h0Z" style="fill: #808285;"/>
    <path d="M23.98712,11.76116c15.95235,3.03798,31.8573,6.27169,47.86865,8.8698,5.37378.69287,10.80318,1.83902,15.95605,3.4864,17.33293,5.17853,33.50881,13.48388,50.95702,18.21116,17.166,5.28708,34.58939,10.71935,51.64899,16.25652,6.82686,2.35808,13.92373,4.29053,20.31494,7.7438,12.16777,6.45821,44.85254,23.74463,57.43845,30.39838,12.47362,7.34821,24.60936,15.15668,36.62792,23.19362,3.00195,2.01927,5.97412,4.05907,8.86719,6.29753,1.59104,1.05266,2.69803,2.81084,3.26841,4.59592,2.35458,6.39883,2.86216,16.73741-5.0374,19.24569-1.76665.55008-3.62603.5748-5.42583.41863l.01514-.1994c8.96842.68454,12.16025-5.85861,10.74836-13.95232-.65972-3.27289-1.39424-7.1373-4.3698-9.0747-15.93049-10.91687-32.53315-21.02773-49.23432-30.72054-9.61206-4.64081-25.08515-13.23774-34.6569-18.40661-1.13246-.62764-21.0904-11.54746-21.36382-11.68511-5.67237-2.66889-11.65229-4.67142-17.54586-6.81863-20.41403-7.22077-41.0816-13.72787-61.98541-19.37194-13.71569-4.53341-27.02385-10.1472-40.78367-14.45409-6.84832-2.37783-13.94152-3.26594-21.03567-4.53655-14.04146-2.87365-28.86692-5.61298-42.27242-9.49757h0Z" style="fill: #231f20;"/>
    <path d="M124.94659,96.42612c.71869-.18808,1.43181.09522,2.15522.17717,2.01015.40779,4.12434.85574,6.09241,1.34638,8.05365,1.98509,16.05739,4.16817,24.01312,6.49573,10.532,3.2786,21.18781,6.44786,32.16603,7.77497,3.46724.49908,6.83264.56084,10.29832.72588,0,.00011,1.08691.08234,1.08691.08234l1.04248.17778c1.01909.15584,3.12093.59128,4.12254.85688,16.15902,4.0979,31.5942,10.46037,46.70076,17.39818-.00005.00014-.07525.18547-.07525.18547-11.20572-3.7117-36.12957-12.73979-47.08527-15.75964-.98905-.28329-2.96219-.75279-3.9699-.94331-.53669-.13616-1.42751-.28635-1.97071-.32854-9.02696-.52325-17.77627-2.96004-26.55176-4.89705-13.55494-2.80065-26.95106-6.31282-40.06781-10.74484-1.12067-.37594-4.77423-1.56969-5.91255-1.91564-.00011-.00004-.98986-.29119-.98986-.29119-.16504-.04713-.33008-.08894-.49561-.12683-.14551-.03873-.375-.06117-.42529-.06534l-.13379-.14841h0Z" style="fill: #231f20;"/>
    <path d="M106.3382,58.24291c6.38733,10.942,12.97891,21.89806,17.25762,33.88028,2.49909,10.829,4.55534,21.71773,5.91931,32.74193.15852,1.57056.36995,3.16466.19026,4.74301.0811-1.58029-.23298-3.14837-.45308-4.70832-1.90393-10.86366-4.07455-21.79908-6.61756-32.50395-4.03831-11.66812-10.75664-23.0841-16.29655-34.15295h0Z" style="fill: #6d6e71;"/>
    <path d="M54.2796,55.22527c-.11035.00369-.11084.15034-.13184.23352-.09539,1.48733.13982,2.97953.26216,4.46102.52704,4.74861,1.14854,9.48698,1.80472,14.21996.86525,6.3119,1.7383,12.62385,2.72951,18.91475,1.88029,12.59006,5.03787,24.9733,7.35187,37.50098-3.09005-12.3767-6.34045-24.73226-8.33445-37.34994-.93734-6.31147-1.79574-12.63166-2.5184-18.96944-.51513-4.75651-1.0341-9.51594-1.30029-14.29483-.05788-1.49075-.21248-3.001-.01421-4.48604.0269-.08218.03715-.2325.15092-.22996h0Z" style="fill: #231f20;"/>
    <path d="M280.79601,140.90565l19.28558-2.31569,2.60818,1.24441,5.47344,21.91245,1.47362,1.05258,1.2631,6.94706s-20.8702,5.20798-29.54527,5.20798c-.00013,0,4.37338-6.89212,4.78414-19.41718.17315-5.27984-5.34278-14.63161-5.34278-14.63161Z" style="fill: #fee000; stroke: #231f20; stroke-linecap: round; stroke-linejoin: round; stroke-width: 2px;"/>
    <path d="M286.28839,166.79923c6.41906-1.61363,13.00842-2.21932,19.55909-2.94716-6.28202,2.07364-12.96708,2.6968-19.55909,2.94716h0Z" style="fill: #ceb42c;"/>
    <path d="M299.22931,141.78841c1.96492,6.51899,3.26619,13.177,3.88146,19.95828-1.97061-6.51774-3.26066-13.17793-3.88146-19.95828h0Z" style="fill: #e8cd2c;"/>
    <path d="M295.95636,141.78841c1.96575,6.51892,3.26582,13.17692,3.88194,19.95828-1.97075-6.51777-3.26029-13.17795-3.88194-19.95828h0Z" style="fill: #e8cd2c;"/>
    <path d="M292.6839,142.75157c1.96552,6.519,3.26558,13.17703,3.88194,19.95828-1.97145-6.51768-3.26029-13.17783-3.88194-19.95828h0Z" style="fill: #e8cd2c;"/>
    <path d="M289.41144,142.75157c1.96492,6.51899,3.26619,13.177,3.88146,19.95828-1.97074-6.51775-3.26028-13.17791-3.88146-19.95828h0Z" style="fill: #e8cd2c;"/>
    <path d="M286.13898,143.89368c1.96517,6.51901,3.26571,13.17698,3.88145,19.95829-1.97061-6.51777-3.26066-13.17792-3.88145-19.95829h0Z" style="fill: #e8cd2c;"/>
    <path d="M31.21027,233.08049c37.17419-12.03279,74.26099-24.60828,112.06778-34.56655,4.08939-1.17958,8.82392-1.31083,13.03771-1.59855-.00002-.0001,8.65818-.62659,8.65818-.62659,14.37482-1.24439,28.91805-1.63278,43.12895-4.10901,19.41904-3.91488,40.30231-7.71255,59.50676-12.3976,3.7871-1.02291,7.7428-1.74722,11.28378-3.42231,5.59865-4.98276,7.37228-13.18764,6.71926-20.44185-.69815-12.06124-10.00722-20.88994-21.95291-21.60278-11.55255-.68262-23.10967-1.46216-34.65655-1.92092-6.47492-.20029-12.96433-.49362-19.36328.13204-1.31154.18922-5.12688.54429-6.50785.69615-21.60693,1.9058-43.37167,3.39396-65.0395,4.21979-15.92059.9497-31.96585,1.21024-47.8335-.7426-22.78824-2.80503-46.63435-10.08986-62.57717-27.44659-.09005-.08976.06227-.23148.14555-.13682,16.28542,16.80683,39.95724,23.50999,62.6113,26.02994,17.25734,2.06413,34.59448.96948,51.90724.12649,21.59681-1.06822,43.35595-2.55294,64.90382-4.48881,1.07492-.12075,3.28178-.3562,4.36521-.43298,17.46156-.54746,34.7831,1.28527,52.15676,2.43241,12.54809.91072,22.35168,10.31804,22.9319,23.04381.4636,5.83865-.60915,11.93689-3.75173,16.96857-1.02482,1.55872-2.09586,3.11236-3.63324,4.22684-.98073.56539-2.06948.85556-3.12745,1.20488-8.35008,2.46762-16.88407,4.16249-25.37991,6.00878-12.41517,2.64104-30.1722,6.20653-42.49864,8.88777-14.24104,2.72761-28.8067,3.38247-43.2113,4.81723-.00005-.00036-8.66264.6713-8.66264.6713-3.32764.25744-7.44956.37304-10.66056,1.11759-30.38614,7.45169-84.5192,25.149-114.56795,33.35037h0Z" style="fill: #231f20;"/>
    <g>
      <path d="M516.99595,419.11627s-26.94616-31.69536-55.99749-48.95774c-29.05133-17.26238-72.23986-26.95044-84.95985-31.57967-12.71999-4.62923-74.934-29.89126-78.14125-37.04883-3.20725-7.15757-8.39036-19.38646-3.2726-29.90285,5.11776-10.51639,17.5724-17.17303,23.76557-17.4235s50.03898,6.48607,60.7462,11.11744c10.70722,4.63137,77.49872,24.48913,83.96709,24.18417,6.46837-.30495,26.39202-18.55588,38.602-34.13413" style="fill: #fff;"/>
      <path d="M516.91974,419.18105c-18.11565-19.57376-37.92526-38.3202-61.44852-51.19282-14.2167-7.48247-29.35829-13.01444-44.62811-17.98222-12.70554-4.33419-25.84419-7.43037-38.38439-12.257-17.41919-6.98567-34.84255-14.2962-51.85101-22.21466-4.85497-2.30609-9.69335-4.6532-14.4121-7.25867-2.90002-1.721-6.06678-3.28045-8.35605-5.88542-3.38659-6.65722-6.00773-13.86323-6.02305-21.48717-.02004-11.36045,8.92826-20.55776,18.60811-25.28958,2.54446-1.19147,5.16465-2.18348,8.04003-2.32644,13.53272.76024,26.75716,3.30546,40.05911,5.68035,7.89071,1.56455,15.99844,3.17072,23.44331,6.35364,22.77187,7.9032,45.98688,14.73969,69.25725,21.02331,3.82914.91495,7.76214,2.11662,11.64657,2.50148,3.75-.40231,7.10386-3.26619,10.18268-5.39584,10.58008-8.19721,20.07717-17.78545,28.57326-28.14045.07251-.1008.23986.02489.15761.12331-8.26501,10.59366-17.53529,20.50278-28.05603,28.8991-3.29709,2.34423-6.61896,5.38184-10.87352,5.83268-4.13568-.32581-8.0066-1.42483-12.00305-2.337-20.8664-5.26297-41.49975-11.25307-61.9629-17.91245-5.12434-1.53209-10.03805-3.8126-15.15568-5.31027-15.49437-4.0613-31.45803-6.65443-47.33011-8.79454-2.63236-.30739-5.3599-.66518-7.88138-.69109-2.45459.09958-4.98633,1.01974-7.34668,2.08786-7.01351,3.33513-13.43855,8.8561-16.50592,16.10856-3.67698,9.3564-.12354,19.81118,3.98232,28.47049,2.14274,2.46239,5.17611,4.02686,7.97081,5.73681,4.63874,2.6694,9.44733,5.06204,14.28766,7.37445,16.91808,8.0388,34.37468,15.29425,51.89402,21.95156,12.61079,4.59746,25.75822,7.41197,38.54244,11.57962,15.39481,4.87303,30.66203,10.41528,44.90338,18.11015,14.25654,7.69441,26.89141,18.07014,38.64453,29.10764,3.92334,3.68164,7.71387,7.50021,11.41602,11.3988,3.69873,3.90173,7.32178,7.87408,10.76172,12.00629.08514.09455-.07263.22691-.15234.12955h0Z" style="fill: #231f20;"/>
    </g>
    <path d="M344.41681,274.14034c1.07361,3.01914.70272,6.33809.66372,9.48799-.34902,6.36921-1.21271,12.77233-3.47911,18.78244-3.13849,8.1563-7.18391,9.77462-15.39562,7.14802-8.31694-2.80666-16.05396-7.10203-23.36183-11.91575-2.98968-2.58554-4.61034-6.809-5.50597-10.59934-1.02933-4.80245.05051-9.80236,2.19656-14.15015,2.14124-4.34512,5.21864-8.42936,9.53844-10.80576,2.99278-1.5152,6.56795-.23284,9.67488.28586,6.78025,1.60306,21.97621,5.84319,25.66893,11.76669h0ZM344.32745,274.18535c-4.07954-6.13009-18.69393-9.27368-25.77475-10.87978-2.93907-.37381-6.2182-1.67578-9.01479-.2974-4.00733,2.24102-7.04056,6.2363-9.11335,10.32142-3.79945,7.01771-3.37782,15.64568,1.19125,22.21392.79788,1.39253,2.17097,2.18625,3.45826,3.06889,6.61834,4.30624,13.68363,8.19257,21.28898,10.41256,7.92015,2.223,11.35757.84467,14.43304-6.93323,2.28182-5.87898,3.45153-12.19897,4.02312-18.47996.15759-3.11364.50457-6.42873-.49176-9.42641h0Z" style="fill: #6d6e71;"/>
    <path d="M314.70245,228.1978c9.49517-9.25602,18.81075-18.6327,29.13269-27.00188,7.45252-4.87224,15.87681-7.8804,24.01317-11.37553,9.25337-3.66764,18.55488-7.35845,28.31945-9.48693,3.31744-.81003,6.87238-.48222,10.12749.00993,4.39647.61998,8.72655,1.48399,13.05321,2.36076,8.64348,1.77568,17.23132,3.77882,25.80615,5.846,21.30518,5.18364,43.00365,10.32102,64.07034,16.37206,1.86491.62525,3.87647,1.03828,5.53369,2.18204,5.44236,4.30756,10.29753,9.23123,15.29057,14.0182,18.881,18.52632,37.31479,37.49658,55.52586,56.67779,6.04438,6.39248,12.16987,12.81499,18.03852,19.30556,1.51074,1.46048,3.21045,2.91711,4.87158,4.33499,4.02725,3.45143,11.23958,9.32335,15.26186,12.62674-.00014-.00009,41.09312,33.27628,41.09312,33.27628.1016.07478-.02569.23738-.12257.15779-17.45443-13.1372-35.2269-26.75171-52.29045-40.46325-3.46733-2.83984-6.86744-5.50529-10.18564-8.57905-6.05514-6.48299-12.05807-12.85835-18.16012-19.23707-18.29842-19.06962-36.52161-38.22239-55.14794-56.97135-5.09638-4.91295-9.9001-10.27006-15.50522-14.58617-5.51847-2.34281-11.43816-3.73456-17.18321-5.46803-12.72121-3.5793-25.53081-6.85433-38.39506-9.88133-8.57241-2.03344-17.17358-3.94993-25.80617-5.70617-8.62548-1.75179-17.28417-3.46926-25.96679-4.62334-3.28479-.45693-6.40272-.75162-9.5659.03736-9.59218,2.22091-18.86618,5.77923-28.05181,9.32488-8.0287,3.35403-16.43773,6.35794-23.84778,10.91552-10.36703,8.09055-19.95327,17.30395-29.77144,26.07878-.08632.08867-.23169-.06011-.13757-.14457h0Z" style="fill: #231f20;"/>
    <path d="M335.48273,254.10887c8.41553-5.40836,17.01904-10.47586,25.32568-15.8974,2.23801-1.58139,5.10098-3.04866,6.53724-5.30983.26817-.93806,1.25374-1.45691,1.97011-1.79541,1.18357-.54167,2.39597-.89182,3.60935-1.22575,8.41418-2.21951,17.11198-3.51709,25.35256-6.31432.87336-.35246,2.21342-.85105,2.70948-1.52003.1787-.44613.65401-.89445,1.07567-1.02652,2.45852-.62985,4.78075.61055,7.03126,1.29196,7.01624,2.64227,13.71953,6.04876,20.72167,8.61557,4.52641,1.48795,9.56101,3.63334,14.29442,1.97428.10498-.05531.20015.11662.09372.1764-4.62811,2.38159-10.16876.56664-14.88571-.65604-4.83594-1.45093-9.48096-3.37961-14.09034-5.29493-3.41735-1.41123-6.79266-3.01087-10.30418-4.06201-.71314-.1843-1.5444-.40503-2.17433-.26655-.04933.01166-.03663.01853-.02296-.00583-.00146-.01425.02246-.0137.01514-.03116-.91172,1.54877-2.43165,1.91748-3.87739,2.46908-3.63104,1.15072-7.37612,1.7306-11.10162,2.34202-6.08347,1.10536-12.43879,1.66584-18.0772,4.26783-.59883.36894-1.20739.69167-1.36373,1.2958-1.23503,2.80662-4.33866,4.60161-6.56818,6.44624-4.0905,2.93937-8.4152,5.47929-12.78288,7.92185-4.37402,2.4325-8.83105,4.71024-13.39258,6.78079-.10347.053-.20129-.11534-.09521-.17606h0Z" style="fill: #231f20;"/>
    <path d="M381.31085,263.9348c13.05549-2.67513,26.28125-3.92404,39.54446-4.88931-.00002-.00022-.01565.64315-.01565.64315-9.21266-1.68851-18.57358-2.47628-27.81542-3.97986-2.86965-.40519-6.31071-1.08344-9.17529-.63655-5.82721,1.87442-11.89184,3.81678-17.8393,4.7929,5.31187-2.61278,11.2322-4.46249,16.77772-6.66397,3.4391-1.05078,7.20433.06766,10.54594.59451,9.23319,1.57353,18.34881,3.86288,27.61328,5.25182.35146.04266.36551.60582-.00444.64194-6.58126.90998-13.11412,2.23902-19.73042,2.89062-6.60302.71247-13.21826,1.31809-19.87744,1.55339-.11436.00367-.14533-.17549-.02344-.19864h0Z" style="fill: #231f20;"/>
    <path d="M332.29034,320.50749c-1.30474,5.02108-2.26717,10.99274.61754,15.54603,2.45005,3.24679,6.72899,4.42243,10.63532,5.11722,9.60358,1.5542,19.33988-.09249,28.6822-2.62617-4.45508,2.07688-9.21094,3.57437-14.10596,4.39316-8.1666,1.26806-20.01538,1.53451-26.0216-5.16442-3.7274-5.03534-2.19125-12.02979.1925-17.26582h0Z" style="fill: #231f20;"/>
    <path d="M463.13312,216.55757c-4.99609,4.22949-9.91895,8.53772-14.35645,13.28345-1.62554,1.78679-3.26092,3.65403-4.20705,5.89754-2.30568,7.01731-5.87215,13.56822-9.7016,19.85318-1.0616,1.73877-2.1702,3.49788-3.33062,5.17792-.54352.9316-.25281,2.09585-.00832,3.16006.85599,3.07365,2.13773,6.14027,3.04398,9.30323.90381,3.16141,1.49023,6.47699,1.22607,9.76312-.31784-3.19872-.75086-6.34804-1.93526-9.54303-.997-3.14177-2.43076-6.06593-3.3182-9.27059-.30851-1.23868-.6435-2.78078.13088-3.99977l.67629-1.01697c2.62888-3.96408,5.41559-8.36551,7.79686-12.4504,1.65627-2.81223,3.19289-5.70969,4.33742-8.76313.40348-1.38118,1.05473-3.37317,1.83453-4.58291,2.53631-4.27163,6.16575-7.74577,9.90716-10.95225,2.50751-2.01262,5.20899-4.42666,7.9043-5.85946h0Z" style="fill: #6d6e71;"/>
    <path d="M381.39581,281.96636c-2.08053,6.62319-4.95366,12.87658-7.58302,19.27984,1.30999-6.8127,4.25445-13.22547,7.58302-19.27984h0Z" style="fill: #6d6e71;"/>
    <path d="M383.24884,297.73171c-2.40232,9.69963-5.54631,19.95612-7.68363,29.70315-.11813.67032-.24899,1.34058-.38864,2.01243.75485-10.92484,4.18485-21.53791,8.07227-31.71558h0Z" style="fill: #6d6e71;"/>
    <path d="M393.52325,281.13588c1.31322,15.91723.46765,34.89688-7.32292,49.1481.7833-1.9063,1.66661-3.85698,2.24669-5.84293,4.45212-13.92791,5.02816-28.77934,5.07623-43.30516h0Z" style="fill: #6d6e71;"/>
    <path d="M368.7923,204.70986c.92069,7.78334,1.5708,15.83264.00033,23.56032.19719-7.74244-.44943-15.81372-.00033-23.56032h0Z" style="fill: #6d6e71;"/>
    <path d="M403.7381,204.70986c-1.59444,5.40292-4.5103,10.84751-5.89472,16.19214-.16724-2.93209.97749-5.75263,1.96984-8.4507,1.0948-2.68108,2.34139-5.29799,3.92488-7.74144h0Z" style="fill: #6d6e71;"/>
    <path d="M407.94806,191.21919c1.3304,6.08511,3.79279,21.97255.00029,26.9462,1.14427-1.97092,1.0085-4.36735,1.09065-6.57566-.00305-2.25481-.08264-4.5147-.21691-6.77422-.2345-4.38661-.63454-9.19117-.87402-13.59631h0Z" style="fill: #6d6e71;"/>
    <path d="M395.7381,236.39235c.40348,4.36022-.28393,10.0899-4.2102,12.71908,2.84743-3.6514,3.16105-8.32529,4.2102-12.71908h0Z" style="fill: #6d6e71;"/>
    <path d="M388.36993,237.99239c-1.91149,3.14375-4.96271,5.83208-5.12134,9.66326-1.43672-3.58477,2.33207-7.78631,5.12134-9.66326h0Z" style="fill: #6d6e71;"/>
    <path d="M222.0047,189.83141c12.24323,3.46023,24.39983,7.1482,36.63622,10.58921,4.07228,1.13497,8.15138,2.27218,12.24806,3.17687,1.94759.36429,3.92131.99525,5.89257.73749,5.2158-1.19077,12.37921-4.92974,12.133-11.08744-.47413-3.9614-3.72239-7.25427-7.13979-9.19956-3.60161-2.11312-7.66899-3.44427-11.76567-4.49719,6.2407,1.0568,12.99839,2.7207,17.46591,7.54803,8.01167,8.69866-1.35815,17.30698-10.35131,19.16012-2.22793.35906-4.50283-.30358-6.66734-.70994-8.3291-1.95369-16.4165-4.50118-24.48437-7.14568-8.0625-2.64789-16.05078-5.51239-23.96729-8.57193h0Z" style="fill: #231f20;"/>
    <path d="M278.97296,176.78128c5.39746,1.28598,10.79102,2.54961,16.19141,3.6331,3.34494.59492,6.68212,1.33758,10.02685,1.17822,5.57966-.872,11.16306-5.19093,12.25449-10.89281.87046-6.39958-3.15424-13.96723-9.75575-15.53173,8.71493.76881,14.44521,12.4748,10.09706,20.03549-2.95635,5.01583-8.75007,8.77788-14.6665,8.24333-8.37097-.98839-16.31544-3.74924-24.14755-6.66559h0Z" style="fill: #231f20;"/>
    <path d="M208.05939,145.88207c1.18141,5.91462,1.69376,11.94564,1.50597,17.96992-1.19052-5.94836-1.68629-11.91153-1.50597-17.96992h0Z" style="fill: #6d6e71;"/>
    <path d="M196.38849,143.89368c-1.52546,7.66088-3.44167,15.67963-1.77363,23.45246.16084.49967.31123,1.00774.45625,1.5255-3.85619-7.54464-1.57862-17.4374,1.31738-24.97797h0Z" style="fill: #6d6e71;"/>
    <path d="M200.90607,156.38266c.23891,2.94445.35438,7.20208.47119,10.1929.25375,3.32987-.05239,6.84868,1.22294,9.98882-.25028-.33462-.55106-.68159-.6912-1.09136-.14825-.29398-.38171-.89814-.46873-1.21488-1.51876-5.80852-1.29703-11.96419-.5342-17.87548h0Z" style="fill: #6d6e71;"/>
    <path d="M259.91193,104.78809c-1.80719,7.62632-3.95999,15.40984-8.08856,22.12825,2.8438-7.2039,5.00753-15.00661,8.08856-22.12825h0Z" style="fill: #6d6e71;"/>
    <path d="M198.45929,76.79985c-4.04875,7.94941-7.76319,16.83386-6.77462,25.91566.06075,1.30668.48507,2.53338.75118,3.82544-.47803-1.21126-1.00586-2.438-1.23438-3.74368-1.77721-9.14813,2.04544-18.59975,7.25781-25.99742h0Z" style="fill: #6d6e71;"/>
    <path d="M202.6004,86.2116c.78394,6.1533.88749,12.58993-.90165,18.57651.41485-6.11589.31656-12.46489.90165-18.57651h0Z" style="fill: #6d6e71;"/>
    <path d="M317.7088,323.57582c1.99634-2.89988,5.33384-5.30727,8.90027-5.63446-2.29003,2.77429-5.31392,4.95321-8.90027,5.63446h0Z" style="fill: #231f20;"/>
    <path d="M471.5882,281.96636c2.72856-10.82691,7.52975-22.31745,11.23171-32.90458,1.15688-3.63651,2.84034-7.2297,3.07415-11.06935.60329,3.86585-.70178,7.79946-1.58447,11.53599-3.09453,11.23425-7.74126,21.93737-12.72139,32.43794h0Z" style="fill: #231f20;"/>
    <path d="M159.65656,198.53749c14.88286,4.12613,29.64137,8.78124,44.55369,12.72074,3.16492.73662,6.39184,1.77411,9.62842,1.87449,3.98163-.58767,7.99905-2.66904,10.72221-5.60599,5.9141-6.37505-1.90167-14.55336-8.24224-16.7634,7.5606,1.54879,15.81084,10.53837,9.47885,17.81191-3.0253,3.46884-7.27473,5.78021-11.82249,6.48165-3.52909-.02946-6.87989-1.07535-10.2633-1.87127-14.97558-4.02963-29.60829-9.05326-44.05515-14.64814h0Z" style="fill: #231f20;"/>
  </g>
</svg>
