<?xml version="1.0" encoding="UTF-8"?>
<svg xmlns="http://www.w3.org/2000/svg" viewBox="0 0 680.34743 448.37557">
  <rect width="680.34743" height="448.37557" style="fill: #fff;"/>
  <g id="Step_5-_Fill_tube" data-name="Step 5- Fill tube">
    <path d="M223.03918,256.79491c-5.8102,1.08913-11.86095,1.93987-17.73634.73547-5.80467-1.62012-10.96939-5.66024-13.87609-10.94248-4.20912-7.84929-1.29265-16.24743,4.75816-22.18482,8.31705-8.55988,18.30395-15.2368,28.29267-21.63568,2.71032-1.82861,7.32873-4.31715,10.35698-5.81426,23.86978-12.32725,49.98533-25.19702,73.89412-37.4515,6.90923-3.96028,14.80354-5.69995,22.55028-7.13375,7.74606-1.49969,15.49997-2.9548,23.26218-4.37143,6.90341-1.11848,16.49658-3.23257,23.3872-3.8389,7.86085-.7907,15.7173-1.4355,23.53614-2.36878,4.8534-.57994,9.76519-1.23782,14.54298-2.23873,14.24122-3.83645,28.25977-9.92828,43.32476-9.7763,11.82179.16676,22.9783,8.94395,31.46003,16.47838,4.08722,5.20555,8.2127,10.4671,13.08627,14.90071,3.4207,2.7447,8.35082,7.31689,11.6711,10.17598,18.8828,17.02789,46.90634,42.19479,65.78613,59.11716,3.31599,2.94347,6.58024,5.87088,10.23717,8.39431-.00004.00007,3.49605,2.71315,3.49605,2.71315.10361.074-.023.23836-.1216.15868-2.28199-1.76115-4.92944-3.52346-7.19817-5.14438-2.32428-1.83153-4.58844-3.71953-6.84918-5.61577-23.40262-19.86109-50.1181-43.58037-73.31768-63.95657-1.53969-1.43179-3.45553-2.92666-5.04789-4.305-2.80015-2.48897-5.30032-5.30039-7.71012-8.12359-1.63979-2.09252-4.32896-5.10839-5.47734-6.80459-7.13913-6.3486-15.15075-12.55231-24.43855-15.24775-5.62827-1.43308-11.50325-.62686-17.19592.25325-7.70215,1.32445-15.24463,3.58449-22.74853,5.95479-3.65881,1.23478-7.69435,2.36066-11.56299,2.94905-11.71489,1.87823-23.5824,2.53994-35.3662,3.57895-15.41101,1.69394-31.39567,4.99652-46.63871,7.73205-7.73923,1.37988-15.50583,3.19401-22.31784,7.1634l-41.90576,22.00493c-11.9142,6.25777-24.75028,12.90904-36.74762,19.07324-8.4358,4.94922-16.7179,10.37282-24.41206,16.40695-3.06541,2.44025-6.05467,4.98721-8.74413,7.79938-2.646,2.81183-5.25488,5.83545-6.04736,9.57932-.98758,3.67086-.60611,7.70014,1.18018,11.07025,2.62897,5.02783,7.64768,9.06987,13.07603,10.75316,5.72784,1.32308,11.75236.62384,17.52261-.23431.12924-.03132.16124.17446.03906.19602h0Z" style="fill: #231f20;"/>
    <path d="M283.14807,226.98403c9.55055-4.78462,19.30313-9.1252,29.25876-12.98865,5.04972-1.71855,10.02572-4.0012,15.31442-4.86607,15.88489-1.74163,31.77235-3.49033,47.4175-6.77726,3.8926-.76064,7.78298-1.55361,11.57573-2.67588,1.78972-.59265,3.67105-1.03694,4.87206-2.49352,2.96082-3.54061,5.03984-7.73482,7.21492-11.80014.04645-.11072.2312-.03392.1835.07876-1.39763,3.77546-3.00852,7.4844-5.10788,10.94295-.75607,1.16857-1.58522,2.51132-2.79589,3.25577-4.93445,2.65115-10.20284,3.53898-15.52047,4.7835-10.49434,2.0755-21.13884,3.57989-31.82378,3.99504-7.93115.54821-16.12059.20803-23.38522,3.88875-7.04884,3.15217-14.95244,6.47746-22.12157,9.25722-4.96148,1.95247-9.95513,3.83168-15.00396,5.5836-.10898.04412-.19006-.13456-.07812-.18408h0Z" style="fill: #231f20;"/>
    <path d="M224.45178,263.21828c-3.31152,2.63086-6.55029,5.36386-9.6626,8.211-2.91099,2.81338-6.38786,5.72357-7.93036,9.49129-2.9931,11.56398,3.57155,28.78362,17.88546,26.04159,12.5243-1.87998,23.67754-9.78392,33.29876-17.13678-9.00028,8.95417-33.53045,25.5577-45.28467,14.67379-5.61997-4.87875-9.26412-18.54844-6.03243-25.35405,1.8787-3.26205,4.79741-5.79335,7.55194-8.28777,3.18627-2.63333,6.80722-5.77716,10.17389-7.63907h0Z" style="fill: #231f20;"/>
    <path d="M278.24767,298.63878c-1.67822,3.17874-3.32666,6.35269-4.83594,9.56448-1.72525,3.98297-3.7969,7.97139-3.60224,12.2629,1.02734,7.43462,6.89189,15.83883,15.19851,14.94301,4.3434-.43251,7.98386-3.10515,11.34022-5.74136,3.44165-2.69371,6.74937-5.70978,9.49121-9.11619,2.21244-2.72433,4.21097-5.70007,5.48197-9.03088.02134-.11958.22578-.08101.19579.04165-1.67908,10.21617-15.82161,24.97456-26.4135,25.43083-5.80609.27611-10.49954-4.20099-13.2793-8.77274-1.64454-2.74219-3.28295-5.69512-3.59389-8.94776-.09242-4.23834,1.88965-8.13995,3.79929-11.77124,1.74278-3.17944,3.76671-6.17999,6.05235-8.97534.07254-.09238.22507.01038.16553.11264h0Z" style="fill: #231f20;"/>
    <path d="M289.25207,336.22099c3.23199,9.9643,10.64582,18.16558,21.75691,13.37018,9.40683-3.48426,17.40977-9.75237,25.51461-15.51167,3.24019-2.34315,6.4399-4.74305,9.75826-7.00389,1.90068-1.27494,3.77369-2.64604,5.93358-3.47713,5.58642-1.50476,11.41138-1.93503,17.1543-2.33777-5.25227,1.0928-11.47577,1.51623-16.8662,3.23372-1.97471.89147-3.7995,2.15873-5.63673,3.43041-10.56375,7.51618-21.22229,15.18886-32.91357,20.92766-4.42004,2.30918-9.81962,4.23794-14.65188,1.90507-5.50829-2.56815-9.09084-9.09075-10.04928-14.53656h0Z" style="fill: #231f20;"/>
    <path d="M325.22277,238.81996c5.35996-6.81562,20.57276-6.6966,28.71477-8.03574,9.87628-1.6715,19.58309-4.36711,29.34387-6.56409,3.46955-.92201,7.25864-1.5304,10.3672-3.28664.08246-.10401.16986-.13953.27972-.27634l.31885-.51111c1.23845-2.08705,2.06434-4.47483,2.00199-6.94503.41717-.62253.44941,2.29898.42041,2.53129-.06194,1.73643-.54646,3.43931-1.26323,5.01981-.31857.91065-1.12652,1.67907-1.96392,2.0971-3.07674,1.68361-6.33397,2.51572-9.64445,3.44045-6.53477,1.60527-13.14988,2.7644-19.81837,3.59973-6.67993.74508-13.21745,2.19197-19.75486,3.69957-6.3649,1.46557-13.49047,1.22474-18.83948,5.34707-.06907.09551-.23598-.01545-.1625-.11608h0Z" style="fill: #231f20;"/>
    <path d="M391.33361,258.62599c2.67772-2.04794,6.04882-2.88327,9.25039-3.74054,3.25746-.52387,6.53625-1.10864,9.46881-2.70934,1.25739-.67505,2.91332-1.47069,3.87751-2.36448.31819-.4477.21071-.74889-.01172-1.26181-1.97518-3.38802-5.65186-5.8678-7.24119-9.61744-.04598-.09299.09058-.19239.16401-.11225,2.37387,2.2984,5.13374,3.99567,7.48047,6.58278.89307,1.05923,1.92217,2.40743,1.79836,4.01446-.49104,3.65835-7.66075,3.83404-10.46767,5.15878-1.55921.54948-3.05286,1.32417-4.60413,1.90815-3.06065,1.14713-6.4323,1.58787-9.56886,2.27853.00002.00006-.05956.01514-.05956.01514-.08257.02417-.15303-.09125-.08643-.15198h0Z" style="fill: #231f20;"/>
    <path d="M424.11682,251.60576c.86328-6.01111,1.87158-11.98785,3.36328-17.91077,1.65283-5.91937,3.73779-11.56183,5.68359-17.31116,3.83547-11.27764,8.51588-22.87997,12.24337-34.20168-.20773,1.50374-.53829,2.9944-.90695,4.46636-4.00382,16.06155-10.09009,31.8635-15.52447,47.47104-1.53482,5.04448-3.42553,12.33593-4.85883,17.4862h0Z" style="fill: #231f20;"/>
    <path d="M322.1798,171.65283c2.57888,5.67557,4.71113,11.6276,5.55439,17.81869-2.14621-5.77464-4.30102-11.78017-5.55439-17.81869h0Z" style="fill: #6d6e71;"/>
    <path d="M330.51086,185.42186c1.11219,3.00716,2.30315,6.00514,3.04971,9.13962.68087,3.10603,1.53421,6.45246.65303,9.60477.08495-3.19881-.9241-6.2685-1.62256-9.36281-.63159-2.76632-1.80061-6.58064-2.08019-9.38158h0Z" style="fill: #6d6e71;"/>
    <path d="M334.36437,214.69551c3.42723,4.65761,3.58687,11.10077,2.27897,16.54595-.09154-5.51101-.15161-11.38244-2.27897-16.54595h0Z" style="fill: #6d6e71;"/>
    <path d="M355.04064,240.49797c3.05515,1.87958,5.74226,5.20042,5.82826,8.90932-1.46893-3.32929-3.70254-5.95914-5.82826-8.90932h0Z" style="fill: #6d6e71;"/>
    <path d="M248.83457,123.13328s11.40807-.30512,14.13711,4.06746c1.15275,1.84698.72348,25.16541.72348,25.16541,0,0,4.57916.95774,5.03359,2.84423s.19826,5.55156-.03825,6.49207c-.23651.94051-3.71739,3.26242-4.63617,4.08676-.55146.49477.46886,73.48081.46886,73.48081l-34.73342,1.96546-1.84127-75.54714s-3.84269-1.34709-4.32546-2.71046c-.3664-1.03473-.36918-6.0151-.36918-6.0151,0,0,2.03458-3.46633,5.68224-4.54193.56533-.1667-.01617-15.64592-.01617-15.64592,0,0,1.97971-3.68318,10.04443-5.60814,5.72769-1.36713,9.87022-8.03351,9.87022-8.03351Z" style="fill: #fff; stroke: #231f20; stroke-linecap: round; stroke-linejoin: round; stroke-width: 2px;"/>
    <path d="M266.46496,157.19272c-6.28848,2.83582-13.06801,4.93156-20.05027,4.88536-6.89638-.35433-13.80538-1.60029-20.23591-4.11208,1.63725.51975,3.32817.84667,5.01176,1.17623,5.02352.99745,10.14713,1.74809,15.2539,1.93682,6.80791.08009,13.56512-1.80488,20.02051-3.88633h0Z" style="fill: #231f20;"/>
    <path d="M260.96008,127.48842c-.58739.92662-1.73845,1.17815-2.65287,1.63486-.20405.15592-.56557.50376-.7314.69892-2.11153,2.36566-3.58842,5.24322-5.68848,7.65093-.18923.15368-.26971.3032-.52588.43334-3.62862,1.01467-7.48603,1.27774-11.2583.9676-2.83986-.26147-5.66212-.97123-8.1797-2.2691,1.35107.42223,2.68604.8511,4.07617,1.04886,4.90773.88537,10.11558.47292,14.91309-.60761,1.32219-1.22664,2.32919-2.91096,3.52153-4.33963,1.12215-1.3528,2.17291-2.89915,3.67228-3.90065,1.02257-.41469,2.08002-.45969,2.85355-1.31751h0Z" style="fill: #231f20;"/>
    <path d="M261.72424,165.57338c-10.38214,2.7793-21.60395,3.24812-31.97559.18695,1.33106.19979,2.65772.38564,3.99219.51143,9.31895,1.12395,18.70423.50516,27.9834-.69838h0Z" style="fill: #231f20;"/>
    <g>
      <path d="M516.91335,393.27382s-131.905-66.45906-143.01279-70.62448c-11.10779-4.16542-51.37353-8.33084-62.48132-11.10779-11.10779-2.77695-74.97758-30.54642-77.75453-33.78619s-24.65116-27.82237,10.64497-49.98505c19.90146-12.49626,99.04446,20.36428,101.82141,20.82711s45.81963,15.73604,69.88651,8.79367c24.06688-6.94237,38.41444-45.81963,38.41444-45.81963" style="fill: #fff;"/>
      <path d="M516.86828,393.36312c-32.76873-15.91177-69.2279-33.95335-102.11997-50.1462-14.21583-6.72467-28.13946-14.40702-42.66356-20.34702-9.03393-2.65176-18.47908-3.92271-27.77309-5.48328-8.95955-1.60112-24.06703-3.40234-32.7617-5.44673-13.59312-4.26226-26.56502-10.25679-39.715-15.68804-12.29317-5.42033-24.7696-10.492-36.67963-16.79993-2.22488-1.09554-3.57729-3.32369-5.04392-5.24869-10.98024-15.4083-7.21541-31.14895,7.241-42.57128,2.58538-2.01936,5.03662-3.90364,7.99727-5.45182,9.08433-3.74241,19.29564-1.96822,28.63039-.61563,24.16982,4.30046,47.45008,12.84323,70.38286,21.3674,20.47825,6.28678,55.64474,16.92828,75.80371,8.19378,16.25303-7.86078,27.3685-27.46972,34.17163-43.58865.03625-.12124.23695-.05155.18771.06906-4.56905,11.79622-10.60395,23.17065-18.90417,32.80024-4.19005,4.76468-9.06505,9.10522-14.90099,11.90393-11.80505,5.30679-25.33819,3.84918-37.78366,2.1762-13.30875-2.03532-26.45723-5.61625-39.26908-9.64886-16.89975-6.30854-34.22588-12.47003-51.63038-17.13617-12.06571-3.11388-24.53698-6.18051-37.03366-5.74052-3.0757.16795-6.17189.63988-8.87697,1.87654-1.95125.97461-3.97945,2.43655-5.81058,3.75705-17.19407,12.17893-20.32372,29.29992-6.35571,45.62262.99354.9845,2.5436,1.68705,3.80936,2.40849,5.57177,2.92629,11.30858,5.59438,17.03857,8.2473,18.71785,8.3134,37.39972,17.11317,56.91291,23.36709,4.58494,1.02128,9.33432,1.73483,13.97674,2.41709,14.77617,2.21616,32.47971,3.95431,46.85058,7.74503,26.25379,11.00054,51.32806,24.7346,76.89917,37.20188,22.30915,11.47853,45.9677,22.92783,67.42017,34.75911h0Z" style="fill: #231f20;"/>
    </g>
    <path d="M239.00939,236.14586c-4.90434,4.08727-8.21462,10.14903-9.70571,16.30929-1.57211,6.65853-.02283,13.73005,3.92167,19.27302-.00014.00003.70787.96598.70787.96598,1.35318,2.02257,3.63739,2.9434,5.76754,3.97732,5.90195,2.59332,12.18647,4.32399,18.49563,5.62461,3.48002.57908,7.16657,1.53449,10.66944.91904,2.20062-1.59147,2.92017-4.62708,3.56065-7.16544,1.25487-6.2908,1.16368-12.88113,2.01722-19.2365.14283-1.60372.2859-3.20556.30494-4.79382-.00094-2.39557-.07875-4.70618-2.19492-6.10044-4.48898-3.3621-9.6659-5.72812-14.78501-7.98476-2.96487-1.17358-5.97113-2.57548-9.20266-2.66275-3.17464-.08497-6.55515-.30929-9.55666.87445h0ZM238.96496,236.05644c3.02632-1.2648,6.40181-1.027,9.61034-1.06269,3.27622-.0352,6.39163,1.26968,9.43705,2.32906,5.29338,2.06895,10.60741,4.3646,15.18217,7.80039,3.71062,2.60223,2.49848,7.91451,2.28624,11.79189-.94015,6.45527-.85406,12.93252-2.30611,19.3091-.76558,2.70796-1.57097,5.93795-4.11333,7.53166-3.66791.62705-7.34297-.51543-10.9362-1.11515-6.3307-1.39739-12.60937-3.05216-18.64502-5.45815-2.19453-.96241-4.72431-1.97441-6.15773-4.01996-4.72582-5.72217-6.65552-13.65858-4.62824-20.85523,1.7917-6.2057,5.27357-12.13107,10.27084-16.25092h0Z" style="fill: #6d6e71;"/>
    <path d="M262.98828,177.67043c.10633,28.50323-.58866,16.09902.02842,27.19548.11302,2.03233-12.66114,9.36779-24.0146,6.91828-2.67457-.57704.30466,17.3331-1.00036,20.43622l-7.50338,6.65768c.02704-16.8328-.66474-46.09476-.84048-61.12626-.02997-2.56339.58861,3.21235,16.90866,2.58622,12.72042-.48803,16.41942-3.29035,16.42174-2.66763Z" style="fill: #be1e2d;"/>
    <path d="M244.09262,196.00748c-3.23015.87915-10.18309-1.0083-13.59427-3.40283" style="fill: none; stroke: #d19c2a; stroke-linecap: round; stroke-linejoin: round; stroke-width: 2px;"/>
    <path d="M262.40463,177.59637s-5.22286-4.23301-15.43171-4.23478c-8.82062-.00153-17.3845,3.16283-17.3845,3.16283,0,0,5.6952,6.12807,16.59726,5.271,11.65342-.91613,16.21895-4.19905,16.21895-4.19905Z" style="fill: #89181a;"/>
    <path d="M244.43071,181.50194c-3.23015.87915-12.24087-1.27748-14.76669-3.64164" style="fill: none; stroke: #d19c2a; stroke-linecap: round; stroke-linejoin: round; stroke-width: 2px;"/>
    <path d="M262.80773,205.48409c-6.39062,5.59887-15.73664,10.11038-23.85062,6.69226-.60164,1.865-.59136,4.66697-.66357,6.88958-.05417,3.69618-.02829,7.40189.03762,11.10783-.32031-3.69315-.56348-7.39502-.62061-11.1088.10579-1.17923-.49124-8.35015,1.474-7.65753,8.32597,2.93422,16.72433-1.39667,23.62317-5.92334h0Z" style="fill: #ababab;"/>
    <path d="M309.33654,254.15132c-.89637,6.14983-2.61281,12.05512-4.16553,18.05014.18847-6.2054,1.9503-12.27898,4.16553-18.05014h0Z" style="fill: #6d6e71;"/>
    <path d="M313.27062,274.05275c-2.07084,8.7075-4.86222,17.84702-6.81496,26.57196-.10838.59882-.22899,1.19757-.35887,1.79791.58726-9.77774,3.64408-19.2892,7.17383-28.36987h0Z" style="fill: #6d6e71;"/>
    <path d="M320.21301,256.69686c3.3459,14.11529,5.11081,30.56654.00034,44.43116.43977-1.8237.94171-3.61272,1.19149-5.46871,2.04437-12.90514.61031-26.1037-1.19183-38.96245h0Z" style="fill: #6d6e71;"/>
    <rect x="119.15255" y="169.58253" width="66.64674" height="16.55556" style="fill: #2060ad;"/>
    <polygon points="225.91476 177.86031 185.79929 150.0835 185.79929 205.63711 225.91476 177.86031" style="fill: #2060ad;"/>
  </g>
</svg>
