<?xml version="1.0" encoding="UTF-8"?>
<svg xmlns="http://www.w3.org/2000/svg" viewBox="0 0 680.34743 448.37557">
  <rect width="680.34743" height="448.37557" style="fill: #fff;"/>
  <g id="Step_4_Drip_blood" data-name="Step 4 Drip blood">
    <path d="M278.88466,255.26196c13.15529,3.11032,24.45441,2.05895,25.36611-14.01426.21389-1.62625.27986-4.24935.37706-5.90741.30934-17.88667-1.53942-35.7718-3.48428-53.54483.02217-6.15674.1215-12.31512.27377-18.47192.35345,5.98922.66883,12.59156.88778,18.30338,2.76384,17.77827,4.76057,35.76065,4.192,53.78548-.13997,1.69058-.25,4.36017-.50408,6.02535-1.42391,16.73088-13.34507,18.37332-27.10837,13.8242h0Z" style="fill: #231f20;"/>
    <path d="M201.95741,134.08502c3.30067,10.53435,7.1087,20.96039,9.6604,31.70867.60523,2.83516,2.34234,10.91391,2.99491,13.87401,1.11396,4.55984,1.79664,9.31292,3.69612,13.61034,1.34955,4.63403,1.76799,9.36956,2.35619,14.12263,6.51916,16.24041,13.5888,34.50793,20.90416,51.14829,1.10306,2.4206,2.16978,4.87102,3.49757,7.1676.67029,1.08708,1.58971,1.73297,2.05168,2.84649,2.26943,4.69101,3.40678,10.35344,7.25651,13.96519,5.26251,5.5118,19.48642,1.61861,23.81929-3.6569,1.99966-2.20024,2.39028-5.0808,1.97392-7.92426-.2918-3.0052-.8587-6.00813-1.53253-8.98543-1.37328-6.0071-3.21883-11.9464-5.27737-17.75335-3.51674-18.63789-8.68283-48.78311-12.46867-67.08012-5.26284-17.57093-10.2124-38.7446-14.96554-57.2105-1.62603-5.74649-2.79049-11.93325-3.68038-17.82731,1.04326,5.8642,2.38022,11.98855,4.10205,17.71617,5.177,18.45409,10.38501,39.30692,15.86974,57.00774,4.16581,18.58015,9.3361,48.05521,12.96281,67.06292,1.86228,4.96719,3.99084,11.86522,5.33184,17.65447.69778,3.02983,1.29153,6.09447,1.60892,9.22533.5184,3.28486-.10331,6.89175-2.40254,9.40383-5.14063,6.16488-20.60873,10.07224-26.6443,3.74854-3.58463-3.45336-4.97094-8.08106-6.68608-12.47073-.56689-1.39399-1.12988-2.8014-2.06005-3.65278-.4209-.44409-.59766-.77124-.81982-1.13037-1.36804-2.37681-2.44945-4.8914-3.57229-7.3792-7.39611-17.04023-14.05439-34.37407-20.59967-51.74455-.5152-4.62118-.89158-9.40709-2.13116-13.87743-.66834-1.45805-1.15212-2.97135-1.50686-4.51789-1.87156-7.64334-3.27958-15.48688-4.7877-23.19755-1.79647-8.80522-6.50114-23.08592-8.95115-31.85387h0Z" style="fill: #231f20;"/>
    <g>
      <path d="M507.41724,261.45626c-2.2971.80858-44.87307,3.31709-58.26241.97346-13.38934-2.34363-60.11544-17.73719-63.96967-17.92952s-20.54587-.42692-23.3906-1.66306c-2.84473-1.23614-25.21726-3.42968-31.62954-3.06581-6.41228.36387-30.71804,5.39119-34.57226,5.19885-3.85423-.19234-39.05989-2.17146-42.65317-2.11142s-17.69686,1.06588-17.69686,1.06588c0,0-16.93604.50388-18.52289-2.27577-1.58685-2.77965-11.94405-23.40208,3.27989-34.18255,15.22393-10.78047,39.75634-17.60872,46.68623-17.7245,6.92989-.11579,22.61204,1.1626,24.40868,1.13258s56.42289-3.51006,66.09888-8.29295c9.67599-4.78288,17.91-19.04084,18.15379-19.81512s12.81899-31.7925,12.81899-31.7925" style="fill: #fff;"/>
      <path d="M507.45057,261.55059c-11.05095,1.59991-22.26115,1.89355-33.41306,2.31552-8.39548.12673-16.82235.41464-25.18509-.75511-18.66508-4.00654-38.02845-10.58989-56.42578-15.87114-2.37696-.60591-5.50945-1.7622-7.91505-1.9168-6.68142-.31302-14.38894-.32418-20.95276-1.31063-6.66952-1.86601-13.66206-2.44697-20.5907-3.13724-5.52201-.42635-11.07397-1.11573-16.58446-.26554-8.26992,1.15095-16.49706,2.76882-24.76417,4.01588-2.73567.43208-5.60024.81038-8.38478.52855-13.06678-.51719-28.77083-1.84532-41.74607-1.71886-9.53949.54926-19.7897,1.8037-29.32316.72012-1.95472-.31962-4.33811-.38518-5.88545-1.8919-.63045-.80768-.851-1.59831-1.32231-2.45347-5.73067-12.09318-6.60334-26.7911,6.45639-34.41863,11.85443-7.60964,25.22237-12.64118,38.90158-15.80691,8.28723-1.84631,16.92591-.34283,25.28525-.04366.85557.03108,4.43531.29948,5.17425.30244.56794.05918,2.42541-.14377,3.04799-.1466,13.81079-.9289,27.87838-2.02021,41.60296-3.63431,6.84611-.92271,13.80034-1.60818,20.36232-3.7122,3.78397-1.5256,6.91597-4.28011,9.76123-7.19173,3.59879-3.87067,6.95056-8.13226,9.42198-12.8207-.00013-.00009.20006-.48416.20006-.48416,0,0,12.90186-30.91724,12.90186-30.91724.04242-.11673.23754-.04247.18554.07516.00001-.00002-12.12304,31.14774-12.12304,31.14774,0,0-.19092.48572-.19092.48572-.06104.1554-.12354.32092-.22314.53766-3.95828,7.05451-8.94997,13.74919-15.59213,18.50232-2.31296,1.71734-5.14146,2.66281-7.91376,3.29131-5.49313,1.28742-11.03122,2.06599-16.57175,2.818-11.08179,1.43501-22.19786,2.50666-33.33642,3.34797-2.23136.14779-9.40759.72378-11.57224.75111-7.25236-.34851-14.70044-.98648-21.92238-1.096-5.48459-.16318-10.8257,1.47295-16.08694,2.89808-10.55326,3.17018-21.00437,7.28274-30.27931,13.26797-10.72438,6.13124-11.52778,17.60878-7.67948,28.40731.72105,2.03217,1.56528,4.12357,2.63647,5.98292,1.32456,1.05916,3.22213,1.14165,4.92825,1.44174,6.35193.86681,14.32337.5031,20.77722.10712.00016.00006,8.36003-.44452,8.36003-.44452,2.34988-.209,5.9808.13731,8.3868.21516,9.399.49393,26.1214,1.46359,35.49848,1.98111,11.80445-.85375,23.30535-4.26318,35.10936-5.33869,9.82318-.07416,19.55517.84555,29.28955,2.28643.97034.14613,2.0676.49884,3.06248.78302,1.66042.34497,3.36314.45209,5.07715.58892,4.88983.36513,11.73777.45809,16.68772.6492,1.35101.01705,2.97.4994,4.28161.81506,17.46511,4.80914,34.67619,10.66803,52.16397,15.32123,5.36781,1.48945,10.71815,2.58902,16.30762,2.76537,16.51636.80629,34.17555-.04627,50.1162-.97408h0Z" style="fill: #231f20;"/>
    </g>
    <path d="M376.08583,160.88207c-.73252-2.1081-.62734-4.44746-.85219-6.65836-.35241-6.71686-.32005-13.44343-.21273-20.16531.36118-8.94223.44944-17.97827,2.22346-26.7784-.97629,8.8928-.96386,17.86575-1.22512,26.8014-.18072,6.70704-.30202,13.41863-.29871,20.12794.07052,2.21395-.1573,4.51797.36528,6.67273h0Z" style="fill: #231f20;"/>
    <path d="M217.78456,218.38268c2.22314-1.21283,4.43457-2.29669,6.73291-3.29492,2.30604-.92717,4.71254-2.08152,7.2451-2.10225,4.9844-.05693,9.98635-.05089,14.95949.79311,1.23584.25916,2.48535.51025,3.65967,1.20667,3.02596,2.45807,3.93808,6.47045,5.22286,9.94311,1.03235,3.58543,2.22606,7.22202,2.13265,11.00647-.1202,1.26601-.19206,2.86258-1.58394,3.47815-4.89999,1.15296-9.76473,2.02045-14.66464,2.94349-1.10506.17732-2.62561.5624-3.76076.52825-5.49449.00113-11.06026.24244-16.48878-.71583-.83596-.33287-1.28155-1.30838-1.70898-1.95997-1.24021-2.22635-2.16306-4.56381-2.87693-6.98294-1.5879-4.89498-.06113-10.01987,1.13135-14.84332h0ZM217.86268,218.44512c-.67727,3.57935-1.43161,7.33914-1.25546,10.99987.64348,4.08565,2.25315,8.37383,4.76839,11.65143.38408.30003.98698.27178,1.4895.35565,3.68124.36164,7.42023.36241,11.12404.43307,1.84345-.02121,3.6641.14784,5.4961-.14087,5.48459-.96764,11.08191-1.81197,16.50976-2.85547,1.02247-.41042,1.20526-1.95896,1.31252-2.97985.29807-5.02238-3.20094-17.35958-7.30054-20.33341-3.2998-1.45281-7.21341-1.3641-10.79954-1.65268-2.47415-.1254-4.95609-.17758-7.43607-.17013-4.88146.30791-9.43296,2.90822-13.90869,4.69238h0Z" style="fill: #6d6e71;"/>
    <path d="M291.70399,215.83166c3.48107,5.20858,6.93931,10.59321,8.73165,16.65689.73321,3.78018-.2783,7.68886-1.72033,11.1458.30509-1.21516.58243-2.42994.76554-3.65889.70701-3.65054.48523-7.36067-1.23065-10.70284-1.99371-4.55475-4.36861-8.95575-6.54621-13.44095h0Z" style="fill: #6d6e71;"/>
    <path d="M280.48134,212.55322c2.83707,3.78324,5.0897,8.57657,4.65304,13.40076-.97161-4.70348-3.02516-8.9221-4.65304-13.40076h0Z" style="fill: #6d6e71;"/>
    <path d="M289.77186,226.96014c2.32105,3.4681,3.58943,8.08297,2.32144,12.16361-.15213-4.20774-1.27226-8.08804-2.32144-12.16361h0Z" style="fill: #6d6e71;"/>
    <path d="M280.74501,228.33801c.49241,3.75504.09552,7.7558,2.3973,10.93535-3.4425-2.1719-3.36281-7.42784-2.3973-10.93535h0Z" style="fill: #6d6e71;"/>
    <path d="M332.02723,59.28436c9.99706-.87408,20.1334-1.39944,29.94094-3.48214,5.69173-1.81264,11.13585-4.64081,16.7935-6.6931,7.64132-2.80834,15.47444-5.78837,23.81533-5.35859,8.30591.74895,15.9818,4.77626,21.86287,10.59447-.00005.00009-.22954-.15354-.22954-.15354,3.03474,1.2321,6.07562,2.22535,9.19242,3.212,5.22955,3.3819,9.96944,7.44892,14.90825,11.22232,15.76979,12.30899,31.48245,24.78155,47.72589,36.44441,23.1846,14.01605,45.29234,29.77622,68.11199,44.31891,1.38989.89967,4.53342,2.82136,5.98912,3.66264,6.40728,2.89828,12.44079,6.69212,18.89359,9.44719,8.58889,3.74526,17.7759,6.08261,27.1304,7.18399.12356.0069.10874.21384-.01809.19915-9.43191-.69207-18.80738-2.65614-27.59225-6.23003-6.10354-2.29127-11.59551-5.74008-17.54829-8.27225-1.01416-.39436-3.78779-1.99692-4.79781-2.58125-9.12685-5.44009-17.96978-11.35507-26.8336-17.1677-14.80224-9.64432-29.26968-19.89864-44.27049-29.20391-16.11095-11.96653-31.25377-25.10885-47.1881-37.29056-4.91995-3.66815-9.66254-7.67889-14.89922-10.86452-3.14173-.92775-6.46814-1.76778-9.4718-3.08292-5.67393-5.31832-13.31528-9.05857-21.09124-9.714-7.87891-.28504-15.7262,2.512-23.1153,5.15134-5.74046,2.01608-11.14875,4.79491-17.04874,6.45643-5.99701,1.22087-12.06818,1.56599-18.14362,1.94369-4.03614.21648-8.0669.40758-12.1128.45799-.12526.00733-.13187-.20237-.00342-.20001h0Z" style="fill: #231f20;"/>
    <path d="M304.57167,6.15154c6.2417,9.2962,12.42139,18.63147,18.40381,28.10382,2.16775,3.62428,4.74101,7.0945,6.37368,11.01524,2.26585,6.67518,2.12462,13.93408,3.62829,20.71553.63276,2.68142,2.32078,4.8693,3.6171,7.26878,4.2472,7.27878,8.36636,14.62549,11.69442,22.40248,1.90246,4.55865,3.74827,9.37786,3.77885,14.40313.11294,7.73181-2.51126,16.14585-8.80907,21.02747-5.46782,4.29004-11.06632,8.6388-16.20566,13.30053-2.00826,1.88556-4.1093,3.7607-5.58985,6.10021-2.7245,4.90989-4.62545,10.18433-7.55849,15.02155-.35822.61763-1.06928,1.22329-1.77796,1.40784-2.67085.80907-8.52479,2.03401-10.52489-.42015-3.07758-6.39252-4.98001-13.16074-7.06117-19.90909-1.54816-5.39577-2.9256-10.85237-3.84454-16.4214-.44313-2.7438-.83642-5.66136-.8994-8.45172-.17656-2.72579.37352-5.6351.25632-8.37408-.01638-5.14338-2.51908-10.94058-6.89027-13.33151-11.67027-4.53501-23.17417-9.42429-34.46519-14.82169-12.68235-6.11223-25.339-12.50654-36.794-20.7615-3.83302-2.65564-7.36223-5.97545-10.94621-8.85561-9.71199-7.72462-20.55419-14.0628-32.04787-18.76729-2.87647-1.18114-5.80909-2.22796-8.79346-3.1007-2.95385-.74793-6.07402-1.76344-9.1216-1.24607-.05607.01857-.11863-.01365-.13133-.07223-.01172-.05261.02051-.10504.07226-.11865,3.12255-.64536,6.27724.2915,9.31299.94657,9.10835,2.364,17.76432,6.21267,25.99171,10.74829,5.48046,3.04592,10.76562,6.46889,15.71923,10.34017,3.7094,2.896,7.13021,6.04934,10.99999,8.65161,21.89891,14.77609,46.52862,25.22642,70.8978,35.24965,5.38825,2.89103,7.93345,9.24828,8.0011,15.08555.10211,2.76707-.49986,5.61534-.36521,8.39014.24645,8.33315,2.22066,16.5021,4.28312,24.56734,1.44395,5.38878,3.07872,10.73821,4.97276,15.98125.49072,1.27472.97803,2.6684,1.57666,3.76788.28076.47253.87061.71002,1.49756.87585,2.84139.51509,6.29056.22058,8.89263-1.04929,1.94415-2.33088,3.02855-5.3763,4.4527-8.10603,1.21912-2.52052,2.39685-5.05842,3.7699-7.52382,1.55469-2.44379,3.62939-4.35925,5.66064-6.29498,3.61722-3.27635,8.96098-7.78362,12.82734-10.86979,1.79952-1.56479,4.72932-3.61013,6.10477-5.56477,4.93627-6.52813,6.30689-15.56217,4.09731-23.38005-3.31296-10.62733-9.11452-20.28301-14.53422-29.96361-1.33193-2.49912-3.1247-4.93042-3.73204-7.74793-1.45936-6.87579-1.27009-13.92568-3.39302-20.60897-3.55792-8.03118-19.00206-31.5606-23.56558-39.50206-.07113-.09994.10306-.21763.16811-.10785h0Z" style="fill: #231f20;"/>
    <path d="M64.27235,48.00713c3.67148,4.32972,8.55396,9.96837,12.08589,14.26262,4.08627,5.23618,7.55602,10.87767,11.79392,15.84083.94747.89246,1.53504,2.16053,1.86968,3.3345.78733,2.40415.82286,4.9385,1.78313,7.19237,1.31128,1.76653,1.81661,4.01022,2.56706,6.00369,3.405,10.07637,6.37716,21.06851,9.90271,31.1166.5314,1.45737,1.07253,2.81232,1.96447,4.08432,1.59418,2.73959,2.96186,5.49954,4.5561,8.16501,3.11573,5.13289,6.80075,10.7368,12.57706,13.01079,8.26056,2.24389,19.11141-2.27666,26.57336-5.83655.20554-.10246.45212-.03984.59079.13142,4.21875,5.21045,8.55566,10.36829,13.20508,15.15363,1.58075,1.51857,3.06318,3.23914,4.99554,4.20286.06159.02401.13727.05575.13727.0386.02441-.00562-.00391.02734.14209.00592,4.13444-.36402,8.38686-.76299,12.4658-1.40909,3.35736-.67338,7.38797-.98995,10.05972-3.13343,5.19895-7.77053,8.7096-17.04566,9.39174-26.39091.27716-8.45765.84946-17.12959-.32272-25.49175-.24398-1.55658-.21929-3.083-.26547-4.62193-.11916-16.81742.04807-33.8635.84152-50.54921.46252,7.75474.51805,43.39703.93805,50.49431.06312,1.38532.09299,2.83759.28101,4.17977,1.48491,8.63516.81731,17.40805.59941,26.09306-.46661,8.60228-3.56377,16.8345-7.79368,24.25303-.70244,1.14635-1.31185,2.22432-2.18171,3.29819-1.67181,1.72803-4.14992,2.1874-6.23725,2.75539-4.97771,1.12629-10.06575,1.58892-15.12553,1.96924-.38134.02637-2.66327.22469-2.99756.15843-.45381-.04016-.82519-.28217-1.17039-.46546-1.85381-1.19244-3.34555-2.82258-4.83257-4.35567-4.59031-4.98843-8.7573-10.2695-12.88035-15.60037,0,0,.59033.13159.59033.13159-7.10123,3.20103-14.63165,6.07895-22.50631,6.22368-4.88985.31331-9.26247-2.61958-12.31246-6.17847-4.47808-4.93758-7.43891-11.02175-11.00728-16.54468-2.71459-5.24233-4.28808-10.9846-6.18097-16.54868-1.0405-3.13521-5.98884-19.35089-7.17551-22.12088-.07088-.17528-.14315-.33458-.21639-.47154-.03369-.06946-.08105-.16681-.08447-.15771-1.75755-2.37495-1.46406-5.68513-2.37516-8.33118-.25877-.87056-.54923-1.67594-1.1004-2.31372-.374-.43714-.82842-.89753-1.17087-1.34179-3.85698-5.00269-7.0479-10.34772-10.70122-15.34455-3.80957-4.90076-7.65479-9.8158-11.42871-14.76611-.08071-.09535.07763-.22434.15527-.12616h0Z" style="fill: #231f20;"/>
    <path d="M165.8661,34.04821c-2.29404,2.52336-4.48425,5.46625-4.98396,8.88552-.11663,1.05467-.0097,2.30632-.12884,3.47453-.40479,4.68884-1.15674,9.2926-1.89014,13.90192-.55485,3.87337-1.80186,9.83306-2.02113,13.64787.3481,11.04784,1.21596,24.08109.54618,35.05344-1.78761,11.57884-4.57453,22.90133-7.26513,34.28352,1.71525-11.49561,3.98246-22.96487,5.52151-34.45569.3688-10.7831-.47026-23.94281-.68995-34.8431.00482-1.17711.26251-2.46826.43977-3.63178.37292-2.21773,1.49766-8.05097,1.93801-10.32648.86424-4.57422,1.82323-9.14563,2.45067-13.72534.19336-1.14502.14844-2.2431.35693-3.49548.73691-3.51802,3.14656-6.42928,5.72607-8.76892h0Z" style="fill: #231f20;"/>
    <path d="M109.72938,122.7893c1.48411-9.28245,4.8385-18.58067,5.4462-28.00893.98348-9.49839,2.1036-18.99198,3.62899-28.44792.82422-4.72296,1.62842-9.43945,3.06299-14.11963.52689-2.30503,2.3405-4.41015,3.81612-6.31916,2.95069-3.97167,6.12588-9.57598,11.77322-9.68893,1.66847-.04206,4.52989-.17165,6.22176-.31436,4.01856-.04004,11.14931-1.1498,13.48295,2.92426-2.55229-3.73357-9.49294-2.23936-13.39652-1.94774-1.74304.18896-4.55798.5414-6.27204.60757-2.51985.13925-4.60688,1.70023-6.25098,3.69414-2.22087,2.6577-4.05801,5.92714-6.31059,8.64711-.51315.73147-.92379,1.88919-1.25875,2.96963-1.31348,4.46918-2.11523,9.19257-2.896,13.8725-1.74559,10.54991-3.06052,21.24058-4.54835,31.8584-1.25872,8.28252-4.53676,16.15291-6.49902,24.27307h0Z" style="fill: #231f20;"/>
    <path d="M134.07069,46.9027c-.59176,7.60321-1.25571,15.2398-1.25445,22.86163.05777,1.60637.00116,3.28725.49951,4.8166.05683.18395.24794.35647.3433.50832,1.13625,1.54898,2.22854,3.08316,3.64602,4.27536,2.66298,2.32393,7.02089,3.40896,9.88865.87015,1.30338-1.08999,2.67292-2.69481,3.108-4.30815.35833-1.84843.6679-3.74736.98333-5.62559.62256-3.76727,1.21924-7.54016,1.77979-11.31683l.80713-5.6676c.23926-1.87183.5542-3.81921.5835-5.62329.03809-.30823-.3042-.55774-.68604-.7934-2.82886-1.45863-6.69077-1.9012-9.48582-2.47094-.00002.00006-10.21291,2.47375-10.21291,2.47375h0ZM134.07069,46.9027l10.1084-2.87207c2.88664.31941,5.77473.8094,8.55324,1.70489.82209.31947,1.80777.61243,2.30129,1.43081.35009,2.10896-.22045,4.20639-.34802,6.25389-.6973,5.69612-1.57019,11.36539-2.45375,17.03431-.30471,1.89209-.59328,3.76812-.95119,5.6734-.96265,2.91538-3.2726,5.30531-6.16391,6.28323-2.93556.73061-6.1679-.4398-8.38492-2.37758-1.605-1.37487-2.76885-3.09573-3.95165-4.73469-.25451-.34632-.35072-.77966-.4336-1.16998-.76767-9.08742.74956-18.22399,1.72412-27.2262h0Z" style="fill: #6d6e71;"/>
    <path d="M197.89686,52.38305c-1.00146,5.99609-2.06348,11.9906-3.16699,17.97852-.1377.78455-.56787,1.54529-1.02637,2.17053-3.1584,3.78318-9.29422,7.88392-14.36611,6.01943-4.1959-1.52408-9.00467-4.84037-9.52372-9.61046-.37301-7.66296,1.17891-15.24309,2.47707-22.73258.01773-.10615.09498-.19006.19206-.21929,2.20459-.67413,4.43115-1.24317,6.6831-1.71686,2.24408-.44343,4.54052-.91674,6.8374-.74052-4.5808.08608-9.00311,1.67717-13.34524,2.99777.00003.00014.19192-.21898.19192-.21898-.95117,5.9757-1.79991,12.01174-2.14849,18.04839-.03705,2.17672-.29034,4.50579.56878,6.51425,2.20217,4.00723,7.86069,8.07789,12.58595,7.06875,2.83918-.7468,5.5013-2.36209,7.72669-4.27094,1.08347-.9871,2.18357-2.08586,2.48777-3.47288,1.22754-5.9433,2.49609-11.88007,3.82617-17.81512h0Z" style="fill: #6d6e71;"/>
    <path d="M133.73817,113.41619c4.69704.5205,9.43936.45292,14.14844-.23619-3.24001,1.70582-7.12147,1.7634-10.67674,1.27949-1.18165-.22218-2.44803-.3785-3.47169-1.0433h0Z" style="fill: #6d6e71;"/>
    <path d="M170.8246,105.89709c4.72167.8531,9.21109,2.54021,14.02537,2.54379-2.30537.8826-4.89172.47308-7.24119.00468-2.35948-.56132-4.6769-1.32633-6.78418-2.54847h0Z" style="fill: #6d6e71;"/>
    <path d="M181.58925,113.54449c3.87825-.85655,7.76481-.86961,11.51662-2.16081-3.11649,2.56294-7.68155,2.70573-11.51662,2.16081h0Z" style="fill: #6d6e71;"/>
    <path d="M224.87098,176.32012c6.99696-5.36009,16.13385-7.27172,24.7714-7.85942-8.33258,1.9283-17.21482,3.74525-24.7714,7.85942h0Z" style="fill: #6d6e71;"/>
    <path d="M226.57362,186.04754c9.40868.72687,21.88584-.1027,25.9624-10.18973-.31592,1.22916-.79102,2.42924-1.43799,3.5488-5.06748,7.97337-16.15982,8.50527-24.52441,6.64093h0Z" style="fill: #6d6e71;"/>
    <path d="M266.01747,165.1065c7.46142.49891,15.55455.56699,22.24077-3.19227.99166-.47393,1.79097-1.21233,2.70504-1.84576-.75391.79401-1.51172,1.62775-2.43652,2.25555-6.43717,4.5154-15.11161,4.56933-22.50928,2.78247h0Z" style="fill: #6d6e71;"/>
    <path d="M265.85487,155.35333c6.14417-5.32028,14.50493-8.02773,22.58979-7.82287-7.94991,1.20149-15.67581,3.67471-22.58979,7.82287h0Z" style="fill: #6d6e71;"/>
    <path d="M295.52333,117.88787c3.77609,6.68934,10.25708,11.66636,17.92832,12.7937-7.946.33932-15.42706-5.35768-17.92832-12.7937h0Z" style="fill: #6d6e71;"/>
    <path d="M309.81141,189.53472c-.29281-1.29162-.68768-2.66571-.32722-3.98944.03583-.18446.26594-.43578.39849-.57304.00002-.00003.45998-.4902.45998-.4902,2.28195-2.41159,8.7565-8.99623,11.18167-11.45642,4.65245-4.76679,17.13635-17.15027,21.47317-21.8575.71018-.76891,1.36909-1.30914,2.40134-1.62086,3.14042-.38282,6.24551.32886,9.39059-.08947,6.96122-.64969,13.9379-3.06048,20.501-5.43213-6.55439,2.80699-13.28994,5.34067-20.42433,6.19776-3.05318.50296-6.21768-.13978-9.24122.19329-1.17534.31669-2.0388,1.4963-2.83201,2.3574-6.66445,7.0972-13.78437,13.99313-20.72946,20.79513-.00004-.00004-7.67582,7.41304-7.67582,7.41304,0,0-3.85742,3.68512-3.85742,3.68512l-.47314.46338c-.16504.15778-.31641.29852-.37988.49133-.38255,1.24714-.08295,2.64264.13428,3.9126h0Z" style="fill: #6d6e71;"/>
    <path d="M312.33778,186.92523c6.22764-3.42304,13.9837-6.78091,19.69647-10.90327,2.22457-1.78252,8.37347-6.57711,10.7054-8.39311,7.21322-5.43897,14.68664-11.05121,23.23248-14.31829,2.79827-1.16243,5.56634-2.38637,8.38861-3.49281-2.62842,1.51642-5.31104,2.91528-7.96338,4.37592-5.37363,2.61133-10.49374,5.95157-15.21915,9.58127-5.62056,4.13128-12.44633,9.50116-18.09776,13.64682-6.34637,4.22854-13.70175,6.75703-20.74267,9.50349h0Z" style="fill: #231f20;"/>
    <path d="M262.70357,297.12329s-6.88329,9.70735-6.04809,14.47817c.85147,4.86372,11.88796,4.67933,11.01934-1.21105-.86862-5.89038-4.97125-13.26712-4.97125-13.26712Z" style="fill: #be1e2d; stroke: #231f20; stroke-linecap: round; stroke-linejoin: round; stroke-width: 2px;"/>
    <path d="M248.72842,351.91282c.00858.51333-.10434,62.90164-.0979,63.28663s4.86833,7.10722,11.66346,6.60858c6.79513-.49864,11.33572-5.32408,11.69927-6.61383s2.96193-60.89551,2.96193-60.89551" style="fill: none; stroke: #231f20; stroke-linecap: round; stroke-linejoin: round; stroke-width: 2px;"/>
    <path d="M251.24262,325.68391l-.81438,12.72195s-3.93324,2.76143-3.88822,5.45638l.0729,4.36326s5.29407,9.53908,15.43009,9.24136,15.54921-6.67815,15.67111-7.06529-.09434-5.64658-.09434-5.64658l-2.91334-5.34274-.13508-8.08487s-3.5357-4.17704-11.52226-5.84074c-4.20501-.87596-5.72499-1.9747-6.22164-2.8188-.42245-.71799-1.31129-.9925-2.06245-.63231-1.26658.60733-2.79842,1.71108-3.52239,3.64837Z" style="fill: none; stroke: #231f20; stroke-linecap: round; stroke-linejoin: round; stroke-width: 2px;"/>
    <path d="M252.27772,326.18011c1.14453,1.81786,2.73308,3.514,4.76757,4.23622,1.0371.24481,2.29588.74923,3.09422,1.56547,1.25027,1.0098,1.79676,2.86322,3.01505,3.65765,3.74876,1.05317,7.49018-.80837,10.01568-3.64695-.6059.93651-1.33783,1.7971-2.17719,2.56602-2.19032,1.9142-5.28696,2.79357-8.14503,2.00846-1.72911-.84402-2.04458-2.78991-3.36241-3.90355-.77083-.82238-1.63524-1.13341-2.71767-1.53346-2.17528-.9683-3.67186-2.8906-4.49022-4.94987h0Z" style="fill: #6d6e71;"/>
    <path d="M248.61073,344.85461c5.59241,7.37904,14.93772,9.5857,23.09771,5.11709,1.10786-.5646,2.15815-1.24533,3.14057-2.02542-7.80549,7.71146-20.56246,6.4595-26.23828-3.09167h0Z" style="fill: #6d6e71;"/>
    <path d="M251.75428,340.95104c4.97379,6.04965,11.63981,7.46247,18.49227,3.57786.8549-.50724,1.65909-1.11997,2.33195-1.87192-2.39662,3.38924-6.82603,4.81053-10.85691,4.77786-4.21057-.14715-7.81478-3.06807-9.96731-6.48379h0Z" style="fill: #6d6e71;"/>
    <path d="M249.78496,415.14807l-.2171-12.99354s3.41027-3.33034,10.53266-3.44934,11.50664,2.98483,11.50664,2.98483l-.84003,13.10748s-4.84145,6.60462-10.67852,6.24377c-5.83707-.36085-10.30365-5.89319-10.30365-5.89319Z" style="fill: #be1e2d;"/>
    <path d="M261.56874,275.83331c1.15055-.78026,1.94223-.20379,1.53073,1.12974-1.15338.78658-1.93773.19984-1.53073-1.12974h0Z" style="fill: #89181a;"/>
    <path d="M366.90565,118.49236c-3.4301.80717-11.5788,1.55835-13.89023-1.56483.91889.7731,2.13484.8487,3.27254,1.01164,3.53497.36035,7.04005.23746,10.61769.55319h0Z" style="fill: #6d6e71;"/>
    <path d="M271.60776,401.91707s-3.71756-4.83395-10.61759-4.98117c-5.96174-.1272-11.60968,3.30902-11.60968,3.30902,0,0,4.12077,6.97149,11.45127,6.16289,7.83571-.86433,10.776-4.49074,10.776-4.49074Z" style="fill: #89181a;"/>
    <path d="M263.72313,364.36722c2.21031.49271,7.33164.38544,9.5889-1.19367" style="fill: none; stroke: #d19c2a; stroke-linecap: round; stroke-linejoin: round; stroke-width: 2px;"/>
    <g>
      <path d="M250.04095,382.59107s6.24528,3.15451,11.1511,3.00243c1.3455-.04171,2.57265-.19703,3.66272-.41024,1.28146-.25064.06276,26.16133-.25998,31.35405-.05486.88274-3.76078,1.77556-7.45153,1.08725-3.69075-.6883-7.39207-4.49771-7.39207-4.49771" style="fill: #fff;"/>
      <path d="M250.04091,382.59106c4.72773,1.66099,9.63872,3.19686,14.64258,2.19573.34127-.08758.64122.12443.73583.41587.85214,5.38794.18569,10.82743.14727,16.25069-.11138,2.59966-.404,9.36941-.56231,11.88697.00002,0-.12352,1.97986-.12352,1.97986l-.06641.99011-.01904.2522c-.01465.13513-.0752.24353-.14014.32825-1.19571,1.0392-2.93834,1.01934-4.39254,1.1207-4.10439.25802-7.75147-2.039-10.51123-4.88474,1.90534,1.78877,4.09954,3.41376,6.61224,4.19559,2.44953.59291,5.34771.64028,7.65189-.41238.29495-.1727.40736-.29644.38912-.62429.08634-1.75836.21338-5.13131.28372-6.92931.14486-4.67805.37806-11.23314.36911-15.84387-.06073-2.61908.12449-5.45214-.40073-7.98268.00281-.06651-.0968-.02074.17224.0702-4.57929,1.3171-10.54837-.27625-14.78809-3.00891h0Z" style="fill: #ababab;"/>
    </g>
    <path d="M263.48154,374.41696c2.21031.49271,6.98268.34186,9.23994-1.23725" style="fill: none; stroke: #d19c2a; stroke-linecap: round; stroke-linejoin: round; stroke-width: 2px;"/>
  </g>
</svg>
