<?xml version="1.0" encoding="UTF-8"?>
<svg xmlns="http://www.w3.org/2000/svg" viewBox="0 0 680.34743 448.37557">
  <rect width="680.34743" height="448.37557" style="fill: #fff;"/>
  <g id="Step_7_Package_tube" data-name="Step 7 Package tube">
    <polygon points="63.16689 41.77268 55.77177 80.09283 180.81645 224.63372 198.29582 230.68427 484.68847 204.46522 494.77272 169.5065 321.99593 72.02543 76.07826 43.2818 63.16689 41.77268" style="fill: #c49a6c; stroke: #231f20; stroke-linecap: round; stroke-linejoin: round; stroke-width: 2px;"/>
    <path d="M76.11385,43.24645c37.70992,36.50811,74.32836,74.67301,111.96269,111.30643-.00028.0003,15.96163,15.93397,15.96163,15.93397.20881.20696.19974.55106-.01953.74702l-6.73096,6.04166.14014-.21271c-2.70362,7.79743-9.73207,28.15293-12.36134,35.71108-.06516.02545-4.13199,11.96933-4.26643,11.90621-.12402.03517,3.85461-12.04085,3.83329-12.05253,2.46758-7.50824,9.27075-28.09812,11.84136-35.887.02734-.08309.07959-.15809.14014-.21302l6.71484-6.05917-.01953.74675c-20.75031-20.61287-42.92204-43.45085-63.5556-64.02711-21.30836-21.0731-43.26468-42.3619-63.64069-63.94158h0Z" style="fill: #603913;"/>
    <path d="M63.2369,41.70152c17.17323,15.38314,33.34628,31.77285,49.31818,48.37103,27.51868,26.7575,55.71108,52.82639,81.77725,81.04376.0863.08436-.05221.22949-.14038.14203-28.55198-25.69995-54.98121-53.55358-82.09197-80.72477-16.51994-15.74884-34.22448-32.01328-48.86309-48.83206h0Z" style="fill: #603913;"/>
    <g>
      <polyline points="109.18094 47.15095 194.26212 129.1695 416.11558 133.95776 314.11478 71.10425" style="fill: #fff;"/>
      <path d="M109.18074,47.15095c20.57164,19.72002,66.56135,62.62736,85.09848,81.23744,61.95828,1.11016,159.20612,3.22608,221.8536,4.77735-.00041-.00017-.43303,1.46655-.43303,1.46655-25.41209-15.73974-76.29979-47.61414-101.58512-63.52818,26.82485,16.19428,78.20092,47.33521,104.91745,63.70379.0002-.00006-2.93389-.05795-2.93389-.05795-62.95457-1.19573-159.64019-3.19617-221.85306-4.79987.00004.00019-.30807-.00718-.30807-.00718l-.21729-.21123c-21.08609-20.49618-63.587-61.93779-84.53906-82.58073h0Z" style="fill: #231f20;"/>
    </g>
    <path d="M213.75447,176.1294c29.53052-2.07624,60.25883-3.30105,89.88475-3.7772,57.21056-2.08327,114.35916-6.03679,171.63333-6.30654.12418-.00733.13205.19636.00777.19936-57.12505,4.14096-114.40814,4.60009-171.60938,6.92803-18.1563,1.09963-38.99273,2.10397-57.19337,2.56227-10.90134.29373-21.80466.53938-32.7153.59395-.12326.00616-.13191-.19626-.00781-.19986h0Z" style="fill: #603913;"/>
    <g>
      <path d="M308.10157,143.83254c-5.29956-5.71673-3.2576-10.39406,4.53767-10.39406h60.39493c7.79528,0,19.17955,3.95158,25.29839,8.7813l13.38069,10.56163c6.11884,4.82971,12.30055,15.05001,13.73713,22.71177l6.87717,36.67825c1.43658,7.66176-3.73764,14.53111-11.49828,15.26522l-71.27744,6.74246c-7.76063.73411-17.99079-3.72683-22.73368-9.91321,0,0-6.83908-8.92053-5.49451-16.98793s6.72283-33.61416,4.0337-40.67314-17.25577-22.77229-17.25577-22.77229Z" style="fill: #9cbfe3;"/>
      <path d="M308.10157,143.83254c-5.29956-5.71673-3.2576-10.39406,4.53767-10.39406h60.39493c7.79528,0,19.17955,3.95158,25.29839,8.7813l13.38069,10.56163c6.11884,4.82971,12.30055,15.05001,13.73713,22.71177l6.87717,36.67825c1.43658,7.66176-3.73764,14.53111-11.49828,15.26522l-71.27744,6.74246c-7.76063.73411-17.99079-3.72683-22.73368-9.91321,0,0-6.83908-8.92053-5.49451-16.98793s6.72283-33.61416,4.0337-40.67314-17.25577-22.77229-17.25577-22.77229Z" style="fill: none; stroke: #231f20; stroke-miterlimit: 10; stroke-width: 2px;"/>
    </g>
    <g>
      <path d="M592.25379,193.93279c-1.79276,0-72.42831-4.07758-102.18705-22.74558-12.66616-7.94563-22.85763-5.04212-28.68408-7.28307-5.82645-2.24094-16.1348-2.13039-18.82393-2.63385s-19.72031,7.11574-30.02865,4.8748c-10.30834-2.24094-36.80301-7.51537-33.83554-24.87458,2.24094-13.10915,28.94073,3.55917,54.90042-15.9106,7.17102-5.37827,24.2022,4.0337,46.61164,3.58551,22.40944-.44819,96.80879-.44819,108.90988,1.34457s54.23085,11.20472,65.88376,10.75653" style="fill: #fff;"/>
      <path d="M592.25399,194.03279c-10.73059-.39919-21.41415-1.40434-32.06739-2.71044-21.26484-2.82664-42.72397-6.43379-62.52739-15.11203-.93581-.41677-2.75641-1.28875-3.65474-1.7753-3.56049-1.78807-6.82974-4.24413-10.54348-5.63971-4.90829-2.03807-10.15529-2.66422-15.45262-2.98221-2.66947-.13881-5.51249-.53167-8.02975-1.5746-5.63624-1.73046-11.69707-1.62764-17.54397-2.36287-1.91812.03096-3.94178.8306-5.83886,1.30197-5.1499,1.46455-10.36133,2.93835-15.7456,3.53561-5.39608.84242-10.76606-.65476-15.97851-1.96512-9.56415-2.66734-22.72476-6.52179-26.20088-16.94224-2.80049-12.54061,5.00588-12.86962,14.97529-12.65048,7.96051.14657,16.07413-.05965,23.71922-2.38681,5.07471-1.49781,9.88038-3.84301,14.19141-6.8935,4.33984-4.07233,10.61966-3.13295,15.91513-2.19375,10.50376,2.00578,20.91129,4.47086,31.62492,4.28543,5.3369-.11028,10.72069-.19172,16.07616-.24413,21.44817-.15144,42.89342-.0897,64.33936.34252,10.72291.42629,21.58003.16436,32.20364,1.85254,15.83827,2.94824,31.48833,6.50046,47.35301,9.2038,5.27384.83731,10.57852,1.80626,15.92723,1.82519.12764-.0098.13563.19745.00779.19977-10.73901-.0452-21.34996-2.26455-31.91797-3.96427-13.20583-2.06292-26.2249-5.51573-39.53653-6.55845-27.95077-1.16864-60.17925-.79782-88.36133-.81505-10.73595-.02055-21.62786.73027-32.23931-1.27819-5.3257-.86967-10.56984-2.10584-15.79201-3.11651-3.80638-.6413-7.79654-1.50721-11.48244-.28421-1.22947.43091-2.1648,1.31287-3.23973,2.01178-4.48242,3.0805-9.47266,5.42942-14.70215,6.89415-7.84491,2.2657-16.03356,2.36793-24.10352,2.09892-6.2442-.00645-15.15238-1.28926-14.7991,7.608.16356,12.85079,15.93025,17.60829,26.21249,20.33273,5.15791,1.23106,10.35459,2.72563,15.71161,1.81574,5.27588-.68149,10.40674-2.22904,15.52686-3.7866,2.11301-.54575,4.11044-1.48027,6.36766-1.44239,3.21813.38129,6.46839.37914,9.72756.7191,2.68897.26083,5.38819.61395,8.05567,1.38198,1.12717.34255,2.59121.91911,3.76474,1.02216,6.65787.69306,13.61398.69392,19.91296,3.38737,5.05121,1.96779,9.32639,5.32933,14.28427,7.44371,19.50296,8.68411,40.9109,12.44274,61.9325,15.66754,10.59821,1.49861,21.25056,2.77345,31.9278,3.54884.12803-.00865.13328.20929,0,.20001h0Z" style="fill: #231f20;"/>
    </g>
    <path d="M382.99959,138.02146c1.78613,2.69302,3.65918,5.43465,5.75537,7.9061,1.53724,1.67801,3.16297,3.81982,5.50676,4.11505,4.04477.17367,8.15241-.19054,12.15291-.92445,2.3361-.50238,4.88206-.96056,6.81744-2.40017,2.03279-2.10395,1.9881-6.37599.68816-8.83731-.43375-.68192-1.14424-.58312-1.85522-.70837-3.22362-.34009-6.51269-.42777-9.77782-.55522-4.90204-.09949-9.82035-.23119-14.70801.18021-1.512.21729-3.39666.19289-4.57959,1.22416h0ZM382.89949,138.02027c3.39615-3.50091,23.94411-2.48351,29.28752-1.78084.89329.1063,1.99851.26031,2.47025,1.1571,1.43898,2.80526,1.21705,7.41846-1.14475,9.64787-2.08642,1.43448-4.6311,1.81373-7.02851,2.41301-3.22562.65709-6.47025,1.25008-9.78275,1.45586-1.6829.07171-3.59036.20949-4.98826-.94181-3.97196-3.13126-6.47805-7.55093-8.8135-11.95118h0Z" style="fill: #808285;"/>
    <path d="M440.54187,126.25627s4.0337,2.99601,4.25779,9.7895" style="fill: none; stroke: #808285; stroke-linecap: round; stroke-linejoin: round;"/>
    <path d="M448.60927,127.82494s6.05055,5.15417,2.91323,11.42881" style="fill: none; stroke: #808285; stroke-linecap: round; stroke-linejoin: round;"/>
    <path d="M436.28408,129.61769s3.58551,9.41197,6.38669,10.98063" style="fill: none; stroke: #808285; stroke-linecap: round; stroke-linejoin: round;"/>
    <path d="M669.53865,256.99947c-7.72679-3.59854-16.39768-3.11117-24.45317-.89601-5.18668,1.24123-18.98229,4.88333-24.41962,6.26013-16.29517,4.20399-32.74827,7.80003-49.29323,10.88184-2.08439.38291-6.21396,1.08747-8.30719,1.38087-5.53078,1.0655-11.18511.88388-16.76753,1.24481-4.14894.41663-8.17721,1.46781-11.85349,3.43203-2.51171,1.30115-5.17646,2.94934-8.17727,2.79254-1.51219-.04801-2.93797-.43241-4.29686-.7761-5.48047-1.45258-10.77881-3.28006-16.08643-5.12378-10.59521-3.72263-21.11865-7.59778-31.52539-11.84421-1.87566-.8121-4.30047-1.57779-5.83048-2.98836-.00008.00005-1.65194-1.30314-1.65194-1.30314-2.8102-2.015-5.46976-4.62134-8.82071-5.24814-4.85688-.24806-9.51396-1.75167-14.09338-3.27206-2.71742-.81649-5.40296-2.46679-7.31869-4.53192-4.03566-3.95921-7.73049-8.21782-10.97965-12.83725-1.39674-2.028-2.77599-4.1213-3.60594-6.45583l-.21532-1.05527c-.01074-.05344.02344-.10559.07715-.11652.06473-.01385.11454.03789.12207.09842l.25684.99316.42432.94684c2.28423,4.31625,5.6534,7.95706,8.89397,11.57323,3.818,3.87474,7.41522,8.45069,12.8594,9.90806,4.59137,1.44459,9.37069,2.78905,14.19729,2.92533,3.69297.77679,6.5956,3.38912,9.44979,5.47807.92003.70101,2.30526,1.90421,3.24836,2.39556.91419.4238,2.74967,1.17133,3.76337,1.5789,15.62319,6.05498,31.23185,12.3894,47.24498,17.34612,2.61947.80281,5.177,1.25839,7.753.16249,2.48047-1.02609,4.99853-2.5109,7.729-3.35654,5.40415-1.88537,11.20789-1.63533,16.79006-1.7453,10.99842-.60352,22.26341-3.41762,32.99172-5.93935,10.54211-2.62644,22.07505-5.64431,32.59314-8.24707,5.27158-1.28471,19.28409-4.78733,24.55848-5.84579,8.18896-2.002,17.24073-2.19125,24.79849,1.99221.05857.01675.09548.08002.06939.13744-.0205.0484-.07519.07178-.12451.05456h0Z" style="fill: #231f20;"/>
    <path d="M438.58504,215.5901c4.58312,2.56781,9.09985,5.82215,13.54587,8.60637,5.52675,2.52849,11.13956,4.7807,16.87407,6.8305,1.60617.64871,3.37946,1.23237,4.80565,2.38936.1982.13085.30308.21618.49999.33652,6.06877,2.37923,13.62104-.14915,19.23968,3.97355,2.46003,1.59012,4.8282,3.52863,6.23591,6.12396.05656.10082-.09238.20297-.16652.11094-2.83268-3.0598-6.74051-5.15654-10.64542-6.33107-4.13766-.5798-8.53026-.31455-12.7696-1.33318-1.11817-.28422-2.40766-.65866-3.32178-1.4719-3.50162-2.86329-7.95996-4.63864-12.19424-6.22844-3.07242-1.15194-6.35919-1.64011-9.39029-2.87045-4.69766-2.74383-8.8814-6.25114-12.83353-9.97634-.08273-.07466.02305-.22082.12021-.15982h0Z" style="fill: #231f20;"/>
    <path d="M448.60945,220.60002c4.32804-1.62251,9.15507-2.27006,13.72411-1.26269,4.50818,1.05549,8.84437,2.71755,12.9429,4.84816-.00002.00004-3.28371-1.05294-3.28371-1.05294-3.25335-1.05811-6.55285-2.06324-9.87743-2.81992-4.41798-1.00604-9.07948-.56519-13.50587.28739h0Z" style="fill: #231f20;"/>
    <path d="M490.96297,208.27483c6.24313,5.89779,13.74071,13.32934,19.9819,19.14007,2.25834,2.02432,4.85306,3.80161,6.83255,6.31085,2.0493,2.47097,2.76687,5.84251,2.63216,8.95024.00016-.00004-.01058,9.22689-.01058,9.22689.21555,6.00774.09145,12.56408,3.50567,17.77385-1.98208-2.41354-2.80712-5.51981-3.39922-8.53155-.53175-3.05083-.75001-6.14104-.8755-9.22341-.34571-4.53329.35828-9.26904-.60376-13.68773-1.29532-4.50227-5.31665-7.09069-8.68824-10.14297-6.72679-6.35582-13.05966-13.06272-19.37499-19.81623h0Z" style="fill: #808285;"/>
    <path d="M503.06404,250.1805c3.60392,5.02412,6.26189,11.42735,5.3786,17.70338-.53416-6.23555-2.98939-11.98835-5.3786-17.70338h0Z" style="fill: #808285;"/>
    <g>
      <path d="M611.25256,338.24959s-31.8842-47.73211-120.28945-62.85848c-13.22819-2.26338-17.03118-11.09267-30.81298-12.43724-13.78181-1.34457-47.05983-10.08425-57.14407-16.80708s-28.2359-14.23-31.26117-16.35889c-3.02527-2.1289-15.79866-18.37574-19.83236-21.51306-4.0337-3.13732-7.39512-6.1626-13.44566-3.47346s-9.07582,8.59087-8.73968,13.87547c.33614,5.2846,17.47936,45.28545,35.29487,56.04199,17.81551,10.75653,45.04298,26.21905,47.73211,30.58889,2.68913,4.36984,8.40354,23.19377-9.74811,38.65629" style="fill: #fff;"/>
      <path d="M611.16951,338.30513c-22.86065-28.15421-56.86902-45.06289-91.03148-55.39474-7.41223-2.19177-14.91618-4.10082-22.48757-5.6685l-7.60644-1.50595c-5.19141-1.01428-9.85059-3.6579-14.18066-6.42572-4.31572-2.77286-8.94683-5.18362-14.09036-5.82933-5.12595-.5088-10.26902-1.40458-15.32029-2.48744-12.62734-2.78724-25.24437-6.01887-37.23685-10.95993-2.38571-1.02197-4.77146-2.16122-6.97019-3.60959-4.31152-2.76288-8.91016-5.11343-13.52832-7.39694-5.80623-2.96951-11.83924-5.2958-17.53134-8.5792-3.10434-2.62082-5.42192-5.65136-8.09571-8.61202-4.32095-4.74286-8.12719-10.00943-13.18679-13.89335-2.76946-2.28316-6.20214-4.07927-9.77312-2.69532-5.71678,1.81466-9.9646,7.73586-9.28852,13.75331,3.92765,13.42251,10.90982,26.054,18.51865,37.73044,2.88173,4.23496,6.04579,8.28163,9.61904,11.88868,3.57761,3.7436,7.98622,6.2048,12.38776,8.84748,8.84661,5.34231,17.75189,10.60229,26.50921,16.12783,4.86727,3.19363,9.95002,6.20625,14.31599,10.16602,1.50525,1.4049,2.14943,3.4793,2.76267,5.35858.75728,2.52602,1.15816,5.1405,1.25435,7.76159.51973,10.59264-5.06074,20.63134-13.13882,27.159-.09392.08544-.22802-.07314-.12972-.15218,9.98807-8.37735,15.05558-21.7978,10.98365-34.44954-.73459-2.4668-1.77273-4.54279-3.98332-6.06129-4.0355-3.11916-8.4647-5.82003-12.84508-8.5316-11.0037-6.78755-22.26544-13.10783-33.33744-19.82532-14.01645-9.66354-24.05533-29.26695-31.01346-44.49738-1.52336-3.67657-3.13406-7.2204-3.99879-11.17662.00008-.00004-.07707-.58225-.07707-.58225l-.01465-.52713c-.4994-9.26639,10.21333-19.01477,19.11436-14.10983,2.29744,1.34264,4.47188,3.05182,6.36272,4.86015,6.3774,6.41086,11.58707,13.86071,18.0667,20.06034,5.47177,3.20574,11.52203,5.67579,17.18027,8.65253,4.61481,2.35545,9.21149,4.77531,13.57331,7.64805,2.104,1.42484,4.38965,2.55295,6.73779,3.59491,7.08645,3.07774,14.47604,5.42158,21.90331,7.55633,9.93921,2.79191,19.98846,5.22585,30.27442,6.35002,7.919.93206,14.17626,6.23184,21.10097,9.60219,4.15268,2.0776,10.39484,2.78519,14.9113,3.61968,2.55219.44332,5.07855,1.02163,7.62055,1.52617,30.36123,6.49849,59.90708,18.82212,84.23344,38.34973,4.04342,3.24905,7.9233,6.70379,11.56735,10.39276,3.61719,3.70941,7.1167,7.55795,10.03418,11.85431.0774.10362-.09986.22104-.16602.11108h0Z" style="fill: #231f20;"/>
    </g>
    <path d="M369.72811,247.1552c1.77002-1.84161,3.82373-3.35913,6.00781-4.66791,2.19244-1.22906,4.62714-2.49291,7.21385-2.39112-4.81127,1.54609-8.74745,4.73861-13.22166,7.05903h0Z" style="fill: #808285;"/>
    <path d="M379.81209,250.1805c3.55662-1.88057,7.46798-3.1071,10.08454-6.27457-1.40643,4.0025-6.18651,5.7976-10.08454,6.27457h0Z" style="fill: #808285;"/>
    <path d="M379.81209,255.89488c3.19883-1.2707,6.42161-2.17635,9.46436-3.70165.98388-.51292,1.93994-1.0825,2.63671-2.01274-1.55079,3.95491-8.2543,5.49527-12.10107,5.71439h0Z" style="fill: #808285;"/>
    <path d="M327.80086,221.47316c-4.23772,9.47538-8.28091,19.12776-13.90622,27.88642-2.28923,4.60394-3.56299,9.71723-5.57278,14.51215-2.45085,4.55795-4.47545,9.37647-6.55906,14.13093-2.74729,6.38291-9.65335,22.46972-12.2036,28.6675-1.90547,4.81648-4.20045,9.44738-5.30971,14.524-1.89976,6.52986-3.0414,13.73708.77969,19.80187,6.51377,10.1935,14.98972,19.01548,23.14211,27.90361,8.89496,11.55492,18.19964,22.86934,28.50354,33.18799,4.2693,3.96514,8.58327,8.56844,14.14349,10.53689,8.26195,2.23723,16.28329,5.23818,24.29945,8.1965,35.36995,14.01914,36.53149,14.8908-.67573,1.85409-6.86769-2.44604-13.75186-4.85328-20.66509-7.14278-2.35021-.77827-4.94715-1.32572-7.00485-2.6804-4.29496-2.66935-7.84086-6.09425-11.30082-9.5601-10.17633-10.44323-19.34617-22.28175-27.88727-33.8422-8.05625-9.06774-16.50051-17.92146-23.19841-28.07428-2.80872-4.54619-3.45113-10.18411-2.40104-15.3487.74149-3.44153,1.27775-6.86156,2.45097-10.18821,3.3003-9.50741,7.68914-19.68371,11.5826-28.99888,3.171-6.99606,6.7037-15.8343,10.34313-22.54026,2.47166-5.00691,3.71716-10.53885,6.42215-15.52749,5.80089-8.61407,10.12594-18.12704,14.83635-27.38258.0497-.11471.23597-.02875.1811.08393h0Z" style="fill: #231f20;"/>
    <path d="M344.51766,250.1805c-1.75014,10.73005-3.23804,21.58259-6.44896,32.00253-.67381,1.51647-1.39733,3.05163-1.75502,4.72609-2.34255,9.24512-3.65656,19.18169-5.52162,28.55606.00002.00001-.11912.47633-.11912.47633-.00195.01926-.03857.12485-.01221.07315.02224-.04304.03697-.1198.0161-.16165l.01417.03873c.40967,1.17198,1.21326,2.20091,1.95162,3.30382,3.07298,4.32358,7.21201,9.21032,10.57131,13.37774.82713,1.01756,2.6384,3.20199,3.39601,4.26264,1.14502.69155,2.6238.56131,4.03026.69204,3.50222.21576,7.08005.0176,10.32182,1.89852-.00002.00007-.35353-.08599-.35353-.08599,7.20895-.06538,14.3125,2.06162,20.5381,5.60608-6.43903-3.15983-13.67331-4.64547-20.78519-4.50159-2.83831-1.53345-6.52911-1.2887-9.7695-1.38961-1.61455-.10017-3.65098.11423-5.09916-.98714-.57167-.59989-.87957-1.1281-1.43506-1.75014-1.37611-1.635-5.19435-6.15653-6.62595-7.85462-3.01643-3.85223-6.46315-7.41242-8.61496-11.87561-.03385-.10544-.09198-.40128-.11601-.50683-.03769-.34595.07429-.74375.15236-1.08075l.32569-1.63171c1.67928-8.86103,3.12272-18.21265,5.50485-26.91526.41105-1.68357,1.16886-3.2522,1.94204-4.83406,3.42759-10.23112,5.38802-20.91638,7.89197-31.43877h0Z" style="fill: #231f20;"/>
    <path d="M356.61873,289.8452c.77023,7.84957,1.1715,15.92284,1.00152,23.70208,2.84207,4.85252,7.4044,9.13305,10.6379,13.86326,2.61922,3.78307,5.69452,7.80205,6.17619,12.51967-1.30125-4.48138-4.57498-7.9725-7.40581-11.55897-2.96498-3.55412-6.08168-6.96544-9.02552-10.65135-.86345-1.29062-2.29878-2.6411-2.34827-4.4402.39826-7.6232.35869-15.83078.96399-23.4345h0Z" style="fill: #231f20;"/>
    <path d="M376.33895,282.78621c3.81944,8.9428,7.0615,18.05467,9.77106,27.40269,1.15116,4.70774,2.0106,9.47399,3.17681,14.17785,1.24489,4.63219,1.94144,9.52225,3.97084,13.88292-2.77784-3.99063-3.94611-8.91359-5.47899-13.47904-1.47446-4.59691-2.41047-9.3818-3.59633-14.05339-2.60336-9.28855-5.55668-18.52928-7.84338-27.93103h0Z" style="fill: #231f20;"/>
    <path d="M402.13924,297.17333c.94493,3.43047,1.60361,6.97373,3.2963,10.03436,2.8793,4.05112,6.97463,7.56787,9.14065,12.1952.39572.82569.72389,1.79129.59185,2.7119-.28369-1.18762-1.07421-2.08701-1.81787-2.99921-6.84347-7.92206-12.15355-10.11233-11.21094-21.94226h0Z" style="fill: #231f20;"/>
    <path d="M412.31111,332.51311c-1.89376.46666-4.48952,1.94137-6.31737,2.71891-6.07366,2.8356-12.75827,5.86876-18.92729,8.39624-4.26853,1.72904-8.56198,3.40937-12.94138,4.8761-4.38307,1.39377-8.83967,2.98999-13.47263,3.19102,7.68351-1.95568,18.16587-7.01279,25.65582-9.91625,6.38993-2.59392,12.79279-5.19582,19.31974-7.45274,2.20351-.67016,4.37406-1.62025,6.6831-1.81327h0Z" style="fill: #231f20;"/>
    <path d="M298.4659,320.43407c6.41065-6.06709,16.31266-6.89494,24.45748-4.33798,1.16313.40536,2.31157.84967,3.44243,1.31271-1.20654-.24918-2.37402-.59711-3.56592-.83832-8.19996-1.75743-17.29324-1.04026-24.33398,3.86359h0Z" style="fill: #808285;"/>
    <path d="M318.63436,277.07182c5.70109.88383,11.20916,3.49468,15.46294,7.395-4.88011-2.67489-10.32546-5.25754-15.46294-7.395h0Z" style="fill: #808285;"/>
    <path d="M332.4161,349.67839c4.60473-3.26604,9.57097-5.95923,13.78226-9.74806-3.19569,4.75154-8.55187,7.71353-13.78226,9.74806h0Z" style="fill: #808285;"/>
    <path d="M344.51766,310.5179c4.0561-1.78817,9.11378-.25839,12.10107,2.85714-3.78202-1.89335-7.82507-3.21205-12.10107-2.85714h0Z" style="fill: #808285;"/>
    <path d="M391.91317,306.65227c1.48259-2.08174,5.30502-1.19294,7.14546-.00012-1.10973.07103-2.56427-.12788-3.66402-.20982-1.18278-.05452-2.34925-.27441-3.48144.20995h0Z" style="fill: #808285;"/>
    <path d="M372.08113,322.11479c3.94453.31645,8.16929,1.69139,10.86873,4.70583-3.55968-1.89281-7.20937-3.02104-10.86873-4.70583h0Z" style="fill: #808285;"/>
    <path d="M342.16463,287.15605c3.43929-.25664,7.88521.11628,10.42051,2.6889-3.36508-1.38368-6.9514-1.53003-10.42051-2.6889h0Z" style="fill: #808285;"/>
    <path d="M368.04744,292.1982c2.96319.10409,6.19521.90989,8.29159,3.10452-2.78046-.98823-5.67044-1.66859-8.29159-3.10452h0Z" style="fill: #808285;"/>
    <path d="M369.72811,229.78789c-5.49842,1.96751-11.07812,4.2943-16.97651,4.61863-2.64794-.32169-4.63528-2.29558-6.62806-3.83911-4.3998-3.90474-8.67204-8.08948-11.84185-13.09258-.31303-.569-.72324-1.31374-.65467-2.01299.14813-1.96141.81005-3.83206,1.69481-5.55515,1.48111-3.11247,4.95234-5.76333,8.53332-4.6641,6.50018,2.0953,11.73515,6.71151,16.20019,11.68216-4.63661-4.60921-10.04142-9.09817-16.36769-10.96671-3.30897-.85474-6.18979,1.50973-7.56788,4.3673-.81164,1.61296-1.41785,3.38432-1.54063,5.17446-.02799.55972.28297.98408.54491,1.49232,4.12878,6.0745,9.45399,11.72331,15.50275,15.8862,1.42879,1.00156,2.95939.92675,4.58911.66936,1.6362-.23122,3.26316-.60219,4.87986-1.00301,3.24268-.78217,6.44189-1.75589,9.63232-2.75677h0Z" style="fill: #808285;"/>
    <path d="M635.95223,206.25798c2.70087,6.22284,4.9133,12.64283,6.80568,19.15566,1.6843,6.51071,3.67732,13.27258,2.94256,20.06084-.00019.00002-.02558-1.2707-.02558-1.2707-.31913-6.3009-2.26361-12.44659-3.87827-18.51709-1.60541-5.66386-4.0987-13.7223-5.84438-19.42871h0Z" style="fill: #808285;"/>
    <path d="M455.10799,208.27483c-1.08639.86448-2.86333.54347-4.17915.64143-4.19012-.00134-8.39632-.25914-12.40386,1.26337,3.53768-2.58527,8.28377-2.45597,12.4453-2.03984.00001.00006,2.09865.2366,2.09865.2366.67469.04666,1.42797.2441,2.03906-.10156h0Z" style="fill: #231f20;"/>
    <path d="M510.90731,206.25798c4.18164,2.12045,8.20557,4.54663,12.07764,7.21222,4.01506,2.96238,8.40337,5.95612,10.60659,10.64208,1.43629,4.16798,2.38613,8.49321,3.37783,12.77728,1.17501,4.47179,1.73894,9.29985,4.19064,13.29102-2.82304-3.76414-3.59295-8.68375-4.93749-13.10655-.97324-3.61856-2.25887-9.16602-3.55887-12.61689-2.05502-4.40719-6.37096-7.39999-10.1259-10.36575-3.75111-2.78729-7.66345-5.3569-11.63044-7.8334h0Z" style="fill: #808285;"/>
    <path d="M481.32723,230.68428c-5.02745-5.56082-12.03971-8.97468-19.15864-11.00499-.81547-.2528-2.56652-.59902-3.32864-.97864-.37063-.17359-.85256-.6139-.87307-1.17326-.02344-.52136.15186-.88803.26953-1.24643.40444-.99251.57873-2.06217.02145-3.03446-.65523-1.28753-1.93648-2.20147-3.14986-3.06686,1.33203.68396,2.68457,1.48331,3.57617,2.82425.4375.66891.61816,1.54346.49219,2.34882-.0918.78406-.49805,1.58014-.44385,2.09845.01465.41104.78467.65231,1.46191.79498,8.05479,1.71649,16.29116,5.53945,21.13281,12.43814h0Z" style="fill: #808285;"/>
    <path d="M237.96053,126.25627c-26.57109-22.21381-55.61853-47.48137-81.34626-70.70171,26.58375,22.24632,55.64106,47.47995,81.34626,70.70171h0Z" style="fill: #808285;"/>
    <path d="M169.72371,57.2352c27.849,21.65873,58.33745,46.32612,85.37994,69.021-27.86324-21.69115-58.36023-46.32405-85.37994-69.021h0Z" style="fill: #808285;"/>
    <line x1="315.60924" y1="127.82494" x2="270.56626" y2="94.21077" style="fill: none; stroke: #231f20; stroke-linecap: round; stroke-linejoin: round;"/>
    <path d="M321.69145,127.82494c-1.34457-.44819-25.57842-18.992-25.57842-18.992" style="fill: none; stroke: #231f20; stroke-linecap: round; stroke-linejoin: round;"/>
    <line x1="327.3517" y1="127.82494" x2="301.17765" y2="107.99258" style="fill: none; stroke: #231f20; stroke-linecap: round; stroke-linejoin: round;"/>
    <line x1="333.78338" y1="127.82494" x2="301.17765" y2="102.83841" style="fill: none; stroke: #231f20; stroke-linecap: round; stroke-linejoin: round;"/>
    <line x1="341.18766" y1="127.82494" x2="321.69145" y2="113.37085" style="fill: none; stroke: #231f20; stroke-linecap: round; stroke-linejoin: round;"/>
    <line x1="348.77795" y1="128.58274" x2="333.78338" y2="117.90876" style="fill: none; stroke: #231f20; stroke-linecap: round; stroke-linejoin: round;"/>
    <path d="M360.09188,130.28998c-29.69976-19.30775-63.19823-40.40878-92.55068-60.28156,30.63762,19.1541,63.054,39.50803,92.55068,60.28156h0Z" style="fill: #808285;"/>
    <path d="M275.38436,70.00858c30.7404,18.8074,64.51195,40.35413,94.56792,60.28132-30.75889-18.83843-64.53497-40.34899-94.56792-60.28132h0Z" style="fill: #808285;"/>
    <path d="M311.9117,129.61769c-29.54894-20.55722-61.95868-44.02457-90.75836-65.65959,29.56541,20.58922,61.98191,44.02105,90.75836,65.65959h0Z" style="fill: #808285;"/>
    <path d="M226.64376,92.41802c.33614-.11205,29.02023,1.79276,29.02023,1.79276" style="fill: none; stroke: #231f20; stroke-linecap: round; stroke-linejoin: round;"/>
    <path d="M251.63029,91.74574c-.56024,0-28.57204-2.01685-28.57204-2.01685" style="fill: none; stroke: #231f20; stroke-linecap: round; stroke-linejoin: round; stroke-width: .5px;"/>
    <line x1="249.16525" y1="89.72889" x2="221.15345" y2="87.93613" style="fill: none; stroke: #231f20; stroke-linecap: round; stroke-linejoin: round; stroke-width: .75px;"/>
    <line x1="217.56793" y1="85.58314" x2="245.91588" y2="87.93613" style="fill: none; stroke: #231f20; stroke-linecap: round; stroke-linejoin: round;"/>
    <line x1="243.33879" y1="85.58314" x2="215.1029" y2="83.67834" style="fill: none; stroke: #231f20; stroke-linecap: round; stroke-linejoin: round; stroke-width: .5px;"/>
    <line x1="240.42556" y1="83.67834" x2="212.86195" y2="81.99763" style="fill: none; stroke: #231f20; stroke-linecap: round; stroke-linejoin: round; stroke-width: .25px;"/>
    <line x1="237.34427" y1="81.99763" x2="210.95715" y2="80.54102" style="fill: none; stroke: #231f20; stroke-linecap: round; stroke-linejoin: round; stroke-width: .5px;"/>
    <line x1="235.15935" y1="80.09283" x2="208.82825" y2="78.63621" style="fill: none; stroke: #231f20; stroke-linecap: round; stroke-linejoin: round; stroke-width: .75px;"/>
    <line x1="191.01275" y1="65.19055" x2="219.47274" y2="68.66401" style="fill: none; stroke: #231f20; stroke-linecap: round; stroke-linejoin: round;"/>
    <line x1="221.15345" y1="70.2887" x2="193.14164" y2="67.54354" style="fill: none; stroke: #231f20; stroke-linecap: round; stroke-linejoin: round; stroke-width: .5px;"/>
    <line x1="197.28739" y1="70.00858" x2="223.05825" y2="72.08145" style="fill: none; stroke: #231f20; stroke-linecap: round; stroke-linejoin: round; stroke-width: .75px;"/>
    <line x1="226.64376" y1="74.26637" x2="200.76085" y2="72.47362" style="fill: none; stroke: #231f20; stroke-linecap: round; stroke-linejoin: round;"/>
    <line x1="205.24274" y1="75.94708" x2="232.47021" y2="77.85188" style="fill: none; stroke: #231f20; stroke-linecap: round; stroke-linejoin: round; stroke-width: .5px;"/>
    <g>
      <line x1="338.57892" y1="171.1872" x2="407.59999" y2="169.2824" style="fill: #231f20;"/>
      <path d="M338.57869,171.1872c22.94451-2.00205,46.00126-2.64937,69.02148-1.90502-22.94418,2.01329-46.00134,2.63861-69.02148,1.90502h0Z" style="fill: #5b9fd7;"/>
    </g>
  </g>
</svg>
