<?xml version="1.0" encoding="UTF-8"?>
<svg xmlns="http://www.w3.org/2000/svg" viewBox="0 0 680.34743 448.37557">
  <rect width="680.34743" height="448.37557" style="fill: #fff;"/>
  <g id="Step_6_Seal_and_rotate_tube" data-name="Step 6 Seal and rotate tube">
    <path d="M415.76597,294.15703c.63394-2.68305,2.51151-6.78151,3.56196-9.42094.00005-.00017,3.85405-9.27416,3.85405-9.27416,4.9283-12.35204,10.2941-24.78807,12.98552-37.8258-.00017-.00006.21418-1.21948.21418-1.21948.04139-1.10368-.44496-2.17902-.88428-3.23579-2.06867-4.55356-4.80159-8.74412-7.10299-13.2256-.76664-1.51355-1.54105-3.01319-2.04642-4.75846-.28224-.83066-.14641-1.60955-.43411-2.46419-.19822-.74262-.51951-1.50608-.81394-2.26402-4.44417-9.92268-9.59752-19.83198-11.04579-30.8219-.00011.00003-.23156-2.55697-.23156-2.55697-.32659-4.93361-2.49962-9.40242-4.76219-13.77027-3.12501-5.85458-6.80714-11.43879-10.54542-16.97599-3.7334-5.54665-7.58838-11.02289-11.19971-16.69763-1.93255-3.22672-4.20992-6.4856-5.12462-10.28498-.10491-.42461-.11307-.99706-.08628-1.43528.02065-.55415.25572-1.2791-.32665-1.39607-1.37848-.07874-3.13454.73357-4.5235,1.19883-6.25281,2.40685-12.74063,4.47637-19.41602,5.35434-6.67137.94225-13.47508.87633-20.12499-.1383-3.21286-.29156-6.56351.96787-9.72316,1.63054-9.75142,2.41012-19.56685,5.08142-29.71678,4.97491-5.07703.03666-10.12985-1.36564-14.55363-3.84755-7.42769-3.76589-15.46925-7.01341-21.83948-12.53016-2.55667-2.29055-4.75228-5.41952-4.82464-8.99582-.04732-3.50925,1.29131-7.06504,3.5227-9.72465,1.33616-1.31023,3.00413-1.98349,4.61497-2.56003,4.83747-1.56767,9.90836-2.14282,14.87401-2.98081,9.88905-1.53361,19.70094-3.48112,29.01905-7.12743,1.08369-.44877,2.3633-.92945,3.44426-1.41954,1.99466-.76489,4.04798-1.44011,6.05627-2.02778,16.0836-4.76523,32.25536-8.94161,48.26803-13.82571,3.91808-1.27614,7.91988-2.3038,11.55764-4.15204,5.01494-3.07679,10.02583-6.2274,15.41063-8.66697,5.02009-2.21733,10.72699-4.33727,16.33251-3.42253.81533.138,1.94102.41481,2.68209.81583,3.4145,1.96894,6.14598,4.85815,8.78083,7.57273,14.66393,16.16673,27.20879,34.10139,39.70965,51.92967,10.99924,18.56619,22.72052,37.6554,40.77088,50.18319.10802.06682-.00774.23991-.11094.16641-18.37731-12.1376-30.54693-31.10004-41.79279-49.55735-12.65868-17.53372-25.36229-35.45874-40.0308-51.34311-2.5864-2.64695-5.13799-5.34536-8.25497-7.15095-.53726-.35246-1.49285-.48036-2.10452-.61615-5.23257-.79391-10.35532,1.20901-15.12552,3.2985-5.26491,2.39678-10.25205,5.54413-15.18601,8.58698-6.93073,3.29998-14.44483,5.01047-21.67474,7.21064-14.45581,4.19399-29.11518,7.71472-43.41711,12.27326-.56651.21444-1.74599.65364-2.30021.90961-13.21479,5.69806-27.67159,7.08162-41.68611,9.45592-3.07743.65656-6.5568,1.28496-8.91508,3.38596-2.00637,2.3866-3.23961,5.63298-3.24031,8.74377.01921,3.20005,1.98405,6.0423,4.36247,8.23285,6.1643,5.46224,14.18031,8.82769,21.45303,12.61718,4.37201,2.51721,9.14788,3.86074,14.21306,3.86268,10.0171.13237,19.88259-2.41988,29.54632-4.88668,3.31222-.70893,6.50432-1.99,9.97995-1.70051,6.5928.96118,13.32278,1.00637,19.9053.00999,6.61835-.97148,12.94133-3.09554,19.14159-5.58266,2.28038-.85092,7.149-3.12492,6.45602,1.38871-.04587.7507.16396,1.46336.40875,2.17791,1.13573,3.00833,2.97997,5.8457,4.7661,8.63758,3.64941,5.57953,7.6084,10.98547,11.39209,16.52016,3.77539,5.54079,7.50635,11.13753,10.7168,17.0876,2.34775,4.47302,4.71724,9.30854,5.00098,14.48488l.20752,2.44553c1.36165,10.76472,6.41311,20.56343,10.75938,30.43196.47695,1.24396,1.01411,2.49197,1.11852,3.88618.0303.36481.05666.66401.16994,1.04902.41504,1.47903,1.16113,2.98911,1.90137,4.45782,2.27002,4.45732,5.00142,8.74757,7.01467,13.38173.48711,1.24776,1.08211,2.55094.92774,3.99608-.00003.00003-.23733,1.25061-.23733,1.25061-4.39214,19.47753-14.37322,38.41586-21.69824,56.27475h0Z" style="fill: #231f20;"/>
    <path d="M403.71323,152.73018c-13.65964,2.67043-27.34319,5.20018-40.84815,8.51883-4.33893,1.17157-9.00645,2.22479-12.96927,4.24704-3.70065,2.45801-7.58786,5.27978-9.51364,9.36305-3.93287,8.42928-.97151,18.3879.07698,27.18886,1.30516,9.2292,5.10162,31.72365,6.64517,41.23912.78029,4.57039,1.59376,9.13472,2.50343,13.67083,1.03387,4.65446,1.77745,9.64476,3.64733,13.98009,2.32412,3.54976,5.09613,6.90079,7.79206,10.18414,5.94313,6.8417,12.42021,13.90975,20.91251,17.46384,4.28997,1.6584,9.04986,2.87259,13.2151,4.65839-.01719.05006-.0709.07734-.12119.06428-4.06656-1.13347-9.48002-2.5042-13.43457-3.77009-8.95508-3.24672-15.76526-10.29034-22.03137-17.15759-2.89395-3.33938-5.75734-6.74573-8.20116-10.43549-1.2288-2.48808-1.76572-5.1691-2.40813-7.73283-1.5558-6.81925-2.63753-13.7284-3.73095-20.62336-2.18691-13.77242-3.67286-27.62655-5.4843-41.44395-1.46345-13.02296-6.1711-26.75802,6.41219-35.94063,2.67184-2.43738,6.15477-3.84255,9.49847-4.82672,6.69821-2.04764,13.5683-3.43198,20.43205-4.72964,9.15235-1.66013,18.34083-3.07116,27.57765-4.11596.12292-.01939.15107.17985.02979.1978h0Z" style="fill: #231f20;"/>
    <path d="M422.59409,202.93663c-7.90051,7.49781-24.28472,20.48992-35.76457,16.60168-2.34185-.91691-4.40945-2.6848-5.3205-5.05591-.01405-.05126-.0121-.20107.03771-.32287,1.12133-1.63106,5.83962,5.42808,6.48096,6.43865,6.69772,10.28378,9.21801,22.91314,7.86509,35.06053.00356.07971-.00084.09155.09682.22207.52917.55342,1.38261.90411,2.15916,1.26691,4.9268,2.07548,9.95379,4.66375,14.0361,8.23275,4.1563,3.54951,7.63286,7.79548,10.42534,12.39704.06581.09763-.09257.21381-.16408.11418-4.96346-6.29601-10.82138-11.80872-17.91749-15.4987-2.32957-1.24182-4.74021-2.22564-7.25877-3.29147-1.4237-.67047-3.5485-1.53431-3.50588-3.50847,1.0914-9.22178.32286-18.67901-2.84961-27.45931-1.94161-4.94549-4.51872-10.38823-8.90454-13.51387.09963.02527.25404-.1485.25123-.23429.97679,1.88617,2.93511,3.39075,4.96727,3.9902,7.32818,1.78218,15.61706-3.0766,21.94442-6.61417,4.56635-2.73644,8.9936-5.75747,13.28901-8.97506.09028-.07619.22378.0646.13232.15012h0Z" style="fill: #231f20;"/>
    <path d="M374.57456,259.73113c4.69243-3.72156,10.78835-6.46659,16.88325-5.90931-5.98401.85426-11.45322,3.37371-16.88325,5.90931h0Z" style="fill: #6d6e71;"/>
    <path d="M367.82114,200.63957c3.12154,3.01456,6.14917,6.67669,8.96143,9.98125.88304.95408,1.96875,2.50371,3.05805,3.2085-.72325-.20281-1.34839-.7282-1.9433-1.16654-3.98187-3.42799-7.29202-7.57341-10.07617-12.02322h0Z" style="fill: #6d6e71;"/>
    <path d="M408.76353,231.02953c4.73913,5.35936,10.06078,11.79996,17.72743,12.24058-7.79955,1.07863-14.21875-6.06256-17.72743-12.24058h0Z" style="fill: #6d6e71;"/>
    <path d="M391.45786,90.89815c-.90575,7.05422-2.46911,13.93083-4.7162,20.68206.89523-7.03091,2.48031-13.95397,4.7162-20.68206h0Z" style="fill: #6d6e71;"/>
    <path d="M255.25004,165.62977c-4.91672,25.54663-2.46452,23.64166-5.0245,33.44832-.46886,1.7961,3.24486,13.97881-4.28047,24.77602-3.64046,5.22327-10.8583,43.26857-9.91647,46.36721l38.45802,4.36272c2.80282-15.10842,17.16658-87.33791,19.89371-100.78136.46507-2.29258,1.57737-2.13247-16.83848-5.66345-15.40964-2.95458-22.18439-3.06759-22.29181-2.50946Z" style="fill: #be1e2d;"/>
    <path d="M329.41196,101.23917c.60423,7.37534,1.33181,15.05673,5.31193,21.48462-5.19085-5.6494-6.11949-14.14766-5.31193-21.48462h0Z" style="fill: #6d6e71;"/>
    <path d="M489.12876,148.01494c9.3143-1.79797,19.00096-2.86055,28.42333-1.19408,8.10936,1.66509,14.46195,7.73599,20.13144,13.3165,4.07913,4.30663,8.00307,8.73201,10.89996,13.96134,2.3607,5.33054,4.80308,10.61231,7.24791,15.9051,1.81935,3.97327,5.55547,11.88317,7.46683,15.80781,11.82826,24.44124,27.48768,53.51803,40.39139,77.49513,5.55955,10.22345,11.17622,20.4265,17.17015,30.39634,5.81879,10.0144,12.58451,19.5728,21.90827,26.57466,3.46119,2.48936,7.32277,4.85285,11.67762,5.07019,1.40869.03926,2.91357-.1223,4.12988-.85777.04704-.03761.12-.02777.15088.02509.02735.04556.01416.10452-.02978.134-1.26074.84927-2.78564,1.07709-4.25635,1.11356-4.48636-.00965-8.63459-2.21166-12.25831-4.66014-9.73799-6.73401-16.91236-16.40937-22.96563-26.39297-27.17675-44.95191-48.29555-93.17514-72.13305-139.90616-2.79366-4.93891-6.82563-9.27209-10.66343-13.44754-4.49939-4.63345-9.32166-9.13978-15.14947-11.8559-4.61798-1.96624-9.74506-2.33239-14.72903-2.43648-5.79054-.07534-11.61036.36123-17.37599,1.14796-.121.02688-.16041-.17565-.03662-.19664h0Z" style="fill: #231f20;"/>
    <path d="M247.39447,208.17011c-7.18054,33.5253-7.05479,37.13869-9.50403,50.0994-.44858,2.37377,4.1892,9.98477,19.1222,12.82177,18.981,3.60605,19.57602-2.38113,19.57602-2.38113,2.58212-19.81033,7.22593-33.7504,9.76692-51.40976.43333-3.01154-1.75164,2.58395-20.75444-1.23917-13.11481-2.63854-18.05189-8.61381-18.20668-7.89111Z" style="fill: none;"/>
    <path d="M279.22825,172.13934s6.46183.90541,13.84465,3.16727" style="fill: none; stroke: #d19c2a; stroke-linejoin: round; stroke-width: 2px;"/>
    <path d="M275.88999,189.71079s8.61156,1.31382,13.83481,3.21911" style="fill: none; stroke: #d19c2a; stroke-linejoin: round; stroke-width: 2px;"/>
    <path d="M257.84369,153.25435s-21.90399,114.1644-21.81483,114.82579,9.42099,8.63095,18.64119,10.23866c13.75809,2.39897,20.45898-2.34283,20.45898-2.34283l22.37322-117.765" style="fill: none; stroke: #231f20; stroke-linecap: round; stroke-linejoin: round; stroke-width: 2px;"/>
    <g>
      <path d="M250.58665,197.62994s12.15673,5.43185,22.6636,6.9135c2.88169.40637,4.532,1.17497,6.82709.49071,1.56204-.46571-8.32562,48.48701-10.79621,61.90033-.32049,1.74001-9.15355,3.33747-16.79433.63893-7.64078-2.69855-13.49361-7.96694-13.49361-7.96694" style="fill: #fff;"/>
      <path d="M250.58677,197.62993c7.4351,2.70305,14.955,5.22268,22.76756,6.44169,2.19043.28011,4.26983,1.18026,6.43068.60343.18469-.04945.37807-.10851.5713.01669.27239.22562.21655.30402.27542.51527.02976,2.96058-.64555,5.84679-1.05072,8.72587-1.31053,7.82692-2.8083,15.61905-4.30526,23.41027-1.40247,7.14665-3.94396,20.2093-5.33644,27.24157,0,.00016-.375,1.94645-.375,1.94645l-.09961.50189c-.05908.21753-.19287.37137-.32471.50104-1.35549,1.06522-3.16556,1.24688-4.79245,1.48588-3.96208.41522-8.02787.00372-11.79446-1.30422-4.98681-1.82275-9.55615-4.66543-13.56006-8.10931,4.05664,3.38013,8.66553,6.13611,13.63428,7.8956,4.91403,1.55292,10.56143,2.03401,15.45851.23856.38074-.18051.84505-.4231.9878-.81267-.00002-.00004.08738-.47154.08738-.47154.62297-3.46841,1.88363-10.10538,2.55225-13.64476,1.73058-9.20959,4.20483-22.09297,5.78366-31.18826.82523-5.41187,2.13945-10.89861,2.30104-16.35196.0066-.009-.0266.0142.11158.12342.08203.05948.22656.06503.2832.0397l-.06299.01849c-2.27317.74007-4.69011-.16367-6.91114-.42676-7.88804-1.17371-15.4869-3.91608-22.63183-7.39636h0Z" style="fill: #ababab;"/>
    </g>
    <path d="M311.26255,303.21306c1.25578-2.50415,3.42998-5.11209,6.33093-5.55015-2.2884,1.71815-3.95836,3.88601-6.33093,5.55015h0Z" style="fill: #6d6e71;"/>
    <g>
      <rect x="73.34179" y="173.75946" width="75.03838" height="58.24738" style="fill: none;"/>
      <path d="M94.16895,214.12219l-6.18848-10.33301-6.24316,10.33301h-7.91113l9.52539-14.53125-8.55664-13.18555h8.50293l5.43555,9.04199,5.32812-9.04199h7.64258l-8.28809,13.18555,9.36426,14.53125h-8.61133Z" style="fill: #2060ad;"/>
      <path d="M107.29981,206.96398c3.12207,1.3457,5.43555,1.88379,7.58887,1.88379,4.78906,0,8.12598-2.36816,8.12598-6.61914,0-4.14453-3.2832-6.5127-8.61035-6.5127-2.31445,0-4.52148.32324-6.72754,1.02246l.37695-20.18164h21.58105v5.59766h-14.47754l-.16113,8.01855c1.29102-.21484,2.09863-.37695,3.44434-.37695,6.72754,0,12.1084,3.71387,12.1084,12.16309,0,7.69629-5.59668,12.80859-14.6377,12.80859-2.42188,0-5.91992-.37695-8.77246-1.07617l.16113-6.72754Z" style="fill: #2060ad;"/>
    </g>
    <polygon points="182.37418 279.38422 192.0114 235.94214 145.10096 255.07789 182.37418 279.38422" style="fill: #2060ad;"/>
    <path d="M168.06271,245.63991c-11.21494-28.42482-1.69512-61.81529,24.64327-79.69616,5.99117-4.06734,12.40706-7.02973,19.00668-8.93326" style="fill: none; stroke: #2060ad; stroke-miterlimit: 10; stroke-width: 16px;"/>
    <g>
      <path d="M486.84863,426.15721s-44.53967-17.54148-78.92942-34.73636c-52.76031-26.38015-110.58561-26.5912-119.44934-34.18868-5.66967-4.85972-16.8833-29.96785-24.90287-37.56534-1.10478-1.04664-35.87701-21.10412-37.56534-24.48078-1.68833-3.37666-8.01957-11.39623,4.22082-20.68204,12.24039-9.28581,58.66946,2.95458,61.62404,4.22082s26.16911,12.24039,28.27952,18.14955c0,0,21.10412-2.53249,49.80573,10.55206,10.34103,4.71429,61.62404-16.03913,81.03983-38.4095" style="fill: #fff;"/>
      <path d="M486.81187,426.25026c-24.63877-9.4649-49.04082-19.58788-72.86038-30.97709-7.89585-3.8942-15.74932-7.7166-23.95948-10.86827-28.6334-11.45041-59.12863-16.59512-89.25299-22.49647-13.10293-2.81682-13.3703-4.06801-20.07306-15.31772-4.97676-8.29967-10.39239-19.09021-16.90065-26.20027-2.04612-1.78032-4.58675-2.88394-6.86398-4.36613-10.30208-6.36126-21.14446-12.03111-30.68048-19.56009-.33331-.30591-.67737-.69388-.89239-1.136.00002.00002-.18944-.35008-.18944-.35008l-.80664-1.44067c-2.38242-3.87832-3.09153-9.20072-.5525-13.22382,5.49854-9.14878,13.92005-10.27597,23.69271-10.16053,14.42964.39884,28.58304,3.20083,42.47407,6.88094,1.07009.28867,2.2432.66075,3.24946,1.15088,8.96263,4.34474,18.21931,8.6287,25.73702,15.30451.81378.83546,1.6424,1.70374,2.16583,3.03724l-1.0957-.67831c6.13283-.50682,12.10616.02847,18.1377.88956,10.37237,1.58959,20.63515,4.75341,30.20801,9.02693,0,0,2.04931.8897,2.04931.8897,3.32986,1.15594,7.04013.37597,10.55175-.20967,14.5164-3.14723,28.27868-9.26209,41.33894-16.30438,10.35408-5.816,20.56277-12.34104,28.60742-21.18904.07749-.09798.23815.03705.1508.13103-11.97463,13.48711-28.09001,22.56601-44.25959,30.13216-8.20795,3.68897-16.67383,6.96609-25.50941,8.86153-3.68957.65509-7.81374,1.56014-11.58058.21365,0-.00014-2.07031-.87361-2.07031-.87361-3.73029-1.66843-8.57924-3.40764-12.50094-4.65027-8.48404-2.60944-17.23575-4.44799-26.10355-4.93278-2.92969-.14834-5.93652-.20092-8.77344.06721-.48686.05065-.93232-.24098-1.09668-.6785-1.96021-3.54075-6.1319-5.71733-9.45783-7.94939-5.5745-3.39468-11.45258-6.40599-17.36589-9.18959-.92762-.45197-1.95378-.78594-2.95361-1.06141-13.11036-3.52588-50.01635-12.42065-60.12942-2.69423-5.41537,4.40128-7.46787,10.26087-3.72385,16.56831-.00026-.00002.78636,1.44651.78636,1.44651.30269.55972.38684.78414.82137,1.1773,11.13731,8.8511,23.87197,15.55548,35.81957,23.26776,1.88422,1.23821,3.16886,3.17288,4.53639,4.92171,5.17141,7.15886,9.20982,15.00528,13.70845,22.57062,6.69704,11.0103,6.71608,12.15314,19.71002,14.86048,30.27307,5.48605,61.04571,9.95257,89.73175,21.63418,16.3342,6.6108,31.72666,15.2281,47.86595,22.27739,16.01402,7.25488,32.1419,14.2762,48.38314,21.01268.11877.04205.044.23606-.07322.18604h0Z" style="fill: #231f20;"/>
    </g>
    <path d="M290.15806,327.26433c-1.30384,5.94537-3.28083,11.64983-5.48676,17.30538.8807-6.02981,2.88728-11.81017,5.48676-17.30538h0Z" style="fill: #6d6e71;"/>
    <path d="M300.7103,335.91701c2.16709,6.84117,3.98539,14.09827,3.37677,21.31512-.76494-7.06357-2.56101-14.24989-3.37677-21.31512h0Z" style="fill: #6d6e71;"/>
    <path d="M291.84653,346.5746c-1.28391,3.55917-3.47452,6.79713-3.37663,10.65752-1.58186-3.59344.94945-8.01923,3.37663-10.65752h0Z" style="fill: #6d6e71;"/>
    <path d="M225.57944,289.2769c1.74225-4.59795,4.72383-11.86669,10.53305-11.86249,6.41793.44448,12.03041,4.27056,16.69358,8.42015,4.29341,4.09091,7.77129,9.06058,10.18259,14.4717,1.26803,2.65695,2.1987,5.61224,2.08786,8.6192-.15381,3.00595-1.18408,5.79596-1.93164,8.63095,1.93442-8.20302,2.34569-11.24732-1.83323-18.88029-5.08512-9.34541-13.41827-18.16657-24.16129-20.42245-6.03428-1.17783-9.46295,6.52074-11.57091,11.02323h0Z" style="fill: #6d6e71;"/>
    <path d="M257.04551,156.32496s-6.19921.97043-6.21998-1.18168c-.02077-2.15211,1.49998-8.08909,1.49998-8.08909l3.50007-1.77125,5.26545-27.71555s4.92983-5.5423,24.76877-2.38331c13.97162,2.22472,21.46558,10.30773,21.46558,10.30773l-5.42301,28.54488,2.75599,2.45691s-.95471,7.1155-1.65549,7.412-4.81739-.62407-4.81739-.62407c0,0-6.52999-5.10727-20.33306-7.29996-14.31317-2.27374-20.80692.34338-20.80692.34338Z" style="fill: #fee000; stroke: #231f20; stroke-linecap: round; stroke-linejoin: round; stroke-width: 2px;"/>
    <path d="M254.48569,147.0909c5.7223-1.34293,11.66624-1.24543,17.45654-.47177,0-.00006,5.80811.57933,5.80811.57933,7.75436.76471,15.4153,2.88246,22.40138,6.34505.05359.02473.01752.11321-.03909.09212-8.34703-2.50795-16.67699-5.08961-25.30513-6.39433-6.66285-.80497-13.88569-.05862-20.32181-.15041h0Z" style="fill: #ceb42c;"/>
    <path d="M268.95396,145.37613c1.10509-9.47005,2.8985-18.91624,5.34463-28.13248-1.10521,9.47184-2.89956,18.91617-5.34463,28.13248h0Z" style="fill: #e8cd2c;"/>
    <path d="M278.67808,116.94792c-1.12454,9.57371-2.93857,19.12347-5.40371,28.44348,1.12448-9.57562,2.9391-19.12348,5.40371-28.44348h0Z" style="fill: #e8cd2c;"/>
    <path d="M302.82554,123.97232c-.75028,9.20179-2.19014,18.40167-4.2875,27.39346.74931-9.20346,2.18999-18.40178,4.2875-27.39346h0Z" style="fill: #e8cd2c;"/>
    <path d="M298.97202,121.93125c-.85158,9.45092-2.39318,18.89575-4.5917,28.12779.85156-9.45281,2.39421-18.89562,4.5917-28.12779h0Z" style="fill: #e8cd2c;"/>
    <path d="M264.54087,145.84682c1.10519-9.47014,2.8996-18.91591,5.34463-28.13248-1.10453,9.47199-2.89949,18.91617-5.34463,28.13248h0Z" style="fill: #e8cd2c;"/>
    <path d="M282.94565,117.24178c-1.12495,9.57359-2.93839,19.12353-5.40371,28.44348,1.12448-9.57562,2.9391-19.12348,5.40371-28.44348h0Z" style="fill: #e8cd2c;"/>
    <path d="M287.11851,118.03453c-1.12485,9.57374-2.93897,19.12323-5.40371,28.44347,1.12451-9.57562,2.93881-19.12348,5.40371-28.44347h0Z" style="fill: #e8cd2c;"/>
    <path d="M295.05796,119.77786c-.85179,9.45099-2.39355,18.89564-4.5917,28.12781.85134-9.45278,2.39382-18.89578,4.5917-28.12781h0Z" style="fill: #e8cd2c;"/>
    <path d="M290.92808,118.75835c-.85154,9.45094-2.39334,18.89575-4.5917,28.12781.85156-9.45282,2.39421-18.89561,4.5917-28.12781h0Z" style="fill: #e8cd2c;"/>
    <path d="M260.2894,145.46874c1.10489-9.47012,2.89966-18.91593,5.34463-28.13248-1.10494,9.47191-2.89931,18.9162-5.34463,28.13248h0Z" style="fill: #e8cd2c;"/>
  </g>
</svg>
