<?xml version="1.0" encoding="UTF-8"?>
<svg xmlns="http://www.w3.org/2000/svg" viewBox="0 0 680.34743 448.37557">
  <rect width="680.34743" height="448.37557" style="fill: #fff;"/>
  <g id="Step_3_Prick_finger" data-name="Step 3 Prick finger">
    <path d="M378.30228,193.95168s10.07966-3.19989,11.03963-4.95983,5.27982-12.47958,3.99986-19.35934c-1.27996-6.87977-4.47985-9.91966-4.95983-9.91966s-19.03935-9.12626-43.19853-7.84302" style="fill: #fff; stroke: #231f20; stroke-linecap: round; stroke-linejoin: round; stroke-width: 2px;"/>
    <path d="M339.5836,169.15252s-2.0266-8.47971,3.94653-16.47944" style="fill: #fff; stroke: #231f20; stroke-linecap: round; stroke-linejoin: round; stroke-width: 2px;"/>
    <path d="M335.75992,151.70374c1.64593-1.8708,3.90745-3.05591,5.91564-4.5007,6.13542-4.06455,12.67337-7.63717,18.33646-12.37179,5.86332-4.52056,11.72912-9.09204,18.03939-13.00987,1.46394-.96411,3.32557-1.84279,4.89542-2.67405,4.7822-2.6976,9.21253-6.0028,13.70715-9.22169,8.42195-5.95803,18.42201-14.17954,27.49301-18.96079,3.47421-1.45073,7.44933-1.59808,11.17783-1.99594,2.49809-.14989,5.02738-.16658,7.57719.34224,2.61401.43787,4.57084,2.3181,6.61866,3.80213,0-.00005,11.75878,8.97262,11.75878,8.97262,7.81689,6.00543,15.63818,12.00426,23.56006,17.86438,3.99844,2.8591,7.77656,6.03445,12.13617,8.3453,6.4876,3.49641,19.55057,10.53104,26.00982,14.07723,4.31348,2.39644,8.63574,4.75542,12.83008,7.41629,2.17904,1.27425,4.07087,3.104,5.47212,5.19612,3.59297,5.04954,5.70067,10.95878,8.74508,16.27729,12.01206,17.18539,23.59436,34.79524,32.42734,53.88791,3.07969,6.7111,5.61943,13.66264,8.92148,20.27669,5.29283,11.07173,11.27229,21.87501,17.34315,32.54209,4.89797,8.53251,9.93654,17.00645,15.3218,25.21982,2.55834,4.18942,5.91198,7.73029,9.44588,11.10733,10.65089,10.21158,22.7143,18.87623,35.19813,26.71137.10951.0612.0042.23979-.10302.17131-12.76374-7.47046-25.11106-15.85164-35.99558-25.93331-3.66449-3.36059-7.19495-6.9408-9.84267-11.18334-5.52599-8.20619-10.67101-16.62464-15.69151-25.12595-6.2235-10.62102-12.17975-21.51478-17.55325-32.60819-3.31762-6.6212-5.92365-13.55954-8.94128-20.31388-8.64368-19.03518-20.12934-36.63119-31.78085-53.95894-3.00265-5.39461-4.98548-11.29349-8.48348-16.38104-1.33006-2.0374-3.00752-3.70879-5.08494-4.97037-4.08833-2.68601-8.38618-5.12351-12.64936-7.58062-8.04108-4.69008-19.29088-10.60466-27.50435-15.1847-7.59077-4.82893-26.8884-19.53644-34.44937-24.96241.0001-.00011-11.92129-8.73786-11.92129-8.73786-1.94847-1.31981-3.70686-3.06464-6.0952-3.41896-2.3003-.42676-4.74659-.34668-7.15675-.19722-3.53491.40743-7.22158.53887-10.5567,1.90269-8.78276,4.77257-18.96357,12.97574-27.26523,18.73496-4.53802,3.19584-9.04716,6.51575-13.95174,9.22841-3.84793,1.85653-7.52138,4.1205-11.05393,6.5367-7.21007,4.7074-13.6973,10.58344-21.15932,14.90758-2.99131,1.76234-6.57513,3.8094-9.52253,5.66451-2.01601,1.3337-4.29439,2.48019-5.98727,4.19139-.02876.0571-.10156.09178-.1571.0493-.04272-.03103-.05298-.09037-.02392-.13403h0Z" style="fill: #231f20;"/>
    <path d="M391.45035,159.06372c1.79422-2.6602,4.12583-5.15935,7.21236-6.34449,5.71758-2.56692,11.73981-4.49711,17.58898-6.74924,2.95044-1.26021,5.96795-2.64121,8.49164-4.4693.26033-.24643.83279-.52089,1.20263-.45253.5996.03239.99658.25464,1.39404.44814,2.12491,1.21674,3.84319,2.88497,5.71878,4.36739,2.41647,1.97459,4.92526,3.78648,7.51218,5.46627,5.15869,3.39445,10.8335,5.93497,16.89355,7.69789.11021.02616.08107.21222-.03616.1967-6.32127-.51745-12.55515-2.703-17.99998-6.09349-4.75728-2.86689-8.58143-6.96013-12.787-10.46236-.46801-.27568-.78416-.58364-1.20225-.27941-2.90815,1.67541-5.94886,2.71359-8.92575,4.17391-5.67244,2.78443-11.25679,5.70574-17.32188,7.6131-2.91459.88433-5.34452,2.95567-7.58493,5.01231-.0738.08547-.22463-.02762-.15622-.12489h0Z" style="fill: #231f20;"/>
    <path d="M403.58121,220.03081c2.12741-.57427,4.18938-1.34631,6.11084-2.40859.45824-.20703.9822-.25828,1.42776-.24742,2.77097.18995,5.26999.98218,7.81687,1.65287,8.77349,2.32396,17.53909,5.50171,26.68406,4.93452,1.67828-.04024,2.54378,1.74193,3.48786,2.80052,1.59224,2.03224,3.34663,3.88502,5.49995,5.2877,2.11914,1.44409,4.56152,2.41266,7.104,3.07825-2.61914-.22824-5.23486-.95905-7.60889-2.2359-3.0009-1.53709-5.30204-4.09492-7.48529-6.55311-.28568-.26204-.6494-.69935-.92827-.62775-10.6867,1.05117-20.97909-3.25727-30.9263-6.42882-1.55-.42411-3.13473-1.11883-4.69577-.90066-2.05609.88561-4.27021,1.42383-6.48682,1.6484h0Z" style="fill: #231f20;"/>
    <path d="M383.63541,197.09825c2.72109-2.01215,6.49344-3.92051,9.94136-3.14683-3.46375.66137-6.48632,2.33332-9.94136,3.14683h0Z" style="fill: #231f20;"/>
    <path d="M383.64127,192.73189c6.58696-.80649,13.06261-.33666,19.62109.10935,3.29281.08961,6.51839-.59093,9.78858-.85631,3.30371-.2567,6.64307-.15492,9.9541.22575,6.61988.71236,13.01697,3.02858,18.91648,5.99709,5.87685,2.90212,11.56349,6.015,17.96831,7.5807.11299.02331.08651.21428-.03423.1971-13.09552-1.47783-24.05015-10.31388-37.10505-11.87243-6.42705-.8785-12.98538-.68886-19.47451-.62794-6.55083.70164-13.14843.93251-19.64649-.55385-.10648-.01853-.09965-.19313.01172-.19946h0Z" style="fill: #231f20;"/>
    <path d="M453.16617,180.13121c-7.7486.04466-15.32521-1.53862-22.73189-3.64455-5.01815-1.23119-10.18047-1.57579-15.09429-3.34621-1.24267-.47351-2.47607-.91205-3.7246-1.87311-.47949-.36069-.83936-.63977-1.35205-.85921-5.16194-1.80221-10.98936.36036-16.13087,1.80169-.10351.04462-.18985-.12018-.0881-.1793,2.18918-1.38438,4.55246-2.48327,7.04563-3.29089,3.63827-1.15443,8.72122-1.99448,11.89893.96002,2.85474,2.09608,6.77693,2.987,10.16252,4.25102,7.27208,2.62731,15.09825,2.40293,22.56648,4.1717,2.50097.52684,4.99902,1.07693,7.47558,1.81073.107.02548.08545.20261-.02734.19812h0Z" style="fill: #231f20;"/>
    <path d="M432.64713,109.20789c-3.17026,8.37182-5.36258,17.1147-6.22661,26.02727-.17818,1.27252-.18599,2.55381-.33296,3.83839-.73469-10.27179,1.6306-20.83067,6.55957-29.86566h0Z" style="fill: #808285;"/>
    <path d="M470.31021,147.89639c-3.55523,3.96139-7.5932,7.72879-10.1349,12.35696-2.27934,6.63636-2.68559,14.13897-2.87939,21.17714-.27921,1.83034.59104,3.29375,1.22815,4.95338,1.68049,4.18293,3.73478,8.46118,4.4615,13.0577.101.9735.18303,1.98931-.13874,3.12801-.52844,1.8755-2.11337,2.86604-2.28667,4.6206-.0574.78801.17559,1.76765.47417,2.62803.14239.37435.2815.84373.28269,1.2385-.32348,5.12698-7.89375,10.50676-11.75661,13.37387-.09861.0711-.2171-.08334-.12081-.15975,2.7368-2.36259,5.36522-4.87712,7.64354-7.62205,1.28944-1.7749,3.21406-3.86921,2.59297-6.06511-.50857-1.07282-.96256-2.11666-.98799-3.44392-.14926-1.89819,1.58075-3.63773,2.10945-5.18217.37111-1.43502-.05134-3.28136-.38138-4.79971-.83842-3.41995-2.17631-6.78961-3.3062-10.2557-.52702-1.73174-1.27742-3.76991-.789-5.56689.80556-5.3926.7348-10.86299,1.08043-16.303.14959-1.86803.33258-3.84104,1.15971-5.56496.90335-1.74869,2.07376-3.20008,3.32034-4.56421,2.49805-2.71742,5.29639-5.0807,8.2998-7.15967.09412-.07054.21247.07257.12891.15295h0Z" style="fill: #231f20;"/>
    <path d="M446.98453,244.997c4.17244-1.16665,8.82482-1.746,12.23398-4.44671,3.46055-5.4883,5.94911-11.66228,7.84567-17.8749,2.511-8.03555,5.41398-16.02329,9.79773-23.25532,1.54158-2.31939,3.15622-5.07377,5.39786-6.64799-4.24106,6.77407-7.42094,15.28871-10.75963,22.63954-2.13619,5.15267-4.76151,10.13509-6.60741,15.41204-.94629,2.63663-1.66064,5.34869-2.7168,7.99689-.46293,1.05847-.86784,2.08073-1.68406,2.99735-1.4114,1.31595-3.30829,1.97307-5.04591,2.4488-2.78761.71312-5.61329,1.01204-8.44386.92952-.11415-.00085-.13026-.17711-.01758-.19922h0Z" style="fill: #231f20;"/>
    <path d="M288.38534,168.03256c-.63998.15999-2.55991.63998-2.8799,1.11996s.63998,8.15972.79997,8.7997,1.59995,5.27982,2.07993,5.27982h2.39992" style="fill: #fff; stroke: #231f20; stroke-linecap: round; stroke-linejoin: round; stroke-width: 2px;"/>
    <path d="M351.42325,172.84892c7.26756-1.72987,14.77094-1.91486,22.18578-1.21703-7.17354,2.05625-14.81901,2.22802-22.18578,1.21703h0Z" style="fill: #bcbec0;"/>
    <path d="M362.51627,181.15212c5.30679-2.19337,11.03901-2.8628,16.74607-2.72001-5.12997,2.55857-11.07742,3.24288-16.74607,2.72001h0Z" style="fill: #bcbec0;"/>
    <path d="M370.88931,186.75194c3.55255-1.8772,7.55251-1.78014,11.41285-1.91978-.24318.52113-.78517.75578-1.2129,1.01954-3.15847,1.47956-6.82264,1.82842-10.19995.90024h0Z" style="fill: #bcbec0;"/>
    <path d="M376.59561,191.20232c1.43307-1.71164,3.54822-2.23925,5.70651-1.4106-1.28921,1.79395-3.72564,2.32459-5.70651,1.4106h0Z" style="fill: #bcbec0;"/>
    <path d="M305.98474,191.33844c-.63998.42665-10.02633-1.70661-11.94626-2.55991s-3.83987-11.73293-4.69317-15.5728c-.8533-3.83987,1.06663-7.03976,1.06663-7.03976,0,0,.42665-2.55991,2.34659-3.41322s31.78559-11.09296,50.77161-10.87963c0,0-5.03557,5.7598-4.27772,16.15945" style="fill: #9cbfe3; stroke: #231f20; stroke-linecap: round; stroke-linejoin: round; stroke-width: 2px;"/>
    <g>
      <path d="M453.17974,249.14981c-19.19935-6.71977-46.39842-26.87909-49.59832-29.11901-3.19989-2.23992-13.75953-14.7195-13.75953-14.7195,0,0-16.95942-17.27941-35.1988-28.79902-18.23938-11.51961-34.55883-11.51961-42.87854-3.66336-8.31972,7.85625-3.83987,22.22273-2.8799,24.78264.95997,2.55991,33.59886,40.31863,39.99864,47.67838,6.39978,7.35975,27.19908,19.83933,38.3987,27.83905,11.19962,7.99973,26.23911,29.75899,26.23911,29.75899,0,0,53.90499,62.07789,78.73436,75.51744" style="fill: #fff;"/>
      <path d="M453.14664,249.24419c-18.41299-6.65226-34.70245-17.81846-50.61394-29.05246-4.82425-4.31575-9.22302-9.6193-13.31705-14.2856-11.91674-11.52054-24.61149-22.6328-38.89603-31.11971-9.42453-5.22426-20.94738-9.15277-31.59633-5.67015-8.73013,2.88842-12.46622,10.58172-11.49686,19.44011.28137,3.06148.92689,6.15761,1.99804,9.0355,1.28505,2.02364,2.90921,3.85805,4.40137,5.74051,8.88314,10.73008,18.10002,21.1816,27.24707,31.68914,1.86738,2.13886,6.4715,7.37432,8.27419,9.42138,4.65994,5.08945,10.55478,8.81178,16.19769,12.80289,8.03341,5.56718,16.45317,10.5756,24.30046,16.43692,5.48185,4.45028,10.13477,9.82644,14.57513,15.23387,3.42715,4.22292,7.19985,9.19816,10.05469,13.31945,18.07324,20.46419,36.50875,40.72793,56.56189,59.28516,6.74309,6.08625,13.58146,12.2059,21.44586,16.81634.11293.05487.01659.24016-.0952.1758-15.86593-9.13264-28.8843-22.39037-41.98751-34.99442-12.94261-12.93257-25.47838-26.24501-37.53299-40.01467-6.40958-8.97822-13.29555-17.84641-21.23088-25.51172-3.97019-3.84654-8.71571-6.73807-13.26347-9.86585-9.2406-6.30875-18.78663-12.14564-27.22836-19.59186-1.90716-1.60589-4.03784-4.36417-5.69437-6.24596-8.97075-10.55505-18.11207-21.32875-26.9032-32.01215-2.66474-3.40613-7.41093-8.74696-9.73736-12.38106-1.98273-5.62988-2.82067-11.82546-1.4261-17.69297,2.86023-12.03855,17.47552-14.97992,28.02993-12.52591,11.09609,2.19408,20.89076,8.45675,29.87227,15.05832,11.54026,8.68446,22.51972,18.20072,31.74407,29.35873,2.13758,2.34763,4.3107,4.83574,6.68317,6.90102,5.14456,3.7869,10.47366,7.58246,15.82718,11.19168,10.78485,7.12454,21.79887,14.12674,33.87251,18.86902.12023.03845.05308.23213-.06587.18866h0Z" style="fill: #231f20;"/>
    </g>
    <path d="M330.45401,212.46202c5.53933-1.97905,8.41338-8.06062,10.57605-13.14079,1.43105-3.68261,3.10966-7.65242,2.84558-11.63609-2.19201-5.07581-5.85443-9.42867-9.38337-13.64391-1.25582-1.50828-2.65854-2.75772-4.66897-3.05661-5.61265-1.21006-11.8318.94209-15.22302,5.60299-4.476,5.79966-6.43279,14.9456-2.50681,21.16416,4.27,4.12781,8.51925,8.33739,13.20474,12.00559,1.57832,1.04694,3.19836,2.60771,5.1558,2.70467h0ZM330.47379,212.56008c-2.01723-.03837-3.66941-1.5947-5.30573-2.62532-4.8647-3.47841-9.40126-7.38393-13.77217-11.46326-4.56039-6.99728-2.31198-16.23225,2.50583-22.43945,4.1923-5.48776,12.62503-7.61888,18.75159-4.28925,2.17255,1.9871,3.98049,4.28756,5.83542,6.55678,2.12188,2.67934,4.31017,5.36164,5.86817,8.42862.20354.43439.43878,1.0821.43815,1.5554-.13973,7.53355-6.74519,21.91962-14.32125,24.27648h0Z" style="fill: #808285;"/>
    <path d="M373.60904,215.39015c-1.16618,5.73584-2.78559,11.38664-5.26653,16.71365-2.64445,5.27502-6.49921,9.80516-10.73265,13.84618.91837-1.13557,1.84147-2.26017,2.71403-3.42506,2.62984-3.43171,5.22677-6.96198,7.11872-10.85598,2.47828-5.23289,4.27098-10.79514,6.16644-16.27879h0Z" style="fill: #9f949a;"/>
    <path d="M353.44254,239.53981c1.46049-4.43517,3.86986-8.72802,7.46642-11.78149-2.54379,3.96176-4.75221,7.92918-7.46642,11.78149h0Z" style="fill: #9f949a;"/>
    <path d="M357.17569,225.42198c1.6715-1.68815,3.29857-3.38348,4.60671-5.34074,1.32261-1.98436,1.78975-4.39894,3.34313-6.26688.942-1.30842,2.03478-2.49653,3.24987-3.53853-1.80478,2.60523-3.55971,5.172-4.59011,8.18236-1.33041,3.04458-3.86793,5.26435-6.6096,6.96379h0Z" style="fill: #9f949a;"/>
    <path d="M350.28995,231.44844c-.79685-4.34506.65082-9.55021,4.47965-12.05295-2.752,3.50487-3.8215,7.68511-4.47965,12.05295h0Z" style="fill: #9f949a;"/>
    <path d="M301.66495,174.91232c2.1708-1.12938,4.84009-.85293,6.71974.71987-2.17028,1.13913-4.83708.84383-6.71974-.71987h0Z" style="fill: #4e74b2;"/>
    <path d="M297.8251,181.15212c2.69971-1.08601,5.91243-.67427,8.3196.95979-2.7724,1.08742-5.83182.65664-8.3196-.95979h0Z" style="fill: #4e74b2;"/>
    <path d="M301.66495,186.75194c1.47497-1.09396,3.47823-.74491,4.47974.79992-1.47441,1.10283-3.47438.73685-4.47974-.79992h0Z" style="fill: #4e74b2;"/>
    <path d="M30.92545,365.9536c-.97139-10.31757-1.62696-20.68566-1.40703-31.06082.10796-3.47049.24297-6.9288.9356-10.43387.86914-3.49872,2.46582-6.63892,4.15894-9.68161,7.0067-11.99217,15.84269-22.93522,26.10653-32.29438,2.58428-2.32233,5.56389-4.22697,8.49701-6.0878,11.69204-7.36087,23.69544-14.19138,35.47456-21.38931,2.46293-1.50195,5.7466-4.57456,8.04854-6.42844.00007-.00015,7.88605-6.70559,7.88605-6.70559,9.31799-7.94729,22.20531-19.21766,31.66116-26.72502,3.76076-2.93871,7.46112-6.04441,11.60223-8.48632,5.1451-1.80873,9.34161-5.90304,13.44657-9.51596,7.76341-6.86757,14.65113-14.8177,23.29102-20.65368,5.62207-4.03493,11.28418-7.98681,17.11694-11.74585,2.15452-1.4207,4.45046-2.67574,6.84307-3.76126,3.76031-2.14378,7.67902-4.3447,12.01628-5.24413,7.17747-1.74946,14.32191,1.35573,18.68591,7.16168.08369.09388-.07097.22417-.15173.12988-4.46979-5.1215-11.55554-7.90178-18.2054-5.88408-4.04352,1.00106-7.85836,3.25529-11.42809,5.45409-8.37439,4.29774-15.94061,10.1682-23.6591,15.57161-8.22754,5.60928-15.68236,13.96238-23.18451,20.4487-3.62935,3.11346-7.218,6.52704-11.54797,8.7382-.36485.18874-.95797.35976-1.36147.4789-1.45772.54661-2.85207,1.5906-4.17038,2.46676-16.63677,12.09649-32.527,25.66842-48.40635,38.7892-2.3264,1.84749-5.62152,4.87419-8.16043,6.42463-.00007-.00005-17.63972,10.84828-17.63972,10.84828-7.2924,4.59474-14.60949,9.14765-21.65456,14.0969-9.4293,7.37005-17.02462,16.9221-24.12492,26.49228-3.83235,5.53016-7.85988,11.35727-9.68574,17.84476-1.34789,6.62868-1.30773,13.66675-1.33712,20.45663.00351,6.89046.23618,13.78755.55356,20.6801.01415.12296-.19279.14188-.19946.0155h0Z" style="fill: #231f20;"/>
    <path d="M96.61124,306.92247c7.48901-11.48846,15.24414-22.79739,23.18848-33.98178,6.12613-8.32373,11.9558-16.82494,19.04819-24.41254,6.26922-6.28897,13.57252-11.45611,20.40826-17.04269,8.36413-12.51217,15.37119-25.95285,24.44156-38.02065,1.34667-1.6751,2.68252-3.46462,4.49062-4.71395,4.16185-2.32741,8.70957-3.85067,13.41092-4.68505.00001.00004.03908-.00357.03908-.00357l.01196-.00006,5.4397-.03241-.32275.16861c2.28357-3.01524,4.25345-6.48644,7.51006-8.57186,2.53714-1.0156,5.21005-1.55544,7.89887-1.94774,2.15772-.26863,4.32301-.42273,6.58033-.08105,2.26587.46124,4.2146,1.52029,6.07056,2.6832,2.73506,1.91419,7.12771,5.05594,7.01046,8.80634-.10338.54964-.03368.75972.31788,1.37515,1.2605,1.92618,1.37569,4.47779,1.19138,6.68947-.65329,6.5511-2.62714,12.654-4.59117,18.83929-.68856,2.02668-1.28744,4.06913-2.21151,6.12703-1.81462,4.04066-4.89362,7.46395-8.30254,10.19323-9.89237,7.49128-9.49995,9.25778-10.97022,20.90745-2.58438,21.058-5.04369,42.5806-8.97236,63.41547-1.61164,8.38869-3.44793,16.77213-6.21578,24.86408-.03665.12114-.23216.05542-.18973-.06326,2.49609-8.16035,3.95922-16.58223,5.38744-24.98085,3.39082-20.89007,5.48342-42.43939,7.97192-63.48671.67703-4.28313.69424-8.82636,2.51374-12.84643,1.0036-2.08779,2.53705-3.84139,4.16376-5.31548,11.91457-9.57923,12.40987-10.90659,16.88725-25.5055,1.18722-4.05629,2.32979-8.17714,2.7358-12.29494.16032-1.99759.2214-3.95979-.86792-5.71032-.44197-.64214-.66455-1.64641-.48726-2.43475.07027-1.22982-.76215-2.26247-1.55052-3.28098-1.3067-1.5478-2.92633-2.8958-4.63922-4.05755-5.22485-4.06747-11.8957-3.04968-17.87044-1.45809-2.08089.39761-3.45937,2.02666-4.80703,3.57393-1.37796,1.60091-2.67752,3.29317-3.918,5.01012-.07507.11047-.19946.16814-.323.16879l-5.4397-.03244.05103-.0036c-4.5685.7725-9.11358,2.25588-13.18873,4.49508-1.73856,1.17659-3.00336,2.92944-4.30568,4.57993-7.19433,9.4903-15.32494,24.64824-21.47206,35.00704-.95089,1.48676-1.71492,3.19673-3.08183,4.36857-6.64599,5.41959-13.47046,10.53291-19.56169,16.57128-7.02087,7.36753-12.95827,15.86789-19.10327,24.0039-4.09558,5.4897-8.13855,11.02171-12.14929,16.57756l-12.06226,16.65164c-.0672.10367-.23853-.01005-.16528-.11292h0Z" style="fill: #231f20;"/>
    <path d="M239.45621,187.31963c-5.30291,17.96735-9.4152-7.97086-29.04935-2.07905-.38224.04265-.64723-.15148-.9929-.39987-.11668-.10586-.32542-.33251-.28807-.68841.21961-.69842.69455-.92191,1.08267-1.44464,1.61207-1.75117,3.42825-3.63473,5.13977-5.2661.04182-.04508.11433.00986.07908.06138-1.62545,2.26298-3.57977,4.51962-5.2681,6.72978-.0698.08672-.06296.12432-.04831.02135.00708-.14566-.05762-.18832-.02759-.16245.04248.04007.22534.12671.35156.1611l-.32446.01157c4.33011-1.44566,9.24116-1.15064,13.19483,1.11462,2.25433,1.28445,5.21033,3.46367,7.39189,4.91284,1.50707.92081,2.89079,2.20052,4.52456,2.69031.91922-.08951,1.47604-1.12554,2.03746-1.85285.78999-1.20363,1.45308-2.52052,2.10273-3.84285.02007-.05548.11181-.02289.09424.03326h0Z" style="fill: #6d6e71;"/>
    <path d="M286.60098,182.11208c-1.45559,6.02725-5.3031,11.15134-8.88146,16.07508-3.7514,4.85489-7.74117,9.49663-12.24304,13.68394,6.38433-10.41365,14.99667-19.20555,21.12449-29.75902h0Z" style="fill: #231f20;"/>
    <path d="M223.76651,275.97441c9.64312-16.34291,20.02723-32.83334,31.27983-48.12802,3.66231-5.22263,7.01265-10.65604,10.56782-15.97452,6.09963-9.25782,13.09034-15.639,24.70392-11.01123,6.9121,2.62976,10.46593,9.35631,8.58615,16.51205-.7031,3.20414-2.29021,6.06956-3.64506,9.00156-2.74536,5.76538-5.6189,11.4635-8.56812,17.1232-.05619.11142-.23277.02556-.17993-.08721,0,.00002,7.70874-17.50819,7.70874-17.50819,1.24766-2.87504,2.54565-5.77445,3.09664-8.85371,2.22375-10.33156-7.36453-16.3767-16.64389-15.61118-7.42034,1.16436-12.72831,9.2481-17.03805,14.89293-5.44265,7.4104-10.42848,16.47613-15.49075,24.16191-4.34254,6.62012-8.80814,13.35133-13.26329,19.88789-.00001,0-5.41237,7.891-5.41237,7.891-1.84521,2.60361-3.65186,5.2326-5.53394,7.81247-.06582.09997-.23379-.00554-.16772-.10895h0Z" style="fill: #231f20;"/>
    <path d="M226.57339,322.39696c6.3447-7.49947,12.92563-14.98231,18.31428-23.17706,7.78661-12.53767,15.02256-25.78225,24.8656-36.90127,3.9538-4.68537,6.57756-10.45548,10.36855-15.34419,5.01274-4.48732,15.1459-7.83981,21.02794-3.37828,5.02898,4.48416,4.07716,12.12869,2.94231,18.05656-2.74489,14.77345-10.9112,27.86765-18.16823,40.65094-4.85831,8.59279-8.39691,17.86117-13.12889,26.53781-4.77476,8.67768-9.56656,17.56504-14.65347,25.91944,6.13549-13.40012,13.71512-26.37765,19.46689-40.04966,5.45259-13.79554,14.66771-25.92703,20.41436-39.45433,3.13972-7.94429,11.21833-28.87755-.57827-32.53934-4.67167-1.27161-9.79577.32873-13.96997,2.55049-2.26766,1.11887-3.74934,2.95449-4.98717,5.11679-3.21002,5.28887-6.04355,10.84463-10.22825,15.48548-7.1149,9.92427-15.42108,23.8738-22.07164,34.19343-2.80741,4.15883-6.04935,7.91268-9.29666,11.65331-3.27734,3.71426-6.6709,7.31839-10.17139,10.81665-.08101.0884-.23314-.04443-.146-.13675h0Z" style="fill: #231f20;"/>
    <path d="M242.84022,181.6321s17.27941-22.29258,20.05265-23.99919c2.77324-1.70661,10.02633-5.33315,17.27941,0,7.25309,5.33315,7.94064,7.67974,7.94064,7.67974" style="fill: none; stroke: #231f20; stroke-linecap: round; stroke-linejoin: round; stroke-width: 2px;"/>
    <path d="M191.10855,191.20232c4.51614-.4626,8.91912-.18826,13.4397-.00004-4.36556,1.19545-9.03561.90342-13.4397.00004h0Z" style="fill: #6d6e71;"/>
    <path d="M197.82852,187.5519c4.45372-.1601,9.24465-.71688,13.43949,1.10384-4.47299-.46052-9.06224.10764-13.43949-1.10384h0Z" style="fill: #6d6e71;"/>
    <path d="M245.6669,203.39137c3.76711-.04008,7.48391,2.18153,9.54619,5.27972-3.04303-2.07409-6.10079-3.94519-9.54619-5.27972h0Z" style="fill: #6d6e71;"/>
    <path d="M252.86661,248.02983c4.11151.85133,7.8527,3.4101,10.39973,6.71968-3.49191-2.28043-6.79901-4.57317-10.39973-6.71968h0Z" style="fill: #6d6e71;"/>
    <path d="M260.06631,292.82833c5.30148,1.41621,11.31314,3.86279,14.39959,8.63946-4.16415-3.8356-9.51854-5.88408-14.39959-8.63946h0Z" style="fill: #6d6e71;"/>
    <path d="M220.70767,297.14818c4.84175-.64256,12.47185,3.50945,12.95949,8.79956-1.6305-3.90989-5.37866-6.02688-9.05687-7.62378-1.26079-.46049-2.55024-1.13582-3.90262-1.17578h0Z" style="fill: #6d6e71;"/>
    <path d="M238.94693,328.34712c4.8144-1.68527,10.75477.60688,13.08269,5.22323.32698.64142.58869,1.31461.83698,1.97651-.45215-.56274-.79321-1.17575-1.24731-1.70837-2.92484-3.95737-7.818-5.81364-12.67236-5.49136h0Z" style="fill: #6d6e71;"/>
    <path d="M233.66714,333.14696c4.50579,6.24662,9.42863,13.15421,17.11928,15.5196-8.12736-.94875-13.88415-8.57894-17.11928-15.5196h0Z" style="fill: #6d6e71;"/>
    <path d="M214.30777,300.02809c2.36702,5.93097,5.81957,12.27597,12.33864,14.23947-7.04482-.54488-11.38305-7.84039-12.33864-14.23947h0Z" style="fill: #6d6e71;"/>
    <path d="M393.57681,138.11357c1.89895,3.69897,3.61239,8.07084,2.96514,12.27301-.74352-4.11064-2.3602-8.11295-2.96514-12.27301h0Z" style="fill: #6d6e71;"/>
    <path d="M390.46182,141.64705c-.26493,4.06902-.80922,8.3706,1.06652,12.14601-3.15843-3.03784-2.73838-8.43641-1.06652-12.14601h0Z" style="fill: #6d6e71;"/>
    <path d="M407.42105,156.67294c.87068,2.3298,1.57956,5.69748.00021,7.83977.22824-2.59333-.4999-5.2499-.00021-7.83977h0Z" style="fill: #6d6e71;"/>
    <path d="M402.7814,156.67294c-1.59088,2.16951-1.02379,4.60518-.79975,7.03977-1.69926-1.9386-1.9487-5.927.79975-7.03977h0Z" style="fill: #6d6e71;"/>
    <path d="M408.5817,178.91219c1.99041.54117,3.47564,3.41989,1.81835,5.03986.13135-2.00732-.84501-3.30837-1.81835-5.03986h0Z" style="fill: #6d6e71;"/>
    <path d="M404.15982,177.55223c-.01562,3.17573.1715,6.08087,1.01375,9.11968-2.14709-2.41507-2.42775-6.27073-1.01375-9.11968h0Z" style="fill: #6d6e71;"/>
    <path d="M407.42105,204.19133c-.1367,3.09064-.77895,6.03864.42673,8.95969-2.51006-2.18851-1.95693-6.34281-.42673-8.95969h0Z" style="fill: #6d6e71;"/>
    <path d="M411.10123,201.79143c2.2253,3.1523,3.55799,7.78475,1.60026,11.35958.54889-3.83347-.68167-7.67827-1.60026-11.35958h0Z" style="fill: #6d6e71;"/>
  </g>
</svg>
