<?xml version="1.0" encoding="UTF-8"?>
<svg xmlns="http://www.w3.org/2000/svg" viewBox="0 0 680.34743 448.37557">
  <rect width="680.34743" height="448.37557" style="fill: #fff;"/>
  <g id="Step_2-_prepare_finger" data-name="Step 2- prepare finger">
    <path d="M351.99529,124.79756c8.6925-7.69282,17.75835-15.07427,28.01306-20.61421,1.70251-.89407,3.64854-1.72835,5.54768-2.16052,1.96197-.42893,3.8897-.54923,5.82623-.726,13.55047-.89183,27.04977-1.2057,40.6167-.75899,9.61283,1.21511,19.0626,3.12072,28.66114,4.24245,3.83316.48934,7.61822.77688,11.49316.78612,7.72659.13253,15.444.47203,23.14623,1.11416,5.26967.53694,10.73778.85174,15.73881,2.75721.2167.08491.81065.39188,1.02123.48417,1.72573,1.23502,3.21861,2.64876,4.76119,4.01347,19.21224,18.11433,38.73448,38.40765,57.51697,57.08725,4.69962,4.5663,11.60894,11.77134,16.86704,15.65646,18.14905,14.19867,35.19942,30.33484,56.05712,40.4324,6.96055,3.34896,14.21263,6.50143,21.12249,9.70592-7.22919-2.43622-14.42517-5.78942-21.54002-8.78472-7.17495-2.96899-13.80825-7.13641-20.18057-11.49603-14.33061-9.88574-27.77025-20.99463-41.28081-31.9223-19.13361-17.96145-46.31006-47.21634-65.02729-66.00328-2.56259-2.40081-5.90385-6.0114-8.67953-8.05179-1.56216-.83999-3.28523-1.28342-5.01312-1.67834-11.3127-2.20505-23.0045-2.33845-34.51755-2.49261-3.84654.09079-7.76738-.10782-11.60547-.50109-9.59282-.90347-19.14211-2.47834-28.66991-3.65256-13.10774-.22996-27.3137-.18469-40.37155.592-2.37387.1791-4.72936.33598-6.98907.93556-1.13403.42372-2.79897,1.00945-3.91733,1.6055-10.23944,5.24332-19.47979,12.40236-28.45557,19.57105-.08425.09936-.2441-.05477-.14125-.14125h0Z" style="fill: #231f20;"/>
    <path d="M393.09783,148.43596c4.70517-5.16967,11.467-2.39504,17.17235-.98155,5.76697,1.02577,11.7053,1.00604,17.52343,1.50567,3.82263.17911,7.73394.70241,11.4329-.53474.09793-.0514.19876.10221.10568.16976-1.58738,1.30366-3.66477,1.85865-5.63963,2.17657-5.94989.88376-11.96364-.10895-17.74391-1.50793-3.82148-1.06534-7.74195-1.42443-11.67604-1.66157-1.43681-.12655-2.86422-.41799-4.2761-.54072-2.29329-.0712-4.63232.44683-6.76441,1.52284-.08639.06691-.21542-.0645-.13427-.14833h0Z" style="fill: #231f20;"/>
    <path d="M399.48577,171.72936c3.40096-.64288,6.82403-.81723,10.25976-.62718,3.40748.43564,6.81559.81049,10.24708.3084,3.36706-.36046,6.87124-.7164,10.24804-.75182,3.41389.16453,7.14454.25502,10.33918,1.32826-3.36949.67665-6.93622.63631-10.32598.80504-3.34181.02915-6.84498.15505-10.25587-.28635-1.71216-.18115-3.42139-.2829-5.13159-.22061-3.41146.26506-6.82693.78915-10.26246.37953-1.70849-.14273-3.4165-.33058-5.12085-.73529-.10032-.02015-.10405-.18296.00269-.19998h0Z" style="fill: #231f20;"/>
    <path d="M387.61957,189.71501c.86312.21284,9.88273-9.04233,17.81122-11.78681,7.92849-2.74448,21.04101-6.09884,21.04101-6.09884" style="fill: none; stroke: #231f20; stroke-linecap: round; stroke-linejoin: round; stroke-width: 2px;"/>
    <path d="M32.08196,379.50267c-.70733-7.35208-1.18751-14.72433-1.35209-22.11148.0167-6.46374-.37613-13.18219,1.48786-19.45937,2.94455-7.8996,7.98564-14.75317,13.00475-21.42397,4.54723-5.85952,9.48082-11.41992,15.01549-16.42715,5.5994-4.89398,12.24992-8.39946,18.52069-12.31846,3.76213-2.24825,20.50249-12.11481,23.76791-14.15319,2.97885-1.89538,10.67989-7.20267,13.75936-9.26464,14.53469-9.71574,31.28838-21.68493,46.18372-30.55639,1.27022-.69773,2.45391-1.42461,3.84449-1.942,2.13123-.65605,4.13734-1.70172,6.17408-2.76543,6.469-3.45509,12.80055-7.24248,19.08668-11.07475,6.20494-3.84041,12.57851-7.73854,18.51347-11.91214,3.0295-2.2893,6.24361-4.1347,9.42281-6.02557,6.40575-3.71829,12.83823-7.33027,19.44651-10.68763,1.22195-.62687,2.58367-1.25164,3.82601-1.77389,1.99191-.97855,3.86189-2.36155,5.93599-3.37714,4.12612-2.22116,9.26581-3.52287,13.95824-1.99431,6.16041,2.31143,11.26942,8.33727,11.99577,14.97321.3913,3.84215-.64967,7.74838-2.83535,10.90396-.00003,0-12.40701,11.05645-12.40701,11.05645-.0912.0881-.22922-.06413-.13573-.14683-.00001.00001,11.98827-11.50908,11.98827-11.50908,1.5899-2.6368,2.85373-6.77301,2.26982-10.17612-.7036-6.14973-6.55095-12.66279-12.62518-13.88987-5.81907-1.2004-11.27658,2.12201-16.07749,5.19315-8.24492,4.05845-16.35843,8.54278-24.29174,13.21007-6.47723,3.64054-12.20264,8.30343-18.50247,12.06519-11.11309,6.69225-21.97016,13.85536-33.8941,19.09289-1.915.53849-3.22574,1.27064-4.90104,2.18538-19.08772,11.13711-37.47649,23.50345-55.77379,35.89363-9.08241,6.22495-18.8506,11.73296-28.07548,17.73333-6.11269,4.0095-12.54158,7.68619-18.04878,12.51918-5.38004,4.93126-10.19181,10.51826-14.78214,16.23219-4.98541,6.47957-9.99313,13.19407-12.96763,20.84544-1.93691,6.08355-1.68632,12.62857-1.85973,18.96676-.03958,7.36212.1799,14.73617.52731,22.10308.01404.12286-.19294.14157-.19946.0155h0Z" style="fill: #231f20;"/>
    <path d="M118.0927,332.17244c12.19683-18.37796,24.37283-36.87772,38.51343-53.8464,6.28647-6.96937,14.24057-12.24676,21.32367-18.26545,7.85816-11.89687,14.57312-24.57298,23.14778-36.0151,1.51582-1.8954,3.1079-4.05478,5.3801-5.09444,3.67772-1.86885,7.61077-3.15829,11.68751-3.87223,0,.00002.03882-.00358.03882-.00358l.01245-.00003,5.18384-.03238-.32275.16861c2.10724-2.83391,3.99196-5.97379,6.92368-8.05105,2.35144-1.06298,4.85498-1.51767,7.37098-1.93289,4.10854-.7303,8.41005-.34794,11.89862,2.05792,2.9459,1.96829,6.49012,4.36675,7.29009,8.08169.06961.4332-.10037.89242.01659,1.32472.20975.63451.90921,1.52248,1.38504,2.44878,1.51508,2.77655,1.79004,6.11,1.62621,9.16574-.35263,6.06662-2.01985,11.95646-3.83369,17.69541-1.18167,3.78634-2.71219,7.68539-4.92801,11.11386-2.15601,3.49249-5.0354,6.37469-6.98511,9.62857-2.04953,3.23919-2.70138,7.20184-3.07044,10.96095-1.89219,19.79004-3.06807,39.70593-6.29923,59.35378-1.29148,7.73964-2.95901,15.83115-5.48808,23.2562-.03255.12393-.23379.06234-.19107-.05849,2.29873-7.61871,3.50922-15.49681,4.63036-23.35459,2.68257-19.72002,3.46361-39.60538,5.31386-59.41728.3706-4.05548,1.11894-8.30501,3.31026-11.8086,2.09122-3.47944,4.88117-6.32291,7.00183-9.69865,2.13504-3.25495,3.58011-6.81437,4.8052-10.60139,2.31372-7.70615,6.52673-19.38847,1.87431-26.68087-.40645-.65667-.99318-1.66668-.84376-2.59224.10337-.59087-.01658-1.11313-.32257-1.70096-1.35033-2.45331-3.73181-4.32288-6.06804-5.86882-1.6204-1.01465-3.38432-1.94983-5.17631-2.21139-1.88477-.24475-3.85254-.15973-5.79102.07336-2.37211.31767-4.86097.73826-7.05983,1.65949-2.75076,1.9388-4.69712,4.95569-6.74424,7.60577-.07501.1105-.19924.16821-.32288.16885l-5.18384-.03235.05078-.00363c-3.96497.66151-7.89469,1.91189-11.50489,3.71544-2.25505,1.01097-3.66024,3.0319-5.15553,4.92771-6.85763,9.03497-14.59598,23.49796-20.44789,33.36696-.89301,1.39942-1.66769,3.08895-2.94123,4.17333-6.92851,5.67824-14.15154,10.97753-20.28878,17.52608-10.09323,11.72174-18.95854,24.4779-28.14012,36.9253.00017.00013-11.51106,15.85725-11.51106,15.85725-.06741.10365-.23787-.01038-.16504-.11295h0Z" style="fill: #231f20;"/>
    <path d="M226.41228,215.6942c2.59054-1.20859,5.61963-1.48977,8.41528-.89162,5.41362,1.52729,9.93868,5.54337,14.57422,8.37796.38703.17663.69536.41431,1.05053.26941.6882-.3128,1.15355-.99162,1.62039-1.65832.81097-1.10715,1.38704-2.51223,2.12634-3.65188-.32095,1.76238-1.87572,6.42069-4.10426,6.3735-1.88939-.37595-3.24554-1.8179-4.68645-2.86476.00005-.00009-3.25825-2.65591-3.25825-2.65591-2.13097-1.78849-4.68814-3.11967-7.4766-3.37185-2.70309-.40595-5.467-.35831-8.22604.16711-.05504.01827-.08882-.06857-.03516-.09363h0Z" style="fill: #6d6e71;"/>
    <path d="M273.32244,204.76311c.57274-2.74321,3.4505-5.89248,6.44865-5.46168-1.92364,2.19256-3.64005,4.38529-6.44865,5.46168h0Z" style="fill: #231f20;"/>
    <path d="M302.45525,220.14348c-1.14761,4.00856-3.28848,7.65245-5.40791,11.21056-5.23575,8.92099-12.74534,16.38943-19.8554,23.81049-13.0735,13.18661-25.36682,27.05316-38.85175,39.85199-.08059.08566-.22667-.04099-.14933-.13313,7.59-9.8201,15.87737-19.05245,24.7739-27.69393,5.74774-5.92491,12.56674-10.7509,18.03206-16.9506,5.33187-6.25922,9.94266-13.07851,14.75324-19.73267,2.28123-3.39998,4.71007-6.74138,6.51553-10.42595.0387-.10994.22624-.05301.18965.06323h0Z" style="fill: #231f20;"/>
    <path d="M240.23894,296.47539c7.63619-7.72026,15.89417-14.91125,23.66316-22.43849,4.01604-3.78084,8.26433-7.15227,12.32-10.79811,2.98825-2.74065,6.09964-5.43862,8.74761-8.50215,2.55388-3.21933,4.75297-6.69511,7.82906-9.53685,2.10262-1.9281,4.56293-3.69362,7.51268-4.10025,8.46855-.6952,17.92918,5.87145,18.69785,14.65464.53589,5.78688-2.54296,10.99016-5.85613,15.45685-1.66574,2.17715-3.31477,4.48173-5.7242,5.91532-.13256.05971-.20244-.12752-.07893-.18386,2.0986-1.63373,3.5232-4.07742,4.96488-6.29748,4.26143-6.41576,7.50307-14.99262,1.69648-21.46704-2.47673-2.8883-6.04501-4.96566-9.74998-5.90355-9.74673-2.45425-15.2055,9.67418-21.60144,14.89298-3.51567,3.26275-8.54581,7.85631-11.8599,11.23873-3.94738,3.79122-7.48045,7.94918-11.59191,11.51917-6.08558,5.46654-12.34326,10.71907-18.83763,15.70067-.0891.0755-.22295-.06825-.1316-.15058h0Z" style="fill: #231f20;"/>
    <path d="M233.0717,349.8412c6.801-6.7905,13.84112-13.54248,19.75983-21.09426,8.63241-11.5833,16.80127-23.882,27.33317-33.89762,3.30885-3.42953,6.06007-7.45132,8.99782-11.29794,1.37681-2.01532,3.28109-3.78387,5.59632-4.68077,6.26663-2.93844,16.85181-3.79945,19.31489,4.39314,1.44732,4.84611.29273,9.96049-1.10249,14.63627-4.03325,14.13187-13.07651,26.20639-21.22095,38.06527-5.4463,7.97725-9.6943,16.70588-15.04393,24.76331-5.31337,8.11393-10.84486,16.03669-16.34389,24.00455-.06613.10441-.23613-.0043-.1682-.10839,7.38359-12.4959,15.52263-24.49165,22.37183-37.28205,6.48146-12.98987,16.4512-24.06521,23.23571-36.74423,3.73735-7.43635,13.4151-26.99977,3.00473-32.106-4.34864-1.8843-9.5412-.83186-13.79613.9414-2.30726.87985-3.94562,2.49265-5.33045,4.50845-3.29082,4.36096-6.0671,9.15388-10.0181,13.00484-9.29267,10.28181-17.03241,21.82161-25.60511,32.74835-3.07807,3.82971-6.55292,7.21878-10.02997,10.59714-3.50439,3.34952-7.11523,6.57965-10.82129,9.69724-.08861.08122-.2282-.06416-.13379-.14868h0Z" style="fill: #231f20;"/>
    <path d="M307.38948,223.46622c.67041.74876,5.36293,8.03014,6.72316,8.03014h6.54424l3.55766,3.45601s.89232,1.57965,2.25701,4.03119c4.2387,7.61446,13.03436,23.64017,13.80328,26.86961,1.01647,4.26919,34.15352-23.00701,36.18646-26.86961" style="fill: #e6e7e8; stroke: #231f20; stroke-linecap: round; stroke-linejoin: round; stroke-width: 2px;"/>
    <path d="M326.47155,238.98356s-5.10313,12.84227,9.2731,17.12543" style="fill: none; stroke: #231f20; stroke-linecap: round; stroke-linejoin: round; stroke-width: 2px;"/>
    <path d="M395.4135,242.02522c-5.3103,3.20761-10.57886,6.48102-15.59546,10.04861-6.3348,4.55783-13.75686,7.17183-20.26248,11.36359-9.2596,5.11121-4.63954,19.04363,5.45522,19.13681-.00012,0,1.12635.0465,1.12635.0465.56781-.05868,1.68709-.15893,2.2527-.21831,10.69933-1.99757,21.18207-5.82539,30.55207-11.36401,7.22116-3.639,14.92506-5.89659,22.50472-8.53285,5.92655-1.82796,11.97867-4.041,17.92409-5.41997-12.66968,5.52136-26.20819,9.77835-38.80856,15.49403-4.0205,2.44733-8.34898,4.35477-12.72826,6.02653-6.58236,2.45239-13.4693,4.39099-20.5029,4.88213-.00002-.00009-1.19191.05166-1.19191.05166-.66903-.10836-1.72349-.09174-2.38054-.24956-.31699-.09996-1.42238-.33336-1.74685-.42326-.00005.00003-.55596-.22616-.55596-.22616-4.98405-1.76679-8.02164-7.16196-7.65111-12.33211.11742-5.13634,4.924-8.25313,8.86773-10.63801,5.40325-3.18637,11.1784-5.51312,16.26604-8.87317,5.22412-3.43906,10.72485-6.3703,16.38354-8.95029.10838-.05171.1996.11755.09155.17783h0Z" style="fill: #231f20;"/>
    <path d="M373.20867,199.30159c1.20965,4.57833.67092,9.74071-1.62634,13.89827.96642-4.6212,1.44506-9.16196,1.62634-13.89827h0Z" style="fill: #6d6e71;"/>
    <path d="M377.88445,210.96358c.08423,3.72754-.32617,7.44547-1.06494,11.10266-.82096,3.58854-1.79598,7.4449-4.32803,10.24333,3.41558-6.58933,3.84554-14.16145,5.39297-21.34599h0Z" style="fill: #6d6e71;"/>
    <path d="M380.12053,202.03237c4.4255,9.90617,5.31819,22.16808.0001,31.90352.30509-.93734.67672-1.9646,1.00381-2.8967,2.76751-9.46847,1.77853-19.6498-1.00391-29.00682h0Z" style="fill: #6d6e71;"/>
    <path d="M455.77825,127.04128c-2.38066,3.35621-4.55617,7.11561-7.00058,10.43482-2.47196,3.34416-4.95674,6.99994-8.58795,9.18484-1.58607,1.44362-.14553,3.97123.43875,5.65309,1.17604,2.90286,2.54786,5.92196,2.51404,9.15091-.17201,2.95262-.93547,5.77583-1.7696,8.59322-.15747.39987-.35758,1.01244-.90227.97892-.13964-.02665-.26123-.04907-.40356-.23817l.95264-.27817c.09789,3.1743-.04535,6.62921,1.33187,9.54545,2.7259,3.39923,4.00525,7.78444,5.18646,11.83363-1.83879-3.7711-3.09732-8.12947-5.96553-11.32614-1.66697-3.06175-1.55043-6.69794-1.59422-10.0783.00016-.00003.95304-.27828.95304-.27828-.13232-.17523-.23584-.19531-.36084-.21638-.11774-.01946-.29434.04075-.35547.11929.07797-.12431.13828-.27501.20069-.42679.84933-2.65655,1.65793-5.4846,1.94573-8.24933.14949-3.12004-.91137-6.11488-2.04949-9.0045-.58276-1.8617-2.13139-4.43386-.38442-6.09618,3.43925-2.379,5.58468-6.14641,8.16235-9.36643-.0001-.00009,3.71376-5.06394,3.71376-5.06394,1.26538-1.67303,2.43408-3.41171,3.91064-4.94839.04822-.04945.11919.0349.06396.07683h0Z" style="fill: #6d6e71;"/>
    <path d="M396.71599,120.29413c2.32586,7.14278,3.85155,14.8496,2.76853,22.36241-.30458-7.53488-1.78135-14.90108-2.76853-22.36241h0Z" style="fill: #6d6e71;"/>
    <path d="M391.50505,124.36003c-.39017,6.46914-1.60617,13.35411-.00019,19.7196-1.65952-2.95741-1.81689-6.53118-1.71544-9.84546.15777-3.35395.69195-6.68303,1.71563-9.87414h0Z" style="fill: #6d6e71;"/>
    <path d="M366.49993,213.19985c-.46334,5.50765.19028,11.21752,1.01642,16.67016-2.1944-5.17842-2.84747-11.28911-1.01642-16.67016h0Z" style="fill: #6d6e71;"/>
    <path d="M286.15238,193.82508c-.83149-1.41731-1.70217-2.85819-2.26047-4.41011-.24072-.66914-.47301-1.37767-.57768-2.08367-.06222-.41972-.07124-.86676-.04873-1.28861l.02741-.43145c.11477-.41773-.03505-.30992-.44944.32342l-1.2618.34132c-.79646.00908-.33761-.18618-.29337.02575.0315.1509.42675.40348.55401.53796.29364.31031.55268.6311.79404.95965.59515.81014,1.12,1.67001,1.70875,2.48484,1.38418,1.91573,2.93341,3.48802,5.23326,4.23244.93948.3041,2.05783-.1331,2.62782-.89592.65646-.87854.60723-1.80327.19545-2.77658-1.18014-2.78952-2.98283-5.2915-5.21866-7.33307-.91554-.836-2.28611-.98917-3.28255-.19545-1.0524.83829-1.14981,2.04318-.64389,3.22502.96765,2.26048,2.36623,4.36492,4.10172,6.11298,1.02177,1.02917,2.24774,1.86289,3.76061,1.72526,1.37853-.12541,2.57917-1.07084,2.97194-2.41697.6825-2.33913-.9096-4.62749-2.04945-6.53455-1.39447-2.33307-2.97576-4.53419-4.66559-6.66129-.67793-.85336-2.15232-.90402-3.02956-.39091-.98155.57412-1.3986,1.73906-1.1489,2.82328.75288,3.269,2.5517,6.26609,5.1196,8.42999.95059.80104,2.25657,1.0127,3.28255.19545.95312-.7592,1.3017-2.13743.64389-3.22502-1.92151-3.17693-4.38484-5.82349-7.31778-8.08164-1.66321-1.28055-4.47858.87355-3.6725,2.82328,1.21587,2.9409,2.82847,5.55954,4.99935,7.89861l3.53553-3.53553c-2.14169-2.12233-4.1828-4.33723-6.12346-6.6448-.86958-1.034-2.63872-.89682-3.53553,0-1.0274,1.0274-.86692,2.4949,0,3.53553,2.25466,2.70646,4.29782,5.56608,6.16196,8.55458l2.82328-3.6725-.23856-.09692,1.10317.64293c.52261.78341.22448,1.49693-.89437,2.14056-.46376-.28216-.62632-.33499-.48767-.15849.02586-.02219.17463.75841.18125.82294.10194.99366-.12443,2.01402-.56011,2.90334l4.56937,1.9264c.52208-2.37489,1.60898-4.42851,3.33375-6.14837l-4.26777-1.76777c-.08002,2.02313-.66964,3.88091-1.70801,5.61395-.63528,1.06027-.33366,2.49457.64389,3.22502.89976.67232,2.50306.79627,3.28255-.19545,1.44699-1.84098,2.89399-3.68196,4.34098-5.52293l-3.92644-3.02956c-1.24707,2.4992-2.77836,4.79383-4.66273,6.85656l3.92644,3.02956c1.45392-2.35645,3.0709-4.58022,4.88745-6.67l-4.17846-2.43237c-.19766,1.41737-.61767,2.81114-1.52188,3.95037,1.30881,1.00985,2.61763,2.01971,3.92644,3.02956.7272-1.48141,1.6575-2.64944,2.93032-3.70131-1.30881-1.00985-2.61763-2.01971-3.92644-3.02956-1.10797,1.53875-2.21593,3.07749-3.3239,4.61624-1.70137,2.36286,1.9453,4.93878,3.92644,3.02956,1.48049-1.42674,2.96098-2.85348,4.44147-4.28022l-4.17846-2.43237c-.07199.43443-.13612.95628-.41858,1.31879l3.92644,3.02956c.66803-1.36902,1.55718-2.51899,2.83407-3.36975l-3.02956-3.92644c-1.00425.87909-1.84378,1.91923-2.53613,3.05923l4.31735,2.5236c.30989-.6208.5133-.8391,1.14022-1.15944l-3.42047-3.42047c-2.23456,3.7253-3.55312,7.91788-4.80129,12.05363-1.22939,4.07354-2.20877,8.59781-.54208,12.69533.46891,1.1528,1.41845,1.98995,2.743,1.79075,1.11906-.1683,2.30049-1.2024,2.1677-2.45535-.68073-6.42306-6.53666-10.26059-11.06154-14.12933-2.42127-2.07017-5.79342,1.18291-3.53553,3.53553.67862.70709,1.35724,1.41419,2.03586,2.12128.81079-1.39282,1.62158-2.78564,2.43237-4.17846-2.43006-.66498-4.65226-1.67526-6.76693-3.04512l-2.5236,4.31735c1.53369.66876,3.021.98157,4.68473,1.14526,1.28984.1269,2.66376.25172,3.91486-.17203,2.82051-.95531,4.31037-4.60532,1.96505-6.87626-1.17851,1.17851-2.35702,2.35702-3.53553,3.53553,1.42399,1.2242,2.84798,2.4484,4.27197,3.6726.942.80983,2.26389,1.00686,3.28255.19545.90669-.72222,1.3682-2.1872.64389-3.22502-1.60813-2.30422-3.53286-4.21122-5.86638-5.77899-2.41646-1.62349-4.9373,1.9254-3.02956,3.92644,1.07504,1.12762,2.18187,2.22329,3.33193,3.27456,1.23257,1.12669,2.50316,2.38661,4.31361,2.14585,1.37755-.18319,2.38946-1.20152,2.76437-2.51515.14583-.51096.16999-1.0589.23278-1.58423.04131-.34569-.10907-.35692.02067-.17103l.05529-.21639c-.1283.28797-.30086.5433-.51768.766,2.37207-1.06512,1.04088-4.6261-1.2618-4.65868-.41377-.00585-.82753-.01171-1.2413-.01756-3.21858-.04553-3.21998,4.95445,0,5,.41377.00585.82753.01171,1.2413.01756-.4206-1.55289-.8412-3.10578-1.2618-4.65868-.89592.40229-1.50611,1.30512-1.78012,2.22215-.13012.43549-.16858.90048-.21715,1.35011-.0176.16285-.03404.32581-.04932.48889.03848-.227.04134-.25364.00856-.07993-.01786.10702-.04451.21193-.07994.31473,2.35161-.16706,3.01906-.60495,2.00237-1.31367-.35464-.46518-.95129-.85805-1.37951-1.26101-.90775-.85421-1.78671-1.73697-2.64674-2.63906l-3.02956,3.92644c1.58654,1.06591,2.97786,2.41661,4.07262,3.98523l3.92644-3.02956c-1.42399-1.2242-2.84798-2.4484-4.27197-3.6726-2.41219-2.07375-5.8764,1.26891-3.53553,3.53553-.37188-.36008-.14718-.83438-.17149-1.21795-.0036-.0568.26137-.16586.24411-.20143.01835.03782-1.30262.02347-1.34791.02042-1.05622-.07106-2.24408-.1209-3.23021-.5509-1.23665-.53924-2.68289-.36417-3.42047.89688-.70966,1.21331-.23941,2.6844.89688,3.42047,2.45044,1.58738,5.14558,2.77864,7.96132,3.54916,2.44062.66787,4.1467-2.3922,2.43237-4.17846-.67862-.70709-1.35724-1.41419-2.03586-2.12128-1.17851,1.17851-2.35702,2.35702-3.53553,3.53553,2.10779,1.80215,4.29044,3.54537,6.3003,5.45753,1.43023,1.36071,3.07743,3.06662,3.29677,5.13626l4.9107-.6646c-1.40623-3.45717-.37789-7.03932.66899-10.45271,1.10401-3.5997,2.22237-7.19594,4.17033-10.44346,1.34431-2.24113-1.27215-4.5182-3.42047-3.42047-1.26086.64426-2.30114,1.68546-2.93397,2.9532-1.42814,2.86096,2.63184,5.29891,4.31735,2.5236.48726-.80231,1.0463-1.42752,1.75431-2.04729,2.12123-1.85687-.66292-5.50327-3.02956-3.92644-1.96743,1.31084-3.58623,3.02892-4.62783,5.16351-.54503,1.11696-.39829,2.44628.64389,3.22502.89666.67,2.50744.79933,3.28255-.19545.83272-1.06873,1.47975-2.16933,1.70444-3.52512.39187-2.3646-2.25642-4.28463-4.17846-2.43237-1.48049,1.42674-2.96098,2.85348-4.44147,4.28022l3.92644,3.02956c1.10797-1.53875,2.21593-3.07749,3.3239-4.61624.719-.99854.27037-2.54186-.64389-3.22502-1.05715-.78993-2.29545-.62029-3.28255.19545-1.55594,1.28585-2.82276,2.90147-3.71214,4.71324-.54758,1.11548-.39651,2.44761.64389,3.22502.90323.67491,2.49816.79281,3.28255-.19545,1.44548-1.8212,2.4834-3.83099,2.80774-6.15671.15621-1.12016-.1047-2.21253-1.1489-2.82328-.9104-.53249-2.30885-.43821-3.02956.39091-2.09153,2.40611-3.9951,4.96853-5.66927,7.68193-1.4738,2.38866,1.99271,5.14633,3.92644,3.02956,2.16382-2.36862,4.01163-4.99684,5.44455-7.86849.55458-1.1114.39161-2.45127-.64389-3.22502-.89976-.67232-2.50306-.79627-3.28255.19545-1.44699,1.84098-2.89399,3.68196-4.34098,5.52293l3.92644,3.02956c1.49051-2.48765,2.27623-5.24454,2.39065-8.13754.08694-2.19817-2.77704-3.25426-4.26777-1.76777-2.29903,2.2925-3.92157,5.17941-4.61961,8.35471-.57726,2.6259,3.26066,4.59774,4.56937,1.9264,1.57849-3.22201,2.28978-8.97537-1.81344-10.72134-1.93766-.8245-4.33844-.14746-5.17135,1.8932-.85595,2.09713.24655,4.06392,2.23453,4.87157,2.06528.83906,3.90097-1.94479,2.82328-3.6725-2.08887-3.34877-4.41778-6.53433-6.94378-9.56652-1.17851,1.17851-2.35702,2.35702-3.53553,3.53553,1.94066,2.30758,3.98178,4.52248,6.12346,6.6448,2.29553,2.27479,5.72101-1.18073,3.53553-3.53553-1.54363-1.66322-2.8436-3.58822-3.71349-5.69228-1.22417.94109-2.44833,1.88218-3.6725,2.82328,2.22677,1.71445,4.07482,3.89184,5.52402,6.28788l3.92644-3.02956c-1.96987-1.65996-3.25479-3.70988-3.83373-6.22366-1.39282.81079-2.78564,1.62158-4.17846,2.43237,1.18652,1.49355,2.27955,3.06286,3.29111,4.67981.48214.7707.94577,1.55297,1.38933,2.34651.18853.33728.36901.92387.65044,1.19846-.03297-.1327-.00504-.04078.08382.27576-.01072-.52443.27829-.9542.86703-1.2893h1.3292c-.72268-.13188-1.62287-1.54701-2.05371-2.16424-.72828-1.04337-1.32334-2.16298-1.82357-3.33155-1.30881,1.00985-2.61763,2.01971-3.92644,3.02956,1.95903,1.78883,3.40331,3.87817,4.43684,6.32113.94109-1.22417,1.88218-2.44833,2.82328-3.6725-1.4176-.45885-2.37767-2.1156-3.31894-3.50236-1.21446-1.78924-2.80017-4.24167-5.03662-4.83106-3.81831-1.00627-4.50927,3.779-4.18139,6.39669.39061,3.11849,1.89528,5.91554,3.46442,8.59018,1.6273,2.77378,5.95067.26045,4.31735-2.5236h0Z" style="fill: #e6e7e8;"/>
    <path d="M331.68562,182.6548l-6.75955-1.24363s-6.70873,5.05541-21.95583,7.19-16.16193-10.06309-19.82124-10.36803-.60988,6.40378,3.04942,13.11251c3.65931,6.70873-3.96425,7.31861-9.75815,4.87907-5.7939-2.43954-2.13459-18.60147,0-24.09043s14.33228-16.77182,17.3817-19.21135c3.04942-2.43954,27.13985-42.99684,27.74973-43.91166,0,0,53.66981,30.49421,58.24394,32.93375s39.03259,18.90641,39.03259,18.90641l-21.34595,9.45321-10.06309,11.10653-13.7224,4.44552" style="fill: #e6e7e8; stroke: #231f20; stroke-linecap: round; stroke-linejoin: round; stroke-width: 2px;"/>
    <line x1="275.42727" y1="195.58178" x2="300.22936" y2="216.82083" style="fill: none; stroke: #231f20; stroke-linecap: round; stroke-linejoin: round; stroke-width: 2px;"/>
    <g>
      <path d="M304.5966,189.71862s-12.29933,20.83838-1.32142,30.59653c10.97792,9.75815,67.08726,17.68664,71.35645,18.29653s34.15352,3.96425,39.64247,6.09884c5.48896,2.13459,19.5163,10.97792,23.78548,11.5878,4.26919.60988,20.12618,8.23344,22.26077,9.45321,2.13459,1.21977,61.59831,34.7634,64.64773,37.20294,3.04942,2.43954,14.33228,16.16193,16.46687,16.77182" style="fill: #fff;"/>
      <path d="M304.68279,189.76946c-3.80492,7.8361-7.60351,17.73877-3.89509,26.13899,1.31456,2.69824,3.5683,4.61839,6.22693,5.98662,5.40779,2.77472,11.37881,4.47045,17.24969,6.06621,17.87517,4.57167,36.04954,8.28672,54.3342,10.81313.00004-.00022,18.36137,2.36709,18.36137,2.36709,6.11787,1.01265,12.40849,1.30501,18.30084,3.37629,7.07907,3.09206,13.572,7.30648,20.68327,10.25207,1.42199.61886,2.96186.74002,4.39822,1.1908,8.79345,3.0557,17.3016,7.04332,25.37577,11.64577,19.45578,11.04153,38.97166,22.00169,57.99464,33.78666,2.01313,1.14364,3.65476,3.09903,5.19007,4.78825,2.07109,2.29695,4.06206,4.65257,6.09502,6.96987,2.09038,2.19677,3.93091,4.85483,6.48621,6.4887.11428.04454.03795.23346-.07656.18252-2.69777-1.54144-4.64705-4.11217-6.87241-6.24622-2.45204-2.49323-7.15595-7.73106-9.62787-9.91593-2.19844-1.64691-9.35358-5.4602-11.86591-6.96108-13.07241-7.37658-39.66083-22.29649-52.36669-29.57532-3.99551-2.25266-8.21564-4.14221-12.37816-6.04612-3.15041-1.38598-6.29034-2.78026-9.54518-3.74186-2.77072-.46531-5.23663-1.78092-7.67604-3.01539-5.52075-2.82004-10.75512-6.15683-16.25683-8.78106-5.69294-2.13004-11.97197-2.67388-17.95746-3.69532-24.44874-3.40356-49.15061-5.72081-73.05865-12.1766-5.98918-1.70719-11.96984-3.47854-17.52322-6.41107-2.8224-1.45859-5.41218-3.7878-6.70792-6.77002-2.61419-5.95409-1.23465-12.63849.90636-18.45345,1.09503-2.90769,2.41949-5.71924,4.03302-8.36518.06244-.11043.2348-.00596.17236.10165h0Z" style="fill: #231f20;"/>
    </g>
    <path d="M342.94988,195.66356c7.69054,6.48629,4.51097,23.60583-3.54032,28.60788-.54454.28687-1.40143.23578-1.99579.28257-6.2512-.13952-12.44926-.92802-18.6558-1.60609-1.84073-.33607-3.87891-.26653-5.5833-1.08673-4.44054-3.64893-6.35058-9.96491-5.23732-15.578.88838-4.45814,4.21698-15.34016,9.45599-15.83359,6.28557-.01285,12.49144,1.13082,18.58804,2.54511,2.39399.66143,4.92309,1.18258,6.96849,2.66884h0ZM342.88542,195.73989c-4.24844-2.59473-9.50786-2.88839-14.33855-3.58854-3.67439-.37633-7.41441-.77614-11.09382-.69162-4.42332.5248-7.76888,11.11319-8.59192,15.00093-1.11411,5.26326.4916,11.35868,4.59793,15.00267,1.5798.7569,3.59448.82802,5.34454,1.13593,6.15233.80875,12.38323,1.37556,18.59012,1.25567.46293-.05267,1.25642-.04913,1.67431-.27347,2.57641-1.58437,4.14956-4.37652,5.3892-7.10004,2.79156-6.46789,4.22191-15.4798-1.57181-20.74155h0Z" style="fill: #6d6e71;"/>
    <path d="M318.11321,184.73091c15.52583-2.96594,31.89196-4.70942,47.47997-1.19528,22.93714,5.86671,45.85766,13.17482,69.74662,13.25696,11.1773.31459,24.46379-.25191,31.52334-10.20685,2.02668-3.14706,2.91828-7.00872,3.69514-10.86276,1.53688-7.69198,3.35089-16.03588,7.80362-22.53174-1.50495,3.58178-3.16399,7.34085-4.05808,11.19806-1.01409,3.80243-1.5407,7.7037-2.20867,11.62337-.85022,5.84083-2.67451,12.48382-7.80372,16.21672-7.99516,6.87511-19.09689,6.80013-29.00175,6.44378-19.94817-.40741-39.03836-7.13026-58.43847-11.05417-3.86836-.8536-7.73897-1.69277-11.61421-2.45696-7.66846-1.64459-15.55371-1.95767-23.43628-1.85922-7.88623.12839-15.78198.72803-23.65308,1.62512-.11978.02207-.15729-.17473-.03442-.19702h0Z" style="fill: #231f20;"/>
    <path d="M216.39568,218.22667c4.47693-.32969,9.19675.37637,13.1851,2.49982-3.91595-.7128-9.35302-1.55854-13.1851-2.49982h0Z" style="fill: #6d6e71;"/>
    <path d="M226.13372,217.19682c4.01533-.06721,8.87746,1.00504,11.21716,4.55948-3.3498-2.49819-7.33186-3.20143-11.21716-4.55948h0Z" style="fill: #6d6e71;"/>
    <path d="M212.25969,221.87444c2.64551.194,5.22607.61331,7.80615,1.01657,2.27812.30163,5.46015,1.06015,7.74045.91518-2.53175.8989-5.31102.40057-7.89889.07167-2.60157-.43946-5.17261-1.04166-7.64771-2.00342h0Z" style="fill: #6d6e71;"/>
    <path d="M265.00017,236.3673c3.84806,2.41545,7.57877,5.7368,9.2221,10.06992-2.86038-3.62408-6.22424-6.55669-9.2221-10.06992h0Z" style="fill: #6d6e71;"/>
    <path d="M275.62712,314.52785c4.53673,1.96654,10.8423,5.7746,12.20138,10.82364-2.93451-4.69465-8.0012-7.34104-12.20138-10.82364h0Z" style="fill: #6d6e71;"/>
    <path d="M269.61125,318.26692c4.27,2.9707,7.6465,7.01978,12.11629,9.64311-2.62914-.44586-4.73683-2.33403-6.74524-3.94881-1.96358-1.72491-3.80782-3.58041-5.37105-5.6943h0Z" style="fill: #6d6e71;"/>
    <path d="M267.55852,282.84413c3.99626,1.05668,8.07702,3.70295,9.57701,7.69968-2.70153-3.21127-6.13101-5.33481-9.57701-7.69968h0Z" style="fill: #6d6e71;"/>
    <path d="M171.91692,241.70717c4.25447,1.3464,8.02451,4.94925,9.05256,9.35475-2.33378-3.78791-5.45017-6.73209-9.05256-9.35475h0Z" style="fill: #6d6e71;"/>
  </g>
</svg>
