<?xml version="1.0" encoding="UTF-8"?>
<svg xmlns="http://www.w3.org/2000/svg" xmlns:xlink="http://www.w3.org/1999/xlink" viewBox="0 0 680.34743 448.37557">
  <defs>
    <pattern id="New_Pattern_2" data-name="New Pattern 2" x="0" y="0" width="5.66929" height="5.66929" patternTransform="translate(-1870.86614 -71.46784)" patternUnits="userSpaceOnUse" viewBox="0 0 5.66929 5.66929">
      <g>
        <rect y="0" width="5.66929" height="5.66929" style="fill: none;"/>
        <circle cx="5.66915" cy="5.67012" r=".88355" style="fill: #fdf3eb;"/>
        <circle cx="-.00014" cy="5.67012" r=".88355" style="fill: #fdf3eb;"/>
        <circle cx="2.83451" cy="2.83547" r=".88355" style="fill: #fdf3eb;"/>
        <circle cx="5.66915" cy=".00083" r=".88355" style="fill: #fdf3eb;"/>
        <circle cx="-.00014" cy=".00083" r=".88355" style="fill: #fdf3eb;"/>
      </g>
    </pattern>
  </defs>
  <rect width="680.34743" height="448.37557" style="fill: #fff;"/>
  <g id="Whats_in_the_kit" data-name="Whats in the kit">
    <g id="Vial">
      <path d="M236.98758,140.41903c-.71094,30.57228.00078,33.71762.01222,45.48232.0021,2.15472,5.33303,8.05187,18.89053,8.05187,17.23262,0,16.75731-5.34538,16.75731-5.34538-1.03529-17.78888.71325-30.77709,0-46.6743-.12163-2.71103-1.10473,2.55582-18.39259,2.36923-11.93124-.12878-17.25214-4.54278-17.26746-3.88374Z" style="fill: none;"/>
      <path d="M237.0018,90.55897s-.18823,103.68425,0,104.24895,9.69207,5.99462,18.03901,5.86847c12.45504-.18823,17.53738-5.45881,17.53738-5.45881v-106.91743" style="fill: none; stroke: #231f20; stroke-linecap: round; stroke-linejoin: round; stroke-width: 2px;"/>
      <path d="M236.81356,93.3825s-5.27058,1.88235-5.64704,0c-.37647-1.88235-.03225-7.33786-.03225-7.33786l2.77211-2.13475v-25.16261s3.39717-5.67719,21.30714-6.21175c12.61314-.37647,20.52542,5.45881,20.52542,5.45881v25.91556l2.82398,1.6941s.34797,6.39397-.21674,6.77044-4.32518.25512-4.32518.25512c0,0-6.5722-3.38823-19.03232-3.01175-12.92059.39038-18.17513,3.76469-18.17513,3.76469Z" style="fill: #fee000; stroke: #231f20; stroke-linecap: round; stroke-linejoin: round; stroke-width: 2px;"/>
      <path d="M233.0314,85.71213c4.77498-2.18501,10.00946-3.08069,15.21775-3.33279,8.60724-1.02083,17.51188-1.17126,25.87481,1.38477.05562.01476.03881.10695-.02116.09757-7.7423-.72669-15.45664-1.63523-23.23614-1.37751-5.92581.39041-12.22607,2.35606-17.83526,3.22796h0Z" style="fill: #ceb42c;"/>
      <path d="M258.88411,103.54718s5.81298-.28235,12.6588.47059" style="fill: none; stroke: #d19c2a; stroke-linejoin: round; stroke-width: 2px;"/>
      <path d="M258.88411,119.50009s7.76469-.28235,12.6588.51765" style="fill: none; stroke: #d19c2a; stroke-linejoin: round; stroke-width: 2px;"/>
      <path d="M245.42566,81.80605c-.6819-8.47845-.6822-17.06223-.0001-25.54112.6823,8.47962.68198,17.06193.0001,25.54112h0Z" style="fill: #e8cd2c;"/>
      <path d="M249.21407,55.27669c.68187,8.5726.6822,17.25039.0001,25.82349-.68233-8.57383-.68199-17.25013-.0001-25.82349h0Z" style="fill: #e8cd2c;"/>
      <path d="M271.54291,57.41199c.95186,8.21437,1.22543,16.45867.80324,24.71759-.95763-8.21406-1.21986-16.45874-.80324-24.71759h0Z" style="fill: #e8cd2c;"/>
      <path d="M267.82666,56.26492c.90035,8.41766,1.12211,16.95829.65891,25.41171-.90076-8.41879-1.12184-16.95797-.65891-25.41171h0Z" style="fill: #e8cd2c;"/>
      <path d="M241.63725,82.95311c-.68187-8.47847-.68219-17.06221-.0001-25.54112.68232,8.47963.68198,17.06191.0001,25.54112h0Z" style="fill: #e8cd2c;"/>
      <path d="M253.00246,54.82375c.68189,8.5726.68223,17.25039.0001,25.82349-.6823-8.57383-.68197-17.25012-.0001-25.82349h0Z" style="fill: #e8cd2c;"/>
      <path d="M256.79086,54.82375c.68188,8.5726.68222,17.25039.0001,25.82349-.68232-8.57383-.68197-17.25013-.0001-25.82349h0Z" style="fill: #e8cd2c;"/>
      <path d="M264.03827,55.02963c.90032,8.41766,1.12209,16.95828.65891,25.41171-.9008-8.41879-1.12186-16.95797-.65891-25.41171h0Z" style="fill: #e8cd2c;"/>
      <path d="M260.24985,54.82375c.90039,8.41765,1.12207,16.95827.65894,25.41171-.90083-8.41878-1.12185-16.95797-.65894-25.41171h0Z" style="fill: #e8cd2c;"/>
      <path d="M237.84885,83.32958c-.68186-8.47845-.68219-17.06222-.0001-25.54112.68232,8.47962.68199,17.06192.0001,25.54112h0Z" style="fill: #e8cd2c;"/>
      <path d="M271.78355,194.10484s-4.78439-3.60035-17.03538-3.94051c-10.58506-.2939-16.79341,3.70453-16.79341,3.70453,0,0,4.88767,5.89545,17.59353,5.89545,14.00986,0,16.23526-5.65947,16.23526-5.65947Z" style="fill: #e6e7e8;"/>
      <g>
        <path d="M237.95475,131.98075s12.17028,2.39806,21.6237,1.94726c2.59276-.12364,4.16682.27512,6.064-.70654,1.29123-.66812.7764,43.87327.84448,56.03813.00883,1.57806-7.4653,4.44832-14.60985,3.35568s-13.15021-4.73479-13.15021-4.73479" style="fill: #fff;"/>
        <path d="M237.95476,131.98075c7.04411.85381,14.09499,1.67226,21.17909,1.47362,2.11779-.1589,4.33142.37529,6.28095-.58717.53969-.26546.80837.31425.85999.67719.91427,9.47597.4609,18.99929.57387,28.50491-.02537,4.66379-.08936,16.80778-.12848,21.32834-.01203,1.32336-.02913,4.45346-.03052,5.77465.01566.12746-.03384.38576-.11795.52449-.92746,1.26486-2.55497,1.70797-3.93671,2.21144-8.07946,2.64921-16.79227.1027-23.90812-4.0078,7.16463,3.94441,15.80353,6.38728,23.80091,3.67426,1.30963-.48211,2.83512-.94486,3.69028-2.06773.04941-.12509.07468-.1615.06504-.33249-.01768-1.33049-.02775-4.40182-.03534-5.77787-.00535-4.46544-.02375-16.69448-.03107-21.32716-.19995-9.47471.25012-19.08556-.7981-28.49951.00511-.03399-.0862-.10897.05537.02291.04663.0401.19327.08063.28918.0479.18467-.0782-.05152.02952-.07495.04589-2.01654,1.03849-4.37278.56906-6.51624.75987-7.14478.22133-14.28528-.77954-21.21721-2.44574h0Z" style="fill: #ababab;"/>
      </g>
    </g>
    <g id="Plaster">
      <circle cx="92.02301" cy="343.74487" r="32.79612" style="fill: #eed0b6; stroke: #231f20; stroke-linecap: round; stroke-linejoin: round; stroke-width: 2px;"/>
      <rect x="77.56194" y="329.41987" width="28.03767" height="28.03767" transform="translate(132.46212 -9.64188) rotate(21.53554)" style="fill: #e7b1a3;"/>
      <circle cx="92.12915" cy="343.63874" r="31.73476" style="fill: url(#New_Pattern_2); opacity: .5;"/>
    </g>
    <g id="Alcohol_wipe" data-name="Alcohol wipe">
      <polygon points="444.06774 370.11763 373.30664 370.11763 361.19052 307.43395 431.95162 307.43395 444.06774 370.11763" style="fill: #f4f4f5; stroke: #231f20; stroke-linecap: round; stroke-linejoin: round; stroke-width: 2px;"/>
      <path d="M377.66977,349.12509c5.50762-.41614-.68435-11.67209,23.19169-.94103,3.42249,1.53824-7.85566,16.45306-3.42101,14.11828" style="fill: #7798c9;"/>
      <line x1="395.7885" y1="362.30234" x2="377.66979" y2="349.1251" style="fill: #e6e7e8; stroke: #231f20; stroke-miterlimit: 10; stroke-width: 2px;"/>
      <g>
        <path d="M391.99217,351.73178l-4.0505-4.45555c-6.62895,3.32164-13.26306-.22269-14.74247-7.8763l-2.3826-12.32624c-1.4794-7.65361,3.68813-13.91565,11.4834-13.91565h30.75446c7.79528,0,15.38365,6.26204,16.86305,13.91565l4.52385,23.40388c1.4794,7.65361-3.68813,13.91565-11.4834,13.91565h-17.17269c-7.79528,0-13.43201-5.07046-12.52607-11.2677l-1.26704-1.39375Z" style="fill: #9cbfe3;"/>
        <path d="M391.99217,351.73178l-4.0505-4.45555c-6.62895,3.32164-13.26306-.22269-14.74247-7.8763l-2.3826-12.32624c-1.4794-7.65361,3.68813-13.91565,11.4834-13.91565h30.75446c7.79528,0,15.38365,6.26204,16.86305,13.91565l4.52385,23.40388c1.4794,7.65361-3.68813,13.91565-11.4834,13.91565h-17.17269c-7.79528,0-13.43201-5.07046-12.52607-11.2677l-1.26704-1.39375Z" style="fill: none; stroke: #231f20; stroke-miterlimit: 10; stroke-width: 2px;"/>
      </g>
      <g>
        <polyline points="435.0053 92.6494 435.0053 84.87016 369.18095 97.43662" style="fill: #e6e7e8; stroke: #231f20; stroke-miterlimit: 10; stroke-width: 2px;"/>
        <polygon points="369.18095 97.43662 450.56378 92.6494 455.35101 186.00029 373.36977 191.38592 369.18095 97.43662" style="fill: #e6e7e8; stroke: #231f20; stroke-miterlimit: 10; stroke-width: 2px;"/>
      </g>
    </g>
    <g id="Transport_bag" data-name="Transport bag">
      <path d="M208.35916,287.28171v-11.98726s36.98455-4.37782,46.26749-4.48627,46.26749,4.48627,46.26749,4.48627v11.98726" style="fill: #a7a9ac; stroke: #231f20; stroke-linecap: round; stroke-linejoin: round; stroke-width: 2px;"/>
      <path d="M300.89413,399.7324c-27.6687,4.14435-58.51367,4.14435-92.53497,0v-105.12443s92.53497,0,92.53497,0v105.12443Z" style="fill: #f4f4f5; stroke: #231f20; stroke-linecap: round; stroke-linejoin: round; stroke-width: 2px;"/>
      <path d="M300.89413,294.83846s-27.43036,2.83769-44.26749,3c-8.76293.08447-48.26749-3-48.26749-3v-18.11521s39.25175,4.71352,48.26749,4.10588c14.83712-1,44.26748-4.10588,44.26748-4.10588v18.11521Z" style="fill: #e6e7e8; stroke: #231f20; stroke-linecap: round; stroke-linejoin: round; stroke-width: 2px;"/>
      <path d="M210.4353,398.53487c14.71754-1.64456,29.40231-2.82994,44.22291-3.28188,14.85503.25809,29.51678,1.57474,44.24225,3.27859-14.49457-.11304-29.73073-1.0972-44.22-1.2796-14.50666.3674-29.73123,1.22038-44.24516,1.28289h0Z" style="fill: #a7a9ac;"/>
    </g>
    <g id="Lancet">
      <path d="M600.03453,106.7512s-3.16761-1.77864-3.99999-1.59709c-15.95291,3.47944-43.34109,17.31471-51.24696,23.52646,0,0,8.95654,8.02012,14.68232,14.54115,5.08234,5.78822,11.8048,15.10119,12.4235,16.79997,1.30773,3.59065,2.25882,8.18822,2.25882,8.18822,0,0,34.29182-30.1669,39.81168-43.76462" style="fill: #9cbfe3; stroke: #231f20; stroke-linecap: round; stroke-linejoin: round; stroke-width: 2px;"/>
      <path d="M535.94774,157.76286c5.84507,7.67212,25.02825,7.93453,35.71048,1.42609,10.68223-6.50844,19.03453-23.68639,10.68223-31.50839-11.8588-11.10586-28.4089-4.16135-36.79993,1.84706-7.2022,5.15714-17.44438,17.92938-9.59278,28.23524Z" style="fill: #bcbec0; opacity: .3;"/>
      <path d="M544.78758,128.68057s-29.35554,21.11689-33.88228,33.1764c-1.33154,3.54729,6.63528,15.95291,6.63528,15.95291,0,0,7.76469,12.56468,12.98821,11.8588s24.2823-7.76469,43.62344-21.45878" style="fill: none; stroke: #231f20; stroke-linecap: round; stroke-linejoin: round; stroke-width: 2px;"/>
      <path d="M600.03453,106.7512s7.15293-6.21175,9.41175-6.39999l2.25882-.18823s14.18535-9.67683,16.00533-10.81432c1.50588-.94117,6.30051-3.96212,11.28873-.66801,3.68039,2.43045,1.75222,8.14938-.09412,10.07057-1.28639,1.33854-15.6235,13.92938-15.6235,13.92938,0,0-.86517,2.20939-1.41176,2.82352-.55966.62883-8.47057,7.62351-8.47057,7.62351,0,0-2.82352-5.31764-6.4941-9.6941-2.16649-2.58312-6.87057-6.68234-6.87057-6.68234Z" style="fill: #9cbfe3; stroke: #231f20; stroke-miterlimit: 10; stroke-width: 2px;"/>
      <path d="M558.05817,123.12764c8.02067-1.32157,19.41563-2.26442,24.60727,5.43173,2.3016,3.09577,3.45631,7.07626,2.93523,10.91692-1.06728,7.66165-6.87182,13.62357-12.57775,18.28663,5.22858-5.03027,10.68703-10.93569,11.67437-18.39288.44545-3.63705-.70923-7.29888-2.81053-10.25881-4.78348-7.32563-16.09174-6.61861-23.82859-5.98359h0Z" style="fill: #ababab;"/>
      <path d="M539.56409,134.75115c-12.36894,15.38333-5.42987,29.19107,14.23727,28.49741,4.96778-.16642,9.9111-1.04253,14.70384-2.37978-4.69086,1.73543-9.64057,2.81429-14.66938,3.14821-20.193,1.35901-28.22387-14.27468-14.27173-29.26584h0Z" style="fill: #bcbec0;"/>
      <path d="M512.03473,163.03346c4.11257,6.48246,8.7923,12.61021,14.1792,18.08532,1.27831,1.33686,3.24785,2.75953,3.15971,4.823-.03697.6757-.33641,1.32065-.82133,1.75043.4079-.5015.58997-1.14377.56293-1.75073-.16352-1.8963-2.14396-3.09266-3.42283-4.27236-5.73778-5.1939-10.48108-11.57445-13.65767-18.63566h0Z" style="fill: #231f20;"/>
      <path d="M554.8111,130.65703c6.17952-6.09777,13.35401-11.08542,21.03511-15.10599-6.03405,6.23562-13.2788,11.24732-21.03511,15.10599h0Z" style="fill: #4e74b2;"/>
      <path d="M560.5993,136.02173c9.70732-8.61768,20.31732-16.20956,31.62333-22.5884-9.70054,8.62647-20.32309,16.2007-31.62333,22.5884h0Z" style="fill: #4e74b2;"/>
      <path d="M565.96399,141.38643c10.05767-9.30303,21.0386-17.59964,32.75272-24.70604-10.05061,9.31164-21.04463,17.59095-32.75272,24.70604h0Z" style="fill: #4e74b2;"/>
      <path d="M571.6582,146.32759c8.16152-7.75159,17.26003-14.50591,27.05851-20.04721-8.15449,7.76021-17.26589,14.4971-27.05851,20.04721h0Z" style="fill: #4e74b2;"/>
      <path d="M532.91583,174.56284c8.06197-7.39211,17.04331-13.77,26.69511-18.91782-8.05514,7.40084-17.049,13.76108-26.69511,18.91782h0Z" style="fill: #bcbec0;"/>
      <path d="M524.17584,171.03342c8.87185-8.16109,18.91901-15.01025,29.50567-20.75317-9.01491,8.014-19.02455,14.8103-29.50567,20.75317h0Z" style="fill: #bcbec0;"/>
      <path d="M520.83301,165.10402c8.497-7.94425,17.92308-14.88445,28.04856-20.61192-8.49008,7.95286-17.92896,14.87563-28.04856,20.61192h0Z" style="fill: #bcbec0;"/>
      <path d="M521.49353,155.64522c6.62789-6.48387,14.20808-11.97971,22.44688-16.23546-6.62102,6.49242-14.21378,11.97082-22.44688,16.23546h0Z" style="fill: #bcbec0;"/>
      <path d="M612.36389,101.10416c5.08469,1.18295,9.18656,5.67146,9.97654,10.8235-1.79441-1.88697-3.25583-3.78619-4.85538-5.55648-1.60897-1.85586-3.47585-3.36011-5.12115-5.26701h0Z" style="fill: #4e74b2;"/>
      <path d="M544.92876,128.68057s8.95654,8.02012,14.68232,14.54115c5.08234,5.78822,11.8048,15.10119,12.4235,16.79997,1.30773,3.59065,2.25882,8.18822,2.25882,8.18822" style="fill: none; stroke: #231f20; stroke-linecap: round; stroke-linejoin: round; stroke-width: 2px;"/>
    </g>
    <g id="Box">
      <polygon points="526.01115 301.23024 504.36413 367.8654 508.88177 378.40655 656.45794 380.2889 660.41088 368.4301 641.96385 301.23024 526.01115 301.23024" style="fill: #c49a6c; stroke: #231f20; stroke-linecap: round; stroke-linejoin: round;"/>
      <path d="M529.38306,302.11705c-6.4547,21.78448-13.75709,44.6128-21.45869,65.96363-.00023-.00007-2.44716-.08143-2.44716-.08143,0,0,2.44693-.08136,2.44693-.08136,6.21554-21.38776,13.89221-44.52723,21.45892-65.80084h0Z" style="fill: #603913;"/>
      <path d="M638.55927,302.11705c6.31515,21.31388,12.51498,44.39923,17.53777,65.80619-.00017.00006,2.22694,1.01721,2.22694,1.01721,0,0-2.29041-.86514-2.29041-.86514-6.36148-21.44592-12.34376-44.18701-17.4743-65.95825h0Z" style="fill: #603913;"/>
      <polygon points="539.17124 302.11704 526.74774 345.78754 640.06516 346.72871 630.84165 302.11704 539.17124 302.11704" style="fill: #fff; stroke: #231f20; stroke-linecap: round; stroke-linejoin: round;"/>
      <line x1="584.15939" y1="321.8817" x2="583.40645" y2="342.02284" style="fill: none; stroke: #231f20; stroke-linecap: round; stroke-linejoin: round;"/>
      <line x1="586.98291" y1="330.54051" x2="586.98291" y2="342.02284" style="fill: none; stroke: #231f20; stroke-linecap: round; stroke-linejoin: round;"/>
      <line x1="590.55938" y1="330.54051" x2="590.55938" y2="342.02284" style="fill: none; stroke: #231f20; stroke-linecap: round; stroke-linejoin: round;"/>
      <line x1="593.75937" y1="327.52875" x2="593.75937" y2="342.02284" style="fill: none; stroke: #231f20; stroke-linecap: round; stroke-linejoin: round;"/>
      <line x1="597.33583" y1="333.1758" x2="597.33583" y2="342.02284" style="fill: none; stroke: #231f20; stroke-linecap: round; stroke-linejoin: round;"/>
      <line x1="600.9123" y1="335.52874" x2="600.9123" y2="342.02284" style="fill: none; stroke: #231f20; stroke-linecap: round; stroke-linejoin: round;"/>
      <path d="M562.88884,323.19935h13.17644" style="fill: none; stroke: #231f20; stroke-linecap: round; stroke-linejoin: round;"/>
      <path d="M564.49726,307.76409h13.17644" style="fill: none; stroke: #231f20; stroke-linecap: round; stroke-linejoin: round;"/>
      <path d="M564.26749,311.19414c26.46354,0-16.13321,0,13.17644,0" style="fill: none; stroke: #231f20; stroke-linecap: round; stroke-linejoin: round;"/>
      <path d="M564.26749,312.90917c26.46354,0-16.13321,0,13.17644,0" style="fill: none; stroke: #231f20; stroke-linecap: round; stroke-linejoin: round;"/>
      <path d="M564.03772,314.6242c26.46354,0-16.13321,0,13.17644,0" style="fill: none; stroke: #231f20; stroke-linecap: round; stroke-linejoin: round;"/>
      <path d="M563.80794,316.33923c26.46354,0-16.13321,0,13.17644,0" style="fill: none; stroke: #231f20; stroke-linecap: round; stroke-linejoin: round;"/>
      <path d="M563.34839,318.05426c26.46354,0-16.13321,0,13.17644,0" style="fill: none; stroke: #231f20; stroke-linecap: round; stroke-linejoin: round; stroke-width: .25px;"/>
      <path d="M563.34839,319.76929c26.46354,0-16.13321,0,13.17644,0" style="fill: none; stroke: #231f20; stroke-linecap: round; stroke-linejoin: round;"/>
      <path d="M563.11862,321.48432c26.46354,0-16.13321,0,13.17644,0" style="fill: none; stroke: #231f20; stroke-linecap: round; stroke-linejoin: round; stroke-width: .5px;"/>
      <path d="M564.49726,309.47911c26.46354,0-16.13321,0,13.17644,0" style="fill: none; stroke: #231f20; stroke-linecap: round; stroke-linejoin: round; stroke-width: .5px;"/>
      <path d="M509.24188,367.99925c47.17905-.36198,99.62014-.00964,146.82324.94109-47.22111.34558-99.64231.0258-146.82324-.94109h0Z" style="fill: #603913;"/>
      <g>
        <line x1="551.03003" y1="378.16396" x2="550.83722" y2="376.67638" style="fill: none; stroke: #231f20; stroke-linecap: round; stroke-linejoin: round;"/>
        <polyline points="550.48041 373.92366 549.7124 367.99925 552.07605 353.34444" style="fill: none; stroke: #231f20; stroke-dasharray: 2.77576 2.77576; stroke-linecap: round; stroke-linejoin: round;"/>
        <polyline points="552.29706 351.97426 552.53595 350.49343 554.03595 350.49343" style="fill: none; stroke: #231f20; stroke-linecap: round; stroke-linejoin: round;"/>
        <line x1="556.89972" y1="350.49343" x2="607.01569" y2="350.49343" style="fill: none; stroke: #231f20; stroke-dasharray: 2.86377 2.86377; stroke-linecap: round; stroke-linejoin: round;"/>
        <polyline points="608.44757 350.49343 609.94757 350.49343 610.13953 351.98107" style="fill: none; stroke: #231f20; stroke-linecap: round; stroke-linejoin: round;"/>
        <polyline points="610.51569 354.89632 612.20642 367.99925 611.07074 376.76006" style="fill: none; stroke: #231f20; stroke-dasharray: 2.93942 2.93942; stroke-linecap: round; stroke-linejoin: round;"/>
        <line x1="610.88177" y1="378.21755" x2="610.68896" y2="379.70513" style="fill: none; stroke: #231f20; stroke-linecap: round; stroke-linejoin: round;"/>
      </g>
      <path d="M560.06531,304.37587c-1.675,13.11899-4.04064,26.22663-7.05868,39.10582,1.67511-13.12268,4.04119-26.22802,7.05868-39.10582h0Z" style="fill: #808285;"/>
      <path d="M582.38751,304.79939c.01876,12.89158-.64891,25.85844-1.9927,38.68229-.01919-12.89509.64924-25.85982,1.9927-38.68229h0Z" style="fill: #808285;"/>
      <path d="M604.1123,304.79939c1.11488,12.80015,1.8963,25.835,1.8353,38.68228-1.30164-12.82243-2.08399-25.79445-1.8353-38.68228h0Z" style="fill: #808285;"/>
      <path d="M554.55945,304.37587c-1.95929,13.1331-4.60869,26.24054-7.90579,39.10582,1.95951-13.13681,4.60931-26.24193,7.90579-39.10582h0Z" style="fill: #808285;"/>
    </g>
    <g id="Instructions">
      <polygon points="25.4598 30.81509 42.83868 90.66843 25.4598 153.98609 46.97238 208.0884 154.37669 208.0884 135.40705 153.98609 148.04357 90.66843 127.12935 30.81509 25.4598 30.81509" style="fill: #fff; stroke: #231f20; stroke-linecap: round; stroke-linejoin: round; stroke-width: 2px;"/>
      <path d="M51.0501,90.01503c29.48992-1.36844,59.03883-1.37944,88.52858-.00022-29.48973,1.37967-59.03864,1.36867-88.52858.00022h0Z" style="fill: #231f20;"/>
      <path d="M34.134,152.47251c31.10474-1.36846,62.26541-1.37947,93.36999-.00022-31.10456,1.37969-62.26523,1.36868-93.36999.00022h0Z" style="fill: #231f20;"/>
      <path d="M41.59783,42.57279c16.06974-1.37051,32.251-1.38137,48.32042-.00025-16.06938,1.38161-32.25065,1.37077-48.32042.00025h0Z" style="fill: #a7a9ac;"/>
      <path d="M45.28652,55.94429c23.02926-1.36835,46.13392-1.37932,69.16295-.00022-23.02901,1.37956-46.13368,1.36858-69.16295.00022h0Z" style="fill: #a7a9ac;"/>
      <path d="M48.28358,64.24385c23.02925-1.36836,46.13393-1.37934,69.16296-.00022-23.02901,1.37956-46.13368,1.36857-69.16296.00022h0Z" style="fill: #a7a9ac;"/>
      <polyline points="53.3123 98.56597 49.50835 112.05274 63.79511 112.16956 67.21216 98.88461 54.34975 98.56597" style="fill: #e6e7e8;"/>
      <polyline points="86.97506 99.10686 83.17111 112.59363 97.45787 112.71045 100.87492 99.4255 88.01251 99.10686" style="fill: #e6e7e8;"/>
      <polyline points="120.63782 99.10686 116.83386 112.59363 131.12063 112.71045 134.53768 99.4255 121.67527 99.10686" style="fill: #e6e7e8;"/>
      <polyline points="46.16833 124.29447 42.36437 137.78125 56.65113 137.89807 60.06818 124.61312 47.20577 124.29447" style="fill: #e6e7e8;"/>
      <polyline points="79.83109 124.83537 76.02713 138.32214 90.31389 138.43896 93.73094 125.15401 80.86853 124.83537" style="fill: #e6e7e8;"/>
      <polyline points="113.49385 124.83537 109.68989 138.32214 123.97665 138.43896 127.3937 125.15401 114.53129 124.83537" style="fill: #e6e7e8;"/>
      <g>
        <path d="M81.97351,117.10308c.51872-.45389,18.33899,0,18.33899,0" style="fill: #fff;"/>
        <path d="M81.97351,117.10309c6.01315-1.17872,12.27343-.72583,18.33899-.0003-6.10751.66229-12.24101.17678-18.33899.0003h0Z" style="fill: #a7a9ac;"/>
      </g>
      <g>
        <path d="M48.87316,116.13048c.51872-.45389,18.33899,0,18.33899,0" style="fill: #fff;"/>
        <path d="M48.84024,116.09285c2.22761-.92157,4.59515-.57097,6.90274-.31929,3.836-.1129,7.67453-.67498,11.47044.30713,0-.00019-.00254.09977-.00254.09977-1.5366.27759-3.0674.37025-4.5966.38341-2.29453.04171-4.5806-.46928-6.87348-.4662-2.24999.25774-4.73251.4598-6.90057-.00481h0Z" style="fill: #a7a9ac;"/>
      </g>
      <g>
        <path d="M73.68402,143.51382c.51872-.45389,18.33899,0,18.33899,0" style="fill: #fff;"/>
        <path d="M73.65109,143.47618c2.22761-.92155,4.59514-.57095,6.90275-.31929,3.836-.11287,7.67453-.67498,11.47044.30714,0-.00019-.00254.09977-.00254.09977-1.5366.27759-3.0674.37025-4.5966.38341-2.29453.04169-4.5806-.46927-6.87348-.46622-2.24999.25778-4.7325.45981-6.90057-.00481h0Z" style="fill: #a7a9ac;"/>
      </g>
      <g>
        <path d="M40.58367,142.54121c.51872-.45389,18.33899,0,18.33899,0" style="fill: #fff;"/>
        <path d="M40.58367,142.54122c6.01316-1.17872,12.27343-.72583,18.33899-.0003-6.10751.66229-12.24101.17678-18.33899.0003h0Z" style="fill: #a7a9ac;"/>
      </g>
      <g>
        <path d="M116.19868,117.10308c.51872-.45389,18.33899,0,18.33899,0" style="fill: #fff;"/>
        <path d="M116.16576,117.06545c2.22762-.92155,4.59514-.57095,6.90275-.31929,3.83601-.11287,7.67452-.67498,11.47045.30714,0-.00019-.00254.09977-.00254.09977-1.53661.27759-3.0674.37025-4.5966.38341-2.29454.04171-4.5806-.46926-6.87348-.46622-2.24998.25776-4.73253.45983-6.90057-.00481h0Z" style="fill: #a7a9ac;"/>
      </g>
      <g>
        <path d="M107.90919,143.51382c.51872-.45389,18.33899,0,18.33899,0" style="fill: #fff;"/>
        <path d="M107.90919,143.51381c6.01316-1.17871,12.27343-.72581,18.33899-.0003-6.10751.66231-12.241.17679-18.33899.0003h0Z" style="fill: #a7a9ac;"/>
      </g>
      <g>
        <path d="M47.07446,120.31334c.36753-.45389,12.99372,0,12.99372,0" style="fill: #fff;"/>
        <path d="M47.07446,120.31334c.99795-.47863,2.14882-.46856,3.2329-.58993,3.27026-.19386,6.5308-.08123,9.76083.58989-4.332.65818-8.67784.18206-12.99373.00004h0Z" style="fill: #a7a9ac;"/>
      </g>
      <g>
        <path d="M107.13332,146.86926c.36753-.45389,12.99372,0,12.99372,0" style="fill: #fff;"/>
        <path d="M107.13332,146.86926c.99795-.47862,2.14882-.46857,3.2329-.58993,3.27027-.19386,6.5308-.08123,9.76083.58989-4.332.65818-8.67784.18206-12.99373.00004h0Z" style="fill: #a7a9ac;"/>
      </g>
      <path d="M40.58367,168.69519c5.42151-1.13995,10.90387-.80556,16.34736-.22401,5.45143.0511,10.88414-.93229,16.34739-.74234,3.63274.09176,7.26549.32303,10.89824.96635v.2c-5.44117.92999-10.87305,1.12075-16.34737.84521-3.62986-.06779-7.26172-.78384-10.89825-.62097-3.62425.27448-7.24751.82561-10.89825.45059-1.81637-.12481-3.63274-.29313-5.44912-.67483,0,0,0-.2,0-.2h0Z" style="fill: #a7a9ac;"/>
      <path d="M44.11348,177.09474c14.48996-1.37039,29.10338-1.38124,43.59299-.00025-14.48957,1.38149-29.10299,1.37064-43.59299.00025h0Z" style="fill: #a7a9ac;"/>
      <path d="M48.45489,186.89284c10.73831-1.3699,21.64202-1.3807,32.37986-.00024-10.73779,1.38092-21.64149,1.37008-32.37986.00024h0Z" style="fill: #a7a9ac;"/>
      <path d="M97.04346,168.79518c12.27065-1.37015,24.68663-1.38095,36.95687-.00025-12.2702,1.38122-24.68618,1.37039-36.95687.00025h0Z" style="fill: #a7a9ac;"/>
      <path d="M98.64493,177.09474c12.27067-1.37014,24.68663-1.38097,36.95688-.00025-12.27021,1.38122-24.68616,1.37038-36.95688.00025h0Z" style="fill: #a7a9ac;"/>
      <path d="M102.32545,186.89284c9.08567-1.36945,18.3656-1.38022,27.45072-.00024-9.08507,1.38043-18.36498,1.36963-27.45072.00024h0Z" style="fill: #a7a9ac;"/>
      <path d="M53.2748,196.6909c10.73831-1.36984,21.64201-1.38067,32.37986-.00024-10.73779,1.38095-21.6415,1.37014-32.37986.00024h0Z" style="fill: #a7a9ac;"/>
    </g>
  </g>
</svg>
